<?xml version="1.0" encoding="UTF-8"?>
<svg xmlns="http://www.w3.org/2000/svg" xmlns:xlink="http://www.w3.org/1999/xlink" width="px" height="60px" viewBox="0 0 131 60" version="1.1">
<g id="surface1">
<path style=" stroke:none;fill-rule:nonzero;fill:rgb(94.117647%,50.196078%,0%);fill-opacity:1;" d="M 123.554688 37.726562 C 121.136719 37.726562 119.894531 39.234375 119.695312 39.457031 C 119.085938 38.371094 117.96875 37.726562 116.492188 37.726562 C 114.359375 37.726562 113.15625 38.894531 112.957031 39.082031 C 112.871094 38.769531 112.433594 37.914062 111.0625 37.914062 C 110.667969 37.914062 110.089844 38.03125 110.039062 38.039062 C 110.097656 38.289062 110.359375 39.472656 110.359375 41.113281 L 110.359375 48.351562 L 113.15625 48.351562 L 113.15625 40.980469 C 113.210938 40.933594 114.257812 39.929688 115.519531 39.929688 C 116.777344 39.929688 117.40625 40.816406 117.40625 42.039062 L 117.40625 48.359375 L 120.210938 48.359375 L 120.210938 40.988281 C 120.265625 40.933594 121.289062 39.9375 122.574219 39.9375 C 123.855469 39.9375 124.433594 40.824219 124.433594 42.046875 L 124.433594 48.367188 L 127.257812 48.367188 L 127.257812 41.632812 C 127.257812 39.269531 125.839844 37.734375 123.554688 37.734375 Z M 123.554688 37.726562 "/>
<path style=" stroke:none;fill-rule:nonzero;fill:rgb(94.117647%,50.196078%,0%);fill-opacity:1;" d="M 92.863281 46.445312 C 90.960938 46.445312 89.605469 45.019531 89.605469 43.167969 C 89.605469 41.097656 91.148438 39.867188 92.863281 39.867188 C 93.789062 39.867188 94.179688 40.136719 94.789062 40.136719 C 95.4375 40.136719 95.789062 39.839844 96.113281 39.238281 C 96.292969 38.90625 96.398438 38.71875 96.398438 38.71875 C 96.253906 38.636719 94.835938 37.730469 92.433594 37.730469 C 88.90625 37.730469 86.796875 40.125 86.796875 43.175781 C 86.796875 46.503906 89.207031 48.597656 92.433594 48.597656 C 94.773438 48.597656 96.191406 47.699219 96.4375 47.527344 L 95.46875 45.710938 C 95.257812 45.839844 94.257812 46.453125 92.863281 46.453125 Z M 92.863281 46.445312 "/>
<path style=" stroke:none;fill-rule:nonzero;fill:rgb(94.117647%,50.196078%,0%);fill-opacity:1;" d="M 62.171875 37.722656 C 59.492188 37.722656 57.226562 39.785156 57.226562 43.167969 C 57.226562 46.550781 59.421875 48.589844 62.703125 48.589844 C 65.3125 48.589844 66.660156 47.511719 66.824219 47.414062 C 66.824219 47.414062 66.570312 47.023438 66.5 46.910156 C 66.136719 46.339844 65.714844 46.160156 65.253906 46.160156 C 64.335938 46.160156 64.21875 46.519531 62.964844 46.519531 C 60.816406 46.519531 60.078125 44.9375 60.023438 43.882812 L 67.207031 43.882812 L 67.207031 43.09375 C 67.207031 39.851562 65.230469 37.714844 62.179688 37.714844 Z M 60.007812 42.007812 C 60.007812 40.820312 60.886719 39.710938 62.125 39.710938 C 63.503906 39.710938 64.273438 40.851562 64.289062 42.007812 L 60 42.007812 Z M 60.007812 42.007812 "/>
<path style=" stroke:none;fill-rule:nonzero;fill:rgb(94.117647%,50.196078%,0%);fill-opacity:1;" d="M 71.992188 45.429688 L 71.992188 34.597656 C 71.992188 33.375 71.128906 32.433594 69.789062 32.433594 L 69.1875 32.433594 L 69.1875 46.492188 C 69.1875 47.792969 70.035156 48.59375 71.507812 48.59375 C 73.324219 48.59375 73.871094 47.371094 73.871094 46.214844 C 73.792969 46.253906 73.410156 46.402344 73.023438 46.402344 C 72.371094 46.402344 71.992188 46.050781 71.992188 45.429688 Z M 71.992188 45.429688 "/>
<path style=" stroke:none;fill-rule:nonzero;fill:rgb(94.117647%,50.196078%,0%);fill-opacity:1;" d="M 53.269531 45.066406 L 53.269531 39.914062 L 55.609375 39.914062 L 56.425781 37.917969 L 53.269531 37.917969 L 53.269531 34.804688 C 53.269531 34.804688 53.015625 34.804688 53.007812 34.804688 C 51.765625 34.804688 50.472656 35.308594 50.472656 37.898438 L 50.472656 37.917969 L 48.402344 37.917969 L 48.402344 39.914062 L 50.472656 39.914062 L 50.472656 45.980469 C 50.472656 47.699219 51.550781 48.589844 53.074219 48.589844 C 54.300781 48.589844 55.894531 48.238281 55.894531 45.929688 C 55.800781 45.980469 55.207031 46.347656 54.546875 46.347656 C 53.636719 46.347656 53.277344 45.824219 53.277344 45.066406 Z M 53.269531 45.066406 "/>
<path style=" stroke:none;fill-rule:nonzero;fill:rgb(94.117647%,50.196078%,0%);fill-opacity:1;" d="M 79.734375 37.722656 C 77.054688 37.722656 74.789062 39.785156 74.789062 43.167969 C 74.789062 46.550781 76.984375 48.589844 80.265625 48.589844 C 82.875 48.589844 84.222656 47.511719 84.390625 47.414062 C 84.390625 47.414062 84.136719 47.023438 84.0625 46.910156 C 83.699219 46.339844 83.277344 46.160156 82.820312 46.160156 C 81.898438 46.160156 81.78125 46.519531 80.527344 46.519531 C 78.378906 46.519531 77.644531 44.9375 77.585938 43.882812 L 84.769531 43.882812 L 84.769531 43.09375 C 84.769531 39.851562 82.796875 37.714844 79.742188 37.714844 Z M 77.578125 42.007812 C 77.578125 40.820312 78.460938 39.710938 79.695312 39.710938 C 81.074219 39.710938 81.84375 40.851562 81.859375 42.007812 Z M 77.578125 42.007812 "/>
<path style=" stroke:none;fill-rule:nonzero;fill:rgb(94.117647%,50.196078%,0%);fill-opacity:1;" d="M 102.855469 48.59375 C 99.433594 48.59375 97.371094 46.457031 97.371094 43.164062 C 97.371094 39.871094 99.410156 37.726562 102.855469 37.726562 C 106.304688 37.726562 108.351562 39.886719 108.351562 43.164062 C 108.351562 46.261719 106.472656 48.59375 102.855469 48.59375 Z M 102.855469 46.550781 C 104.578125 46.550781 105.566406 45.15625 105.566406 43.164062 C 105.566406 41.167969 104.601562 39.765625 102.855469 39.765625 C 101.113281 39.765625 100.152344 41.152344 100.152344 43.164062 C 100.152344 45.171875 101.121094 46.550781 102.855469 46.550781 Z M 102.855469 46.550781 "/>
<path style=" stroke:none;fill-rule:nonzero;fill:rgb(88.235294%,0%,16.470588%);fill-opacity:1;" d="M 12.675781 36.78125 C 10.988281 36.03125 9.601562 35.429688 9.601562 34.207031 C 9.601562 33.269531 10.394531 32.59375 11.953125 32.59375 C 12.527344 32.59375 13 32.664062 13.484375 32.746094 C 13.738281 32.78125 14.007812 32.820312 14.230469 32.820312 C 15.59375 32.820312 16.363281 32.046875 16.878906 30.59375 L 17.089844 29.992188 C 16.878906 29.910156 14.648438 28.980469 11.742188 28.980469 C 7.121094 28.980469 4.679688 31.785156 4.6875 34.695312 C 4.6875 36.164062 5.167969 37.222656 5.929688 38.0625 C 6.90625 39.140625 8.308594 39.847656 9.609375 40.449219 C 11.511719 41.332031 13.230469 41.984375 13.230469 43.296875 C 13.230469 44.460938 11.960938 45.121094 10.265625 45.121094 C 7.945312 45.121094 5.90625 43.859375 5.652344 43.710938 L 3.742188 47.09375 C 4.082031 47.273438 6.539062 48.75 10.589844 48.75 C 14.902344 48.75 18.167969 46.410156 18.167969 42.808594 C 18.167969 39.210938 15.140625 37.898438 12.691406 36.78125 Z M 12.675781 36.78125 "/>
<path style=" stroke:none;fill-rule:nonzero;fill:rgb(88.235294%,0%,16.470588%);fill-opacity:1;" d="M 29.542969 38.453125 L 37.367188 29.378906 L 31.792969 29.378906 L 25.554688 37.207031 L 25.460938 37.207031 L 25.460938 29.378906 L 20.863281 29.378906 L 20.863281 48.601562 L 21.140625 48.601562 C 23.128906 48.601562 25.492188 47.730469 25.492188 44.59375 L 25.492188 40.183594 L 25.585938 40.183594 L 31.945312 48.367188 L 37.785156 48.367188 L 29.542969 38.460938 Z M 29.542969 38.453125 "/>
<path style=" stroke:none;fill-rule:nonzero;fill:rgb(88.235294%,0%,16.470588%);fill-opacity:1;" d="M 37.628906 8.78125 C 36.011719 9.074219 33.609375 10.460938 33.617188 12.914062 C 33.617188 15.140625 35.554688 16.5 35.5625 19.417969 C 35.570312 21.613281 34.292969 23.097656 32.90625 23.917969 C 33.46875 23.871094 34.078125 23.84375 34.753906 23.835938 C 36.171875 23.835938 37.019531 23.960938 37.074219 23.96875 L 44.328125 15.546875 C 42.3125 12.6875 39.960938 10.476562 37.628906 8.773438 Z M 37.628906 8.78125 "/>
<path style=" stroke:none;fill-rule:nonzero;fill:rgb(88.235294%,0%,16.470588%);fill-opacity:1;" d="M 43.726562 31.53125 C 44.636719 30.1875 44.757812 28.042969 44.835938 25.863281 C 44.921875 23.820312 45.367188 22.292969 48.25 22.285156 C 48.894531 22.285156 49.496094 22.367188 50.597656 22.359375 C 54.816406 22.34375 57.574219 20.964844 59.285156 20.0625 C 55.78125 17.949219 50.675781 15.796875 44.335938 15.558594 C 43.921875 16.660156 40.714844 25.113281 40.46875 25.792969 C 40.507812 25.832031 41.070312 26.433594 41.769531 27.59375 C 42.804688 29.191406 43.359375 30.550781 43.734375 31.53125 Z M 43.726562 31.53125 "/>
<path style=" stroke:none;fill-rule:nonzero;fill:rgb(94.117647%,50.196078%,0%);fill-opacity:1;" d="M 28.394531 24.628906 C 28.03125 24.628906 27.847656 24.40625 27.792969 24 C 27.746094 23.601562 25.929688 7.898438 25.660156 5.519531 C 25.621094 5.175781 25.535156 4.539062 25.527344 4.304688 C 25.527344 3.9375 25.78125 3.75 26.074219 3.75 C 26.929688 3.75 31.621094 4.785156 36.589844 8.085938 C 35.15625 8.46875 32.566406 9.878906 32.582031 12.796875 C 32.589844 15.382812 34.546875 16.800781 34.554688 19.394531 C 34.570312 23.609375 29.449219 24.628906 28.386719 24.628906 Z M 28.394531 24.628906 "/>
<path style=" stroke:none;fill-rule:nonzero;fill:rgb(94.117647%,50.196078%,0%);fill-opacity:1;" d="M 44.136719 32.65625 C 44.21875 32.851562 44.289062 33.019531 44.359375 33.128906 C 44.472656 33.308594 44.621094 33.398438 44.804688 33.394531 C 44.921875 33.394531 45.058594 33.355469 45.214844 33.289062 C 45.597656 33.121094 60.753906 26.449219 63.035156 25.449219 C 63.367188 25.300781 63.996094 25.039062 64.199219 24.917969 C 64.414062 24.804688 64.507812 24.632812 64.507812 24.460938 C 64.507812 24.363281 64.476562 24.265625 64.421875 24.183594 C 64.136719 23.746094 62.671875 22.269531 60.222656 20.664062 C 58.277344 21.679688 55.234375 23.246094 50.71875 23.269531 C 49.609375 23.269531 49.363281 23.199219 48.601562 23.199219 C 46.398438 23.199219 45.84375 24.101562 45.761719 25.929688 C 45.746094 26.273438 45.746094 26.742188 45.722656 27.25 C 45.652344 28.886719 45.445312 31.144531 44.128906 32.648438 Z M 44.136719 32.65625 "/>
</g>
</svg>
