<?xml version="1.0" encoding="UTF-8"?>
<svg xmlns="http://www.w3.org/2000/svg" xmlns:xlink="http://www.w3.org/1999/xlink" width="px" height="60px" viewBox="0 0 101 60" version="1.1">
<g id="surface1">
<path style=" stroke:none;fill-rule:nonzero;fill:rgb(0%,79.607843%,25.882353%);fill-opacity:1;" d="M 3.742188 14.226562 C 4.09375 13.363281 4.738281 13.097656 5.617188 13.132812 C 6.960938 13.179688 8.304688 13.140625 9.648438 13.144531 C 10.714844 13.148438 11.191406 13.632812 11.191406 14.730469 C 11.195312 22.574219 11.191406 30.414062 11.191406 38.253906 C 11.191406 38.875 11.496094 39.183594 12.109375 39.183594 C 16.039062 39.183594 19.96875 39.183594 23.902344 39.183594 C 25.269531 39.183594 25.660156 39.585938 25.664062 40.992188 C 25.664062 42.441406 25.671875 43.894531 25.660156 45.347656 C 25.652344 46.40625 25.222656 46.855469 24.1875 46.859375 C 17.890625 46.863281 11.59375 46.851562 5.296875 46.875 C 4.515625 46.878906 4.082031 46.476562 3.742188 45.847656 Z M 3.742188 14.226562 "/>
<path style=" stroke:none;fill-rule:nonzero;fill:rgb(0%,79.607843%,25.882353%);fill-opacity:1;" d="M 49.5625 27.261719 C 49.5625 27.503906 49.5625 27.746094 49.5625 27.992188 C 49.5625 33.675781 49.5625 39.359375 49.5625 45.042969 C 49.5625 46.441406 49.160156 46.859375 47.808594 46.863281 C 46.40625 46.863281 45 46.871094 43.597656 46.859375 C 42.574219 46.847656 42.144531 46.394531 42.144531 45.328125 C 42.140625 35.121094 42.140625 24.914062 42.144531 14.703125 C 42.144531 13.644531 42.628906 13.148438 43.652344 13.148438 C 44.957031 13.140625 46.261719 13.191406 47.5625 13.128906 C 48.503906 13.082031 49.121094 13.425781 49.683594 14.214844 C 53.976562 20.265625 58.308594 26.292969 62.628906 32.324219 C 62.753906 32.503906 62.890625 32.667969 63.019531 32.84375 L 63.183594 32.800781 C 63.183594 32.542969 63.183594 32.289062 63.183594 32.03125 C 63.183594 26.347656 63.183594 20.660156 63.183594 14.976562 C 63.183594 13.527344 63.5625 13.148438 64.976562 13.144531 C 66.261719 13.144531 67.546875 13.144531 68.828125 13.144531 C 70.164062 13.144531 70.601562 13.59375 70.605469 14.960938 C 70.605469 21.4375 70.605469 27.910156 70.605469 34.382812 C 70.605469 37.949219 70.605469 41.519531 70.605469 45.085938 C 70.605469 46.445312 70.199219 46.859375 68.871094 46.863281 C 67.527344 46.863281 66.183594 46.835938 64.839844 46.871094 C 64.109375 46.890625 63.609375 46.625 63.167969 46.007812 C 58.867188 39.960938 54.539062 33.933594 50.21875 27.898438 C 50.054688 27.671875 49.886719 27.445312 49.71875 27.214844 C 49.667969 27.230469 49.617188 27.25 49.5625 27.265625 Z M 49.5625 27.261719 "/>
<path style=" stroke:none;fill-rule:nonzero;fill:rgb(0%,79.607843%,25.882353%);fill-opacity:1;" d="M 75.386719 30.039062 C 75.386719 24.980469 75.386719 19.917969 75.386719 14.855469 C 75.386719 13.601562 75.835938 13.144531 77.0625 13.144531 C 83.242188 13.144531 89.417969 13.144531 95.597656 13.144531 C 96.828125 13.144531 97.253906 13.582031 97.253906 14.859375 C 97.253906 16.355469 97.257812 17.847656 97.253906 19.339844 C 97.246094 20.355469 96.800781 20.8125 95.808594 20.8125 C 91.738281 20.820312 87.664062 20.816406 83.59375 20.816406 C 83.0625 20.816406 82.796875 21.085938 82.796875 21.628906 C 82.796875 22.894531 82.832031 24.160156 82.78125 25.421875 C 82.753906 26.082031 82.984375 26.214844 83.570312 26.210938 C 87.582031 26.1875 91.59375 26.195312 95.601562 26.195312 C 96.875 26.195312 97.253906 26.585938 97.253906 27.894531 C 97.253906 29.367188 97.257812 30.839844 97.253906 32.3125 C 97.25 33.378906 96.78125 33.863281 95.742188 33.863281 C 91.652344 33.863281 87.558594 33.871094 83.46875 33.851562 C 82.953125 33.851562 82.765625 33.972656 82.785156 34.539062 C 82.824219 35.824219 82.828125 37.109375 82.785156 38.394531 C 82.765625 39.007812 82.910156 39.207031 83.539062 39.203125 C 87.511719 39.171875 91.484375 39.183594 95.453125 39.1875 C 95.695312 39.1875 95.9375 39.1875 96.171875 39.230469 C 96.855469 39.355469 97.242188 39.796875 97.25 40.507812 C 97.261719 42.1875 97.261719 43.871094 97.25 45.550781 C 97.242188 46.339844 96.785156 46.808594 96.007812 46.851562 C 95.609375 46.875 95.207031 46.863281 94.808594 46.863281 C 88.929688 46.863281 83.054688 46.863281 77.175781 46.863281 C 75.746094 46.863281 75.386719 46.492188 75.386719 45.039062 C 75.386719 40.039062 75.386719 35.039062 75.386719 30.039062 Z M 75.386719 30.039062 "/>
<path style=" stroke:none;fill-rule:nonzero;fill:rgb(0%,79.607843%,25.882353%);fill-opacity:1;" d="M 37.3125 30.019531 C 37.3125 35.058594 37.3125 40.101562 37.3125 45.144531 C 37.3125 46.457031 36.929688 46.859375 35.671875 46.859375 C 34.25 46.863281 32.824219 46.867188 31.402344 46.859375 C 30.371094 46.847656 29.898438 46.347656 29.898438 45.289062 C 29.894531 35.101562 29.894531 24.914062 29.898438 14.726562 C 29.898438 13.6875 30.417969 13.152344 31.410156 13.144531 C 32.875 13.140625 34.339844 13.140625 35.804688 13.144531 C 36.824219 13.148438 37.308594 13.648438 37.308594 14.707031 C 37.3125 19.808594 37.3125 24.914062 37.3125 30.019531 Z M 37.3125 30.019531 "/>
</g>
</svg>
