<?xml version="1.0" encoding="UTF-8"?>
<svg xmlns="http://www.w3.org/2000/svg" xmlns:xlink="http://www.w3.org/1999/xlink" width="px" height="60px" viewBox="0 0 116 60" version="1.1">
<g id="surface1">
<path style=" stroke:none;fill-rule:nonzero;fill:rgb(0%,72.156863%,100%);fill-opacity:1;" d="M 34.378906 36.496094 C 31.003906 36.496094 28.261719 33.582031 28.261719 29.996094 C 28.261719 26.410156 31.003906 23.496094 34.378906 23.496094 C 37.753906 23.496094 40.496094 26.410156 40.496094 29.996094 C 40.496094 33.582031 37.753906 36.496094 34.378906 36.496094 Z M 34.378906 18.75 C 28.535156 18.75 23.792969 23.789062 23.792969 29.996094 C 23.792969 36.203125 28.535156 41.242188 34.378906 41.242188 C 40.222656 41.242188 44.964844 36.203125 44.964844 29.996094 C 44.964844 23.789062 40.230469 18.75 34.378906 18.75 Z M 34.378906 18.75 "/>
<path style=" stroke:none;fill-rule:nonzero;fill:rgb(0%,72.156863%,100%);fill-opacity:1;" d="M 8.882812 25.035156 C 8.882812 22.433594 15.320312 22.398438 16.703125 25.746094 L 20.320312 23.53125 C 19.328125 21 15.71875 18.75 12.152344 18.75 C 7.925781 18.75 4.332031 21.097656 4.332031 25.1875 C 4.332031 29.855469 9.402344 31.066406 11.511719 31.617188 C 13.617188 32.15625 16.425781 32.632812 16.425781 34.484375 C 16.425781 36.203125 14.601562 36.839844 12.585938 36.839844 C 10.035156 36.839844 8.058594 35.929688 7.191406 33.828125 L 3.742188 35.945312 C 4.808594 39.214844 8.308594 41.242188 12.484375 41.242188 C 17.925781 41.242188 20.960938 38.574219 20.960938 34.289062 C 20.960938 30.898438 18.179688 28.730469 14.785156 27.863281 C 11.769531 27.082031 8.875 26.628906 8.875 25.035156 "/>
<path style=" stroke:none;fill-rule:nonzero;fill:rgb(0%,72.156863%,100%);fill-opacity:1;" d="M 64.210938 32.445312 C 63.320312 34.875 61.335938 36.503906 58.746094 36.503906 C 55.359375 36.503906 52.726562 33.589844 52.726562 29.996094 C 52.726562 26.398438 55.359375 23.484375 58.746094 23.484375 C 61.21875 23.484375 63.253906 24.945312 64.222656 27.195312 L 68.203125 24.761719 C 66.511719 21.164062 62.820312 18.757812 58.746094 18.757812 C 52.894531 18.757812 48.160156 23.796875 48.160156 30.003906 C 48.160156 36.210938 52.902344 41.25 58.746094 41.25 C 62.9375 41.25 66.511719 38.652344 68.214844 34.898438 L 64.222656 32.457031 Z M 64.210938 32.445312 "/>
<path style=" stroke:none;fill-rule:nonzero;fill:rgb(0%,72.156863%,100%);fill-opacity:1;" d="M 82.960938 19.316406 L 77.9375 19.316406 L 69.785156 40.65625 L 74.945312 40.65625 L 80.460938 25.375 L 86.136719 40.65625 L 91.296875 40.65625 Z M 82.960938 19.316406 "/>
<path style=" stroke:none;fill-rule:nonzero;fill:rgb(0%,72.156863%,100%);fill-opacity:1;" d="M 103.898438 29.644531 L 99.03125 29.644531 L 99.03125 23.796875 L 103.898438 23.796875 C 105.707031 23.796875 106.914062 24.96875 106.914062 26.710938 C 106.914062 28.457031 105.699219 29.644531 103.898438 29.644531 Z M 108.023438 32.855469 L 108.40625 32.609375 C 110.382812 31.351562 111.515625 29.207031 111.515625 26.730469 C 111.515625 22.371094 108.492188 19.328125 104.164062 19.328125 L 94.453125 19.328125 L 94.453125 40.667969 L 99.023438 40.667969 L 99.023438 33.832031 L 103.441406 33.832031 L 107.15625 40.667969 L 112.257812 40.667969 L 108.015625 32.855469 Z M 108.023438 32.855469 "/>
</g>
</svg>
