<?xml version="1.0" encoding="UTF-8"?>
<svg xmlns="http://www.w3.org/2000/svg" xmlns:xlink="http://www.w3.org/1999/xlink" width="px" height="60px" viewBox="0 0 176 60" version="1.1">
<g id="surface1">
<path style=" stroke:none;fill-rule:nonzero;fill:rgb(100%,40.784314%,10.588235%);fill-opacity:1;" d="M 58.460938 26.265625 L 65.78125 26.265625 L 58.460938 35.699219 L 58.460938 38.105469 L 71.65625 38.105469 L 71.65625 34.449219 L 64.558594 34.449219 L 71.84375 25.011719 L 71.84375 22.605469 L 58.460938 22.605469 Z M 58.460938 26.265625 "/>
<path style=" stroke:none;fill-rule:nonzero;fill:rgb(100%,40.784314%,10.588235%);fill-opacity:1;" d="M 76.753906 16.203125 C 76.070312 16.203125 75.492188 16.441406 75.042969 16.910156 C 74.59375 17.382812 74.367188 17.953125 74.367188 18.609375 C 74.367188 19.269531 74.59375 19.871094 75.042969 20.328125 C 75.492188 20.785156 76.0625 21.015625 76.753906 21.015625 C 77.449219 21.015625 78.042969 20.785156 78.484375 20.328125 C 78.925781 19.871094 79.140625 19.296875 79.140625 18.609375 C 79.140625 17.925781 78.914062 17.382812 78.484375 16.910156 C 78.042969 16.441406 77.464844 16.203125 76.753906 16.203125 Z M 76.753906 16.203125 "/>
<path style=" stroke:none;fill-rule:nonzero;fill:rgb(100%,40.784314%,10.588235%);fill-opacity:1;" d="M 78.878906 22.605469 L 74.59375 22.605469 L 74.59375 38.105469 L 78.878906 38.105469 Z M 78.878906 22.605469 "/>
<path style=" stroke:none;fill-rule:nonzero;fill:rgb(100%,40.784314%,10.588235%);fill-opacity:1;" d="M 93.398438 23.914062 C 93 23.53125 92.542969 23.199219 92.011719 22.945312 C 91.109375 22.503906 90.082031 22.285156 88.949219 22.285156 C 87.550781 22.285156 86.289062 22.625 85.175781 23.300781 C 84.058594 23.976562 83.183594 24.890625 82.542969 26.042969 C 81.914062 27.195312 81.589844 28.503906 81.589844 29.957031 C 81.589844 31.410156 81.90625 32.730469 82.542969 33.910156 C 83.175781 35.089844 84.058594 36.011719 85.175781 36.6875 C 86.289062 37.363281 87.550781 37.703125 88.949219 37.703125 C 90.089844 37.703125 91.101562 37.476562 91.992188 37.027344 C 92.515625 36.761719 92.964844 36.433594 93.359375 36.058594 L 93.359375 37.410156 C 93.359375 38.542969 92.972656 39.449219 92.199219 40.125 C 91.425781 40.804688 90.390625 41.140625 89.101562 41.140625 C 88.046875 41.140625 87.148438 40.949219 86.40625 40.585938 C 85.667969 40.210938 84.996094 39.667969 84.390625 38.964844 L 81.679688 41.625 C 82.453125 42.695312 83.472656 43.527344 84.722656 44.113281 C 85.976562 44.699219 87.453125 45 89.128906 45 C 90.804688 45 92.242188 44.679688 93.515625 44.050781 C 94.785156 43.417969 95.773438 42.523438 96.496094 41.371094 C 97.214844 40.21875 97.574219 38.875 97.574219 37.355469 L 97.574219 22.605469 L 93.378906 22.605469 L 93.378906 23.914062 Z M 91.800781 33.359375 C 91.234375 33.679688 90.550781 33.84375 89.757812 33.84375 C 89.027344 33.84375 88.363281 33.679688 87.777344 33.351562 C 87.183594 33.019531 86.730469 32.554688 86.40625 31.96875 C 86.082031 31.382812 85.921875 30.71875 85.921875 29.96875 C 85.921875 29.21875 86.09375 28.578125 86.425781 27.992188 C 86.757812 27.40625 87.210938 26.941406 87.777344 26.609375 C 88.34375 26.28125 89.019531 26.117188 89.792969 26.117188 C 90.570312 26.117188 91.21875 26.28125 91.792969 26.609375 C 92.371094 26.941406 92.820312 27.40625 93.136719 27.992188 C 93.449219 28.578125 93.605469 29.253906 93.605469 29.996094 C 93.605469 30.734375 93.449219 31.410156 93.136719 31.996094 C 92.820312 32.582031 92.378906 33.039062 91.8125 33.359375 Z M 91.800781 33.359375 "/>
<path style=" stroke:none;fill-rule:nonzero;fill:rgb(100%,40.784314%,10.588235%);fill-opacity:1;" d="M 113.832031 23.347656 C 112.679688 22.644531 111.382812 22.285156 109.941406 22.285156 C 108.84375 22.285156 107.84375 22.515625 106.925781 22.972656 C 106.394531 23.238281 105.933594 23.574219 105.519531 23.949219 L 105.519531 16.230469 L 101.296875 16.230469 L 101.296875 38.105469 L 105.492188 38.105469 L 105.492188 36.714844 C 105.90625 37.117188 106.375 37.464844 106.917969 37.738281 C 107.816406 38.199219 108.824219 38.425781 109.953125 38.425781 C 111.394531 38.425781 112.679688 38.070312 113.824219 37.363281 C 114.96875 36.660156 115.859375 35.691406 116.515625 34.476562 C 117.175781 33.257812 117.5 31.886719 117.5 30.371094 C 117.5 28.851562 117.175781 27.453125 116.535156 26.226562 C 115.894531 25 114.996094 24.042969 113.84375 23.335938 Z M 112.636719 32.527344 C 112.300781 33.148438 111.84375 33.644531 111.265625 34 C 110.691406 34.367188 110.003906 34.546875 109.230469 34.546875 C 108.457031 34.546875 107.773438 34.367188 107.167969 34 C 106.566406 33.632812 106.105469 33.140625 105.78125 32.527344 C 105.457031 31.90625 105.296875 31.191406 105.296875 30.378906 C 105.296875 29.566406 105.457031 28.816406 105.78125 28.191406 C 106.105469 27.570312 106.566406 27.078125 107.152344 26.710938 C 107.746094 26.347656 108.421875 26.164062 109.195312 26.164062 C 109.96875 26.164062 110.652344 26.347656 111.238281 26.710938 C 111.832031 27.078125 112.292969 27.570312 112.625 28.203125 C 112.960938 28.832031 113.132812 29.546875 113.132812 30.332031 C 113.132812 31.164062 112.960938 31.898438 112.625 32.519531 Z M 112.636719 32.527344 "/>
<path style=" stroke:none;fill-rule:nonzero;fill:rgb(100%,40.784314%,10.588235%);fill-opacity:1;" d="M 131.234375 24.085938 C 130.800781 23.640625 130.296875 23.265625 129.722656 22.960938 C 128.839844 22.515625 127.847656 22.285156 126.757812 22.285156 C 125.316406 22.285156 124.03125 22.640625 122.902344 23.347656 C 121.777344 24.050781 120.886719 25.019531 120.238281 26.234375 C 119.589844 27.453125 119.273438 28.832031 119.273438 30.378906 C 119.273438 31.925781 119.597656 33.269531 120.238281 34.484375 C 120.886719 35.699219 121.769531 36.671875 122.902344 37.375 C 124.03125 38.078125 125.308594 38.433594 126.722656 38.433594 C 127.839844 38.433594 128.847656 38.207031 129.738281 37.757812 C 130.316406 37.464844 130.8125 37.089844 131.242188 36.652344 L 131.242188 38.113281 L 135.503906 38.113281 L 135.503906 22.605469 L 131.242188 22.605469 L 131.242188 24.078125 Z M 127.523438 34.546875 C 126.765625 34.546875 126.09375 34.367188 125.488281 34 C 124.886719 33.632812 124.417969 33.140625 124.082031 32.527344 C 123.75 31.90625 123.578125 31.183594 123.578125 30.34375 C 123.578125 29.5 123.742188 28.816406 124.082031 28.191406 C 124.417969 27.570312 124.875 27.078125 125.46875 26.710938 C 126.066406 26.347656 126.75 26.164062 127.515625 26.164062 C 128.28125 26.164062 129 26.335938 129.578125 26.695312 C 130.152344 27.050781 130.621094 27.542969 130.964844 28.183594 C 131.304688 28.824219 131.476562 29.554688 131.476562 30.371094 C 131.476562 31.566406 131.109375 32.5625 130.378906 33.351562 C 129.648438 34.144531 128.6875 34.539062 127.503906 34.539062 Z M 127.523438 34.546875 "/>
<path style=" stroke:none;fill-rule:nonzero;fill:rgb(100%,40.784314%,10.588235%);fill-opacity:1;" d="M 150.996094 23.136719 C 150.101562 22.570312 149.078125 22.285156 147.914062 22.285156 C 146.753906 22.285156 145.671875 22.542969 144.734375 23.054688 C 144.230469 23.335938 143.78125 23.675781 143.394531 24.070312 L 143.394531 22.605469 L 139.167969 22.605469 L 139.167969 38.105469 L 143.394531 38.105469 L 143.394531 29.21875 C 143.394531 28.613281 143.527344 28.074219 143.800781 27.597656 C 144.070312 27.113281 144.4375 26.75 144.914062 26.492188 C 145.382812 26.234375 145.925781 26.109375 146.527344 26.109375 C 147.429688 26.109375 148.175781 26.402344 148.753906 26.976562 C 149.335938 27.554688 149.625 28.304688 149.625 29.226562 L 149.625 38.113281 L 153.886719 38.113281 L 153.886719 28.257812 C 153.886719 27.234375 153.625 26.265625 153.109375 25.347656 C 152.597656 24.445312 151.886719 23.703125 150.996094 23.136719 Z M 150.996094 23.136719 "/>
<path style=" stroke:none;fill-rule:nonzero;fill:rgb(100%,40.784314%,10.588235%);fill-opacity:1;" d="M 168.070312 22.605469 L 168.070312 23.914062 C 167.675781 23.53125 167.214844 23.199219 166.683594 22.945312 C 165.785156 22.503906 164.757812 22.285156 163.621094 22.285156 C 162.226562 22.285156 160.964844 22.625 159.847656 23.300781 C 158.730469 23.976562 157.859375 24.890625 157.21875 26.042969 C 156.589844 27.195312 156.265625 28.503906 156.265625 29.957031 C 156.265625 31.410156 156.578125 32.730469 157.21875 33.910156 C 157.847656 35.089844 158.730469 36.011719 159.847656 36.6875 C 160.964844 37.363281 162.226562 37.703125 163.621094 37.703125 C 164.765625 37.703125 165.773438 37.476562 166.667969 37.027344 C 167.1875 36.761719 167.640625 36.433594 168.035156 36.058594 L 168.035156 37.410156 C 168.035156 38.542969 167.648438 39.449219 166.875 40.125 C 166.097656 40.804688 165.0625 41.140625 163.777344 41.140625 C 162.722656 41.140625 161.820312 40.949219 161.082031 40.585938 C 160.34375 40.210938 159.667969 39.667969 159.066406 38.964844 L 156.355469 41.625 C 157.128906 42.695312 158.148438 43.527344 159.398438 44.113281 C 160.652344 44.699219 162.128906 45 163.800781 45 C 165.476562 45 166.917969 44.679688 168.1875 44.050781 C 169.457031 43.417969 170.449219 42.523438 171.167969 41.371094 C 171.890625 40.21875 172.25 38.875 172.25 37.355469 L 172.25 22.605469 L 168.054688 22.605469 Z M 166.476562 33.359375 C 165.910156 33.679688 165.226562 33.84375 164.433594 33.84375 C 163.703125 33.84375 163.035156 33.679688 162.453125 33.351562 C 161.855469 33.019531 161.40625 32.554688 161.082031 31.96875 C 160.757812 31.382812 160.597656 30.71875 160.597656 29.96875 C 160.597656 29.21875 160.765625 28.578125 161.101562 27.992188 C 161.433594 27.40625 161.882812 26.941406 162.453125 26.609375 C 163.019531 26.28125 163.695312 26.117188 164.46875 26.117188 C 165.242188 26.117188 165.890625 26.28125 166.46875 26.609375 C 167.042969 26.941406 167.496094 27.40625 167.808594 27.992188 C 168.125 28.578125 168.277344 29.253906 168.277344 29.996094 C 168.277344 30.734375 168.125 31.410156 167.808594 31.996094 C 167.496094 32.582031 167.054688 33.039062 166.484375 33.359375 Z M 166.476562 33.359375 "/>
<path style=" stroke:none;fill-rule:nonzero;fill:rgb(100%,40.784314%,10.588235%);fill-opacity:1;" d="M 38.492188 29.453125 L 38.492188 23.152344 C 38.492188 22.597656 38.242188 22.066406 37.808594 21.71875 L 25.261719 11.640625 C 24.605469 11.121094 23.6875 11.121094 23.027344 11.640625 L 17.460938 16.113281 C 11.175781 14.019531 6.078125 14.128906 4.347656 16.878906 C 2.546875 19.753906 4.863281 24.773438 9.796875 29.882812 L 9.796875 38.808594 C 9.796875 39.816406 10.609375 40.636719 11.597656 40.636719 L 24.667969 40.636719 C 33.613281 45.128906 41.671875 46.070312 43.941406 42.457031 C 45.742188 39.585938 43.429688 34.566406 38.492188 29.453125 Z M 37.753906 38.277344 C 37.753906 39.238281 36.988281 40.015625 36.042969 40.015625 L 24.847656 40.015625 C 24.714844 40.015625 24.578125 39.988281 24.460938 39.925781 C 22.820312 39.09375 21.144531 38.140625 19.480469 37.0625 C 16.09375 34.878906 13.140625 32.464844 10.789062 30.078125 C 10.625 29.910156 10.535156 29.691406 10.535156 29.464844 L 10.535156 23.4375 C 10.535156 22.90625 10.78125 22.402344 11.183594 22.074219 L 17.4375 17.054688 C 17.660156 16.871094 17.96875 16.816406 18.238281 16.90625 C 21.550781 18.050781 25.179688 19.824219 28.8125 22.167969 C 32.199219 24.351562 35.152344 26.765625 37.503906 29.152344 C 37.664062 29.316406 37.753906 29.535156 37.753906 29.765625 Z M 37.753906 38.277344 "/>
</g>
</svg>
