<?xml version="1.0" encoding="UTF-8"?>
<svg xmlns="http://www.w3.org/2000/svg" xmlns:xlink="http://www.w3.org/1999/xlink" width="px" height="60px" viewBox="0 0 91 60" version="1.1">
<g id="surface1">
<path style=" stroke:none;fill-rule:nonzero;fill:rgb(0%,0%,0%);fill-opacity:1;" d="M 23.234375 40.96875 L 16.753906 33.007812 L 26.160156 21.425781 L 21.027344 21.425781 C 18.726562 21.425781 17.148438 22.132812 15.75 23.765625 L 10.792969 29.859375 L 10.792969 13.125 L 5.828125 13.125 C 4.664062 13.125 3.714844 14.070312 3.714844 15.246094 L 3.714844 46.480469 L 8.679688 46.480469 C 9.855469 46.480469 10.792969 45.53125 10.792969 44.363281 L 10.792969 36.050781 L 14.824219 40.988281 L 18.242188 45.203125 C 18.933594 46.074219 19.84375 46.476562 20.773438 46.476562 L 27.714844 46.476562 L 23.234375 40.960938 Z M 23.234375 40.96875 "/>
<path style=" stroke:none;fill-rule:nonzero;fill:rgb(0%,0%,0%);fill-opacity:1;" d="M 35.976562 46.480469 C 32.152344 46.480469 29.503906 43.839844 29.503906 40.007812 L 29.503906 15.242188 C 29.503906 14.070312 30.453125 13.125 31.625 13.125 L 36.597656 13.125 L 36.597656 38.679688 C 36.597656 39.726562 37.453125 40.585938 38.496094 40.585938 L 43.5625 40.585938 L 43.5625 44.363281 C 43.5625 45.53125 42.613281 46.480469 41.4375 46.480469 Z M 35.976562 46.480469 "/>
<path style=" stroke:none;fill-rule:nonzero;fill:rgb(92.941176%,10.588235%,13.72549%);fill-opacity:1;" d="M 11.476562 29.007812 L 11.484375 28.996094 C 11.484375 28.996094 11.476562 29.007812 11.472656 29.007812 Z M 44.582031 19.589844 L 44.148438 20.046875 C 44.125 20.054688 42.800781 21.417969 38.96875 21.417969 L 20.898438 21.417969 C 18.046875 21.417969 16.699219 22.582031 15.675781 23.835938 L 15.109375 24.53125 C 15.109375 24.53125 15.078125 24.5625 15.066406 24.578125 L 11.480469 28.992188 C 12.785156 28.011719 14.574219 27.417969 16.398438 27.417969 L 38.96875 27.417969 C 41.710938 27.417969 44.339844 26.609375 44.558594 24.558594 C 44.585938 24.394531 44.582031 24.292969 44.582031 24.292969 L 44.582031 19.585938 Z M 44.582031 19.589844 "/>
<path style=" stroke:none;fill-rule:nonzero;fill:rgb(92.941176%,10.588235%,13.72549%);fill-opacity:1;" d="M 53.320312 37.109375 C 53.320312 28.28125 58.210938 26.464844 62.664062 26.464844 C 63.667969 26.464844 64.59375 26.574219 65.445312 26.796875 L 65.445312 22.789062 C 65.445312 19.417969 65.628906 18.335938 66.925781 18.335938 L 70.375 18.335938 C 70.003906 19.226562 69.816406 20.601562 69.816406 22.566406 L 69.816406 45.378906 C 69.816406 46.117188 69.449219 46.453125 68.703125 46.453125 L 65.445312 46.453125 L 65.445312 45.378906 C 64.105469 46.269531 62.589844 46.859375 60.734375 46.859375 C 55.875 46.859375 53.320312 43.484375 53.320312 37.105469 Z M 65.445312 41.339844 L 65.445312 30.730469 C 64.664062 30.503906 64.070312 30.394531 62.996094 30.394531 C 60.65625 30.394531 57.765625 31.0625 57.765625 37.183594 C 57.765625 40.859375 59.179688 42.933594 61.773438 42.933594 C 62.847656 42.933594 64.59375 42.339844 65.445312 41.339844 Z M 65.445312 41.339844 "/>
<path style=" stroke:none;fill-rule:nonzero;fill:rgb(92.941176%,10.588235%,13.72549%);fill-opacity:1;" d="M 75.125 45.867188 C 74.753906 45.601562 74.34375 45.160156 74.34375 44.601562 L 74.386719 41.820312 C 75.941406 42.601562 77.949219 43.007812 79.875 43.007812 C 82.023438 43.007812 82.839844 42.117188 82.839844 41.007812 C 82.839844 39.898438 82.390625 39.191406 80.941406 38.671875 L 79.050781 38.007812 C 76.3125 37.039062 74.457031 35.484375 74.457031 32.257812 C 74.457031 28.214844 77.304688 26.769531 81.71875 26.769531 C 83.464844 26.769531 85.132812 26.691406 85.949219 26.359375 L 85.949219 29.625 C 85.949219 30.40625 84.167969 30.625 81.90625 30.625 C 79.902344 30.625 78.902344 31.070312 78.902344 32.332031 C 78.902344 33.148438 79.234375 33.777344 80.535156 34.222656 L 82.390625 34.855469 C 85.136719 35.78125 87.285156 37.453125 87.285156 40.828125 C 87.285156 44.652344 85.097656 46.875 79.648438 46.875 C 78.167969 46.875 76.09375 46.46875 75.125 45.875 Z M 75.125 45.867188 "/>
</g>
</svg>
