<?xml version="1.0" encoding="UTF-8"?>
<svg xmlns="http://www.w3.org/2000/svg" xmlns:xlink="http://www.w3.org/1999/xlink" width="px" height="60px" viewBox="0 0 176 60" version="1.1">
<g id="surface1">
<path style=" stroke:none;fill-rule:nonzero;fill:rgb(0%,18.431373%,42.352941%);fill-opacity:1;" d="M 68.78125 21.933594 L 68.78125 28.03125 L 61.621094 28.03125 L 61.621094 21.933594 L 57.675781 21.933594 L 57.675781 37.949219 L 61.621094 37.949219 L 61.621094 31.507812 L 68.78125 31.507812 L 68.78125 37.949219 L 72.734375 37.949219 L 72.734375 21.933594 Z M 68.78125 21.933594 "/>
<path style=" stroke:none;fill-rule:nonzero;fill:rgb(0%,18.431373%,42.352941%);fill-opacity:1;" d="M 87.203125 21.933594 L 83.074219 28.273438 L 78.945312 21.933594 L 74.28125 21.933594 L 81.105469 32.40625 L 81.105469 37.949219 L 85.050781 37.949219 L 85.050781 32.40625 L 91.859375 21.933594 Z M 87.203125 21.933594 "/>
<path style=" stroke:none;fill-rule:nonzero;fill:rgb(0%,18.431373%,42.352941%);fill-opacity:1;" d="M 104.558594 21.933594 L 104.558594 33.679688 C 104.558594 34.121094 104.207031 34.476562 103.726562 34.476562 L 97.398438 34.476562 L 97.398438 21.933594 L 93.453125 21.933594 L 93.453125 37.957031 L 105.117188 37.957031 C 106.152344 37.957031 106.988281 37.660156 107.601562 37.082031 C 108.207031 36.5 108.511719 35.691406 108.511719 34.691406 L 108.511719 21.933594 Z M 104.558594 21.933594 "/>
<path style=" stroke:none;fill-rule:nonzero;fill:rgb(0%,18.431373%,42.352941%);fill-opacity:1;" d="M 123.832031 21.933594 L 112.160156 21.933594 L 112.160156 37.957031 L 116.101562 37.957031 L 116.101562 25.394531 L 122.4375 25.394531 C 122.949219 25.394531 123.273438 25.78125 123.273438 26.195312 L 123.273438 37.949219 L 127.210938 37.949219 L 127.210938 25.210938 C 127.210938 24.203125 126.910156 23.398438 126.304688 22.8125 C 125.691406 22.226562 124.867188 21.933594 123.832031 21.933594 Z M 123.832031 21.933594 "/>
<path style=" stroke:none;fill-rule:nonzero;fill:rgb(0%,18.431373%,42.352941%);fill-opacity:1;" d="M 142.542969 21.933594 L 130.871094 21.933594 L 130.871094 37.957031 L 142.542969 37.957031 C 143.585938 37.957031 144.414062 37.660156 145.023438 37.082031 C 145.628906 36.5 145.9375 35.691406 145.9375 34.691406 L 145.9375 25.226562 C 145.9375 24.21875 145.628906 23.414062 145.023438 22.828125 C 144.414062 22.242188 143.585938 21.945312 142.550781 21.945312 Z M 141.992188 26.234375 L 141.992188 33.65625 C 141.992188 34.09375 141.664062 34.484375 141.148438 34.484375 L 134.824219 34.484375 L 134.824219 25.402344 L 141.125 25.402344 C 141.640625 25.402344 141.992188 25.757812 141.992188 26.234375 Z M 141.992188 26.234375 "/>
<path style=" stroke:none;fill-rule:nonzero;fill:rgb(0%,18.431373%,42.352941%);fill-opacity:1;" d="M 152.800781 21.933594 C 151.765625 21.933594 150.929688 22.226562 150.324219 22.8125 C 149.714844 23.398438 149.414062 24.203125 149.414062 25.210938 L 149.414062 37.949219 L 153.34375 37.949219 L 153.34375 32.996094 L 160.511719 32.996094 L 160.511719 37.949219 L 164.457031 37.949219 L 164.457031 21.933594 L 152.792969 21.933594 Z M 160.519531 25.402344 L 160.519531 29.535156 L 153.351562 29.535156 L 153.351562 26.21875 C 153.351562 25.824219 153.671875 25.402344 154.195312 25.402344 Z M 160.519531 25.402344 "/>
<path style=" stroke:none;fill-rule:nonzero;fill:rgb(0%,18.431373%,42.352941%);fill-opacity:1;" d="M 172.253906 21.933594 L 168.308594 21.933594 L 168.308594 37.957031 L 172.253906 37.957031 Z M 172.253906 21.933594 "/>
<path style=" stroke:none;fill-rule:nonzero;fill:rgb(0%,18.431373%,42.352941%);fill-opacity:1;" d="M 26.515625 41.25 C 39.09375 41.25 49.289062 36.21875 49.289062 30 C 49.289062 23.78125 39.09375 18.75 26.515625 18.75 C 13.941406 18.75 3.746094 23.789062 3.746094 30 C 3.746094 36.210938 13.941406 41.25 26.515625 41.25 Z M 30.796875 35.734375 C 30.429688 36.578125 29.765625 38.394531 28.269531 39.117188 C 27.820312 39.332031 27.25 39.4375 26.746094 39.453125 C 26.640625 39.457031 26.554688 39.453125 26.523438 39.453125 C 22.402344 39.453125 18.558594 38.910156 15.316406 37.984375 C 15.082031 37.917969 14.550781 37.792969 14.550781 37.484375 C 14.550781 37.34375 14.628906 37.230469 14.742188 37.128906 C 14.789062 37.082031 14.859375 37.03125 14.949219 36.957031 C 15.703125 36.34375 17.992188 34.75 22.273438 33.175781 C 23.773438 32.621094 25.660156 31.925781 27.628906 31.523438 C 28.792969 31.289062 33.074219 30.660156 30.804688 35.734375 M 42.3125 24.398438 C 42.386719 24.257812 42.503906 24.136719 42.695312 24.128906 C 42.800781 24.117188 42.9375 24.144531 43.160156 24.277344 C 45.839844 25.871094 47.425781 27.847656 47.425781 30 C 47.425781 33.886719 42.265625 37.214844 34.867188 38.675781 C 34.390625 38.761719 34.078125 38.761719 33.96875 38.644531 C 33.902344 38.570312 33.878906 38.445312 33.96875 38.296875 C 34.015625 38.207031 34.070312 38.140625 34.167969 38.039062 C 38.199219 33.457031 41.261719 26.707031 42.125 24.746094 C 42.1875 24.621094 42.257812 24.484375 42.3125 24.40625 M 22.304688 24.257812 C 22.679688 23.414062 23.335938 21.597656 24.839844 20.875 C 25.289062 20.660156 25.859375 20.5625 26.355469 20.542969 L 26.585938 20.542969 C 30.714844 20.542969 34.558594 21.082031 37.800781 22.019531 C 38.035156 22.089844 38.550781 22.183594 38.550781 22.503906 C 38.550781 22.652344 38.464844 22.761719 38.359375 22.859375 C 38.3125 22.910156 38.242188 22.960938 38.152344 23.035156 C 37.402344 23.648438 35.117188 25.242188 30.835938 26.816406 C 29.328125 27.386719 27.445312 28.066406 25.484375 28.476562 C 24.316406 28.710938 20.035156 29.339844 22.304688 24.265625 M 18.183594 21.347656 C 18.65625 21.25 19.027344 21.25 19.132812 21.378906 C 19.203125 21.445312 19.226562 21.570312 19.132812 21.726562 C 19.078125 21.808594 19.027344 21.875 18.933594 21.992188 C 14.90625 26.574219 11.839844 33.324219 10.976562 35.277344 C 10.90625 35.417969 10.84375 35.550781 10.792969 35.640625 C 10.699219 35.78125 10.601562 35.882812 10.402344 35.898438 C 10.300781 35.898438 10.15625 35.875 9.933594 35.75 C 7.269531 34.167969 5.613281 32.183594 5.613281 30.035156 C 5.613281 26.160156 10.792969 22.820312 18.175781 21.363281 "/>
</g>
</svg>
