<?xml version="1.0" encoding="UTF-8"?>
<svg xmlns="http://www.w3.org/2000/svg" xmlns:xlink="http://www.w3.org/1999/xlink" width="px" height="60px" viewBox="0 0 138 60" version="1.1">
<g id="surface1">
<path style=" stroke:none;fill-rule:nonzero;fill:rgb(36.862745%,16.862745%,15.686275%);fill-opacity:1;" d="M 24.597656 32.5 C 24.597656 33.375 25.167969 36.417969 28.671875 36.433594 C 32.179688 36.417969 32.75 33.375 32.75 32.5 L 32.75 26.351562 C 32.75 25.484375 32.179688 22.433594 28.671875 22.417969 C 25.175781 22.433594 24.597656 25.484375 24.597656 26.351562 Z M 20.484375 26.535156 C 20.484375 26.152344 20.527344 24.25 21.539062 22.449219 C 22.5 20.742188 24.515625 18.792969 28.648438 18.777344 L 28.6875 18.777344 C 32.824219 18.792969 34.828125 20.734375 35.792969 22.449219 C 36.804688 24.25 36.851562 26.160156 36.851562 26.535156 L 36.851562 32.339844 C 36.851562 32.726562 36.8125 34.625 35.792969 36.425781 C 34.828125 38.140625 32.824219 40.082031 28.6875 40.101562 L 28.648438 40.101562 C 24.515625 40.082031 22.507812 38.140625 21.539062 36.425781 C 20.527344 34.625 20.484375 32.726562 20.484375 32.339844 Z M 20.484375 26.535156 "/>
<path style=" stroke:none;fill-rule:nonzero;fill:rgb(36.862745%,16.862745%,15.686275%);fill-opacity:1;" d="M 19.253906 35.925781 L 19.09375 35.667969 L 19.085938 35.667969 L 15.984375 34.074219 L 15.855469 34.035156 L 15.609375 34.191406 L 15.59375 34.21875 C 15.105469 35.308594 14.0625 36.433594 11.925781 36.441406 C 8.425781 36.425781 7.847656 33.382812 7.847656 32.507812 L 7.847656 26.359375 C 7.847656 25.484375 8.425781 22.441406 11.925781 22.425781 C 14.085938 22.433594 15.128906 23.601562 15.617188 24.691406 L 15.886719 24.882812 L 16.019531 24.851562 L 19.109375 23.210938 L 19.253906 22.953125 L 19.238281 22.835938 L 19.058594 22.476562 C 18.082031 20.734375 16.066406 18.792969 11.933594 18.785156 L 11.882812 18.785156 C 7.757812 18.792969 5.742188 20.734375 4.78125 22.460938 C 3.769531 24.257812 3.730469 26.160156 3.730469 26.542969 L 3.730469 32.351562 C 3.730469 32.734375 3.769531 34.632812 4.78125 36.433594 C 5.742188 38.152344 7.757812 40.09375 11.882812 40.109375 L 11.933594 40.109375 C 16.066406 40.09375 18.074219 38.152344 19.035156 36.433594 C 19.109375 36.308594 19.164062 36.183594 19.222656 36.058594 Z M 19.253906 35.925781 "/>
<path style=" stroke:none;fill-rule:nonzero;fill:rgb(36.862745%,16.862745%,15.686275%);fill-opacity:1;" d="M 55.941406 39.410156 L 55.941406 19.460938 C 55.941406 19.292969 55.8125 19.160156 55.65625 19.160156 L 52.117188 19.160156 C 51.953125 19.160156 51.832031 19.292969 51.832031 19.453125 L 51.832031 26.535156 L 51.816406 26.535156 L 51.816406 32.527344 C 51.816406 33.402344 51.242188 36.441406 47.746094 36.460938 C 44.238281 36.449219 43.667969 33.402344 43.667969 32.527344 L 43.667969 19.484375 C 43.667969 19.320312 43.539062 19.183594 43.375 19.183594 L 39.835938 19.183594 C 39.679688 19.183594 39.550781 19.308594 39.550781 19.476562 L 39.550781 32.34375 C 39.550781 32.726562 39.59375 34.632812 40.503906 36.433594 C 41.371094 38.152344 43.1875 40.09375 46.90625 40.109375 L 46.945312 40.109375 C 49.402344 40.109375 51.023438 39.074219 52.09375 38 L 52.09375 39.425781 C 52.09375 39.585938 52.222656 39.710938 52.378906 39.710938 L 55.648438 39.710938 C 55.800781 39.710938 55.933594 39.574219 55.933594 39.417969 "/>
<path style=" stroke:none;fill-rule:nonzero;fill:rgb(97.254902%,58.039216%,0%);fill-opacity:1;" d="M 89.570312 32.859375 C 89.570312 33.675781 89.015625 36.542969 85.605469 36.550781 C 82.1875 36.550781 81.632812 33.675781 81.632812 32.859375 L 81.632812 32.527344 C 81.632812 31.699219 82.1875 28.84375 85.605469 28.824219 C 89.015625 28.84375 89.570312 31.699219 89.570312 32.527344 Z M 93.375 26.34375 C 93.375 24.699219 92.578125 20.875 88.941406 19.351562 C 85.246094 17.800781 80.304688 19.675781 79.082031 20.210938 C 78.960938 20.242188 78.871094 20.359375 78.871094 20.492188 L 78.902344 20.625 L 79.898438 23.527344 L 79.90625 23.527344 L 80.167969 23.710938 L 80.273438 23.683594 C 81.625 22.96875 85.296875 21.71875 87.539062 22.757812 C 89.722656 23.777344 89.527344 26.140625 89.542969 26.402344 L 89.542969 26.984375 C 88.484375 26.191406 87.007812 25.441406 84.929688 25.441406 L 84.894531 25.441406 C 81.167969 25.460938 79.367188 27.292969 78.488281 28.910156 C 77.582031 30.617188 77.53125 32.410156 77.53125 32.777344 C 77.53125 33.140625 77.574219 34.933594 78.488281 36.632812 C 79.359375 38.257812 81.167969 40.09375 84.894531 40.109375 L 84.929688 40.109375 C 87.097656 40.109375 88.605469 39.300781 89.675781 38.457031 L 89.675781 39.449219 C 89.675781 39.609375 89.804688 39.734375 89.960938 39.734375 L 93.082031 39.734375 C 93.238281 39.734375 93.359375 39.609375 93.367188 39.449219 L 93.367188 26.351562 "/>
<path style=" stroke:none;fill-rule:nonzero;fill:rgb(52.54902%,72.941176%,9.019608%);fill-opacity:1;" d="M 112.945312 26.527344 C 112.945312 26.144531 112.90625 24.242188 112 22.441406 C 111.128906 20.726562 109.320312 18.785156 105.601562 18.769531 L 105.558594 18.769531 C 103.113281 18.769531 101.5 19.792969 100.429688 20.859375 L 100.429688 19.453125 C 100.429688 19.285156 100.308594 19.160156 100.152344 19.160156 L 96.867188 19.160156 C 96.703125 19.160156 96.582031 19.292969 96.582031 19.460938 L 96.582031 39.449219 C 96.597656 39.601562 96.710938 39.71875 96.867188 39.71875 L 100.398438 39.71875 C 100.542969 39.71875 100.675781 39.59375 100.683594 39.449219 L 100.683594 26.160156 C 100.773438 25.09375 101.492188 22.453125 104.75 22.441406 C 108.257812 22.453125 108.820312 25.5 108.820312 26.375 L 108.820312 39.433594 C 108.820312 39.601562 108.941406 39.726562 109.105469 39.726562 L 112.667969 39.726562 C 112.832031 39.71875 112.945312 39.59375 112.945312 39.433594 Z M 112.945312 26.527344 "/>
<path style=" stroke:none;fill-rule:nonzero;fill:rgb(9.411765%,62.745098%,85.490196%);fill-opacity:1;" d="M 127.894531 26.398438 C 127.894531 27.199219 127.320312 30.109375 123.816406 30.125 C 120.308594 30.117188 119.738281 27.199219 119.738281 26.398438 L 119.738281 26.140625 C 119.738281 25.34375 120.308594 22.425781 123.816406 22.417969 C 127.3125 22.425781 127.894531 25.34375 127.894531 26.140625 Z M 134.261719 19.175781 C 134.261719 19.015625 134.140625 18.890625 133.992188 18.882812 C 131.878906 18.816406 130.519531 19.707031 129.636719 20.683594 C 128.457031 19.632812 126.628906 18.785156 123.847656 18.777344 L 123.800781 18.777344 C 119.664062 18.792969 117.660156 20.640625 116.6875 22.285156 C 115.6875 24 115.636719 25.808594 115.636719 26.183594 L 115.636719 26.382812 C 115.636719 26.75 115.6875 28.566406 116.695312 30.273438 C 117.128906 31.007812 117.773438 31.785156 118.726562 32.417969 C 117.171875 33.332031 115.792969 34.949219 115.792969 37.859375 L 115.792969 39.390625 C 115.792969 39.558594 115.914062 39.683594 116.070312 39.691406 L 127.894531 39.691406 C 129.3125 39.691406 130.03125 40.648438 130.234375 41.550781 C 130.484375 42.699219 130.054688 44.242188 128.160156 45.273438 C 128.046875 45.316406 127.964844 45.425781 127.964844 45.558594 L 128.015625 45.707031 L 129.554688 48.582031 L 129.808594 48.75 L 129.929688 48.714844 C 133.511719 46.859375 134.292969 43.339844 133.722656 40.75 C 133.101562 37.925781 130.761719 36.035156 127.886719 36.035156 L 119.714844 36.234375 C 120.164062 33.707031 123.042969 33.757812 123.390625 33.773438 C 123.53125 33.773438 123.660156 33.773438 123.800781 33.773438 L 123.847656 33.773438 C 127.984375 33.757812 129.988281 31.917969 130.949219 30.273438 C 131.960938 28.558594 132.011719 26.75 132.011719 26.382812 L 132.011719 26.183594 C 132.011719 25.875 131.96875 24.523438 131.359375 23.082031 C 131.898438 22.699219 132.746094 22.351562 133.984375 22.410156 C 134.140625 22.410156 134.269531 22.292969 134.269531 22.132812 L 134.269531 19.175781 Z M 134.261719 19.175781 "/>
<path style=" stroke:none;fill-rule:nonzero;fill:rgb(91.764706%,5.882353%,7.45098%);fill-opacity:1;" d="M 71.320312 32.515625 C 71.320312 33.390625 70.75 36.433594 67.242188 36.441406 C 63.734375 36.441406 63.164062 33.382812 63.164062 32.515625 L 63.164062 26.367188 C 63.164062 25.492188 63.734375 22.449219 67.242188 22.433594 C 70.742188 22.441406 71.320312 25.492188 71.320312 26.367188 Z M 74.492188 22.449219 C 73.617188 20.734375 71.816406 18.792969 68.089844 18.777344 L 68.042969 18.777344 C 65.585938 18.785156 63.964844 19.816406 62.894531 20.882812 L 62.894531 19.449219 C 62.894531 19.285156 62.765625 19.160156 62.609375 19.160156 L 59.339844 19.160156 C 59.1875 19.160156 59.054688 19.285156 59.054688 19.449219 L 59.054688 47.949219 C 59.054688 48.109375 59.179688 48.234375 59.339844 48.234375 L 62.914062 48.234375 C 63.050781 48.207031 63.148438 48.097656 63.15625 47.957031 L 63.15625 38.242188 C 64.234375 39.191406 65.773438 40.089844 68.042969 40.101562 L 68.082031 40.101562 C 71.800781 40.082031 73.609375 38.140625 74.484375 36.425781 C 75.398438 34.625 75.4375 32.726562 75.4375 32.332031 L 75.4375 26.523438 C 75.4375 26.140625 75.398438 24.242188 74.484375 22.441406 "/>
</g>
</svg>
