<?xml version="1.0" encoding="UTF-8"?>
<svg xmlns="http://www.w3.org/2000/svg" xmlns:xlink="http://www.w3.org/1999/xlink" width="px" height="60px" viewBox="0 0 157 60" version="1.1">
<g id="surface1">
<path style=" stroke:none;fill-rule:nonzero;fill:rgb(81.568627%,0%,19.607843%);fill-opacity:1;" d="M 22.660156 11.25 C 22.855469 11.332031 23.042969 11.46875 23.242188 11.488281 C 26.4375 11.765625 29.304688 12.96875 31.894531 14.914062 C 34.871094 17.148438 36.957031 20.113281 38.210938 23.695312 C 39.035156 26.042969 39.296875 28.5 39.199219 31.011719 C 39.035156 35.125 37.664062 38.753906 35.230469 41.921875 C 33.359375 44.355469 30.992188 46.175781 28.210938 47.347656 C 26.464844 48.082031 24.652344 48.445312 22.773438 48.675781 C 21.457031 48.835938 20.175781 48.714844 18.933594 48.527344 C 16.15625 48.109375 13.578125 47.019531 11.273438 45.269531 C 8.351562 43.058594 6.25 40.1875 4.960938 36.679688 C 4.398438 35.144531 4.003906 33.539062 3.921875 31.875 C 3.898438 31.371094 3.722656 30.871094 3.738281 30.371094 C 3.863281 26.144531 4.90625 22.242188 7.378906 18.8125 C 9.671875 15.636719 12.605469 13.433594 16.214844 12.257812 C 17.378906 11.878906 18.613281 11.75 19.816406 11.492188 C 20.015625 11.449219 20.203125 11.332031 20.398438 11.25 C 21.152344 11.25 21.90625 11.25 22.660156 11.25 Z M 34.898438 30.929688 C 34.898438 31.128906 34.921875 31.28125 34.894531 31.421875 C 34.699219 32.453125 34.574219 33.503906 34.273438 34.5 C 33.523438 37.023438 32.136719 39.132812 30.21875 40.835938 C 28.046875 42.757812 25.546875 43.828125 22.703125 44.113281 C 20.902344 44.292969 19.164062 44.117188 17.453125 43.554688 C 14.675781 42.640625 12.441406 40.890625 10.722656 38.449219 C 8.410156 35.15625 7.648438 31.429688 8.3125 27.429688 C 8.773438 24.644531 10.003906 22.222656 11.890625 20.171875 C 13.488281 18.433594 15.394531 17.207031 17.5625 16.53125 C 18.882812 16.117188 20.3125 16.089844 21.691406 15.886719 C 21.894531 15.855469 22.257812 15.816406 22.269531 15.734375 C 22.335938 15.316406 22.371094 14.871094 22.28125 14.464844 C 22.253906 14.328125 21.835938 14.203125 21.601562 14.207031 C 19.394531 14.25 17.265625 14.679688 15.253906 15.667969 C 12.773438 16.886719 10.765625 18.699219 9.1875 21.03125 C 7.878906 22.960938 7.0625 25.121094 6.675781 27.449219 C 6.316406 29.613281 6.5 31.753906 6.980469 33.890625 C 7.523438 36.328125 8.59375 38.488281 10.152344 40.34375 C 13.449219 44.28125 17.605469 46.132812 22.617188 45.785156 C 25.464844 45.585938 28.046875 44.636719 30.324219 42.835938 C 34.425781 39.597656 36.507812 35.289062 36.511719 29.882812 C 36.511719 29.390625 36.355469 29.226562 35.890625 29.226562 C 32.726562 29.242188 29.566406 29.234375 26.40625 29.238281 C 25.753906 29.238281 25.699219 29.316406 25.703125 30.113281 C 25.703125 30.84375 25.742188 30.886719 26.425781 30.886719 C 29.03125 30.886719 31.636719 30.886719 34.238281 30.890625 C 34.449219 30.890625 34.660156 30.914062 34.898438 30.925781 Z M 20.738281 29.992188 C 20.738281 30.878906 20.738281 31.765625 20.738281 32.648438 C 20.738281 34.347656 20.742188 36.046875 20.738281 37.742188 C 20.734375 38.128906 20.796875 38.402344 21.257812 38.398438 C 22.640625 38.382812 24.023438 38.390625 25.40625 38.394531 C 25.761719 38.394531 25.945312 38.230469 25.929688 37.847656 C 25.921875 37.675781 25.914062 37.503906 25.929688 37.335938 C 25.96875 36.863281 25.761719 36.703125 25.324219 36.714844 C 24.554688 36.738281 23.78125 36.6875 23.007812 36.730469 C 22.484375 36.761719 22.347656 36.582031 22.347656 36.039062 C 22.371094 31.492188 22.363281 26.945312 22.359375 22.398438 C 22.359375 21.683594 22.339844 21.671875 21.539062 21.671875 C 20.75 21.671875 20.742188 21.675781 20.738281 22.40625 C 20.738281 24.933594 20.738281 27.460938 20.738281 29.992188 Z M 15.875 26.351562 C 17.140625 26.347656 18.058594 25.367188 18.050781 24.023438 C 18.050781 22.773438 16.996094 21.664062 15.832031 21.679688 C 14.707031 21.695312 13.601562 22.886719 13.617188 24.066406 C 13.632812 25.355469 14.621094 26.355469 15.875 26.351562 Z M 15.875 26.351562 "/>
<path style=" stroke:none;fill-rule:nonzero;fill:rgb(43.921569%,43.529412%,43.529412%);fill-opacity:1;" d="M 153.261719 35.410156 C 153.128906 35.945312 153 36.484375 152.859375 37.023438 C 152.296875 39.226562 150.789062 40.496094 148.898438 41.273438 C 146.617188 42.210938 144.246094 42.210938 141.851562 41.761719 C 140.257812 41.460938 138.726562 41.003906 137.261719 40.277344 C 136.824219 40.0625 136.652344 39.890625 136.910156 39.359375 C 137.390625 38.363281 137.789062 37.324219 138.234375 36.273438 C 138.914062 36.589844 139.53125 36.890625 140.15625 37.167969 C 141.933594 37.949219 143.792969 38.226562 145.695312 38.015625 C 146.320312 37.945312 146.980469 37.679688 147.503906 37.3125 C 148.777344 36.417969 148.847656 34.40625 147.609375 33.4375 C 146.96875 32.9375 146.167969 32.632812 145.40625 32.339844 C 143.289062 31.535156 141.078125 30.984375 139.246094 29.476562 C 136.625 27.316406 136.355469 23.460938 137.949219 21.027344 C 138.742188 19.816406 139.875 19.070312 141.167969 18.597656 C 143.140625 17.878906 145.199219 17.851562 147.226562 18.058594 C 149.15625 18.257812 151.078125 18.695312 152.816406 19.816406 C 152.339844 20.929688 151.855469 22.0625 151.375 23.175781 C 150.4375 22.8125 149.566406 22.445312 148.675781 22.136719 C 147.308594 21.65625 145.886719 21.511719 144.460938 21.667969 C 143.84375 21.734375 143.210938 21.957031 142.660156 22.257812 C 141.160156 23.074219 141.144531 25.511719 142.691406 26.511719 C 143.625 27.113281 144.699219 27.5 145.738281 27.898438 C 147.597656 28.613281 149.566406 29.035156 151.183594 30.347656 C 152.304688 31.253906 152.832031 32.484375 153.019531 33.925781 C 153.066406 34.3125 153.179688 34.691406 153.261719 35.078125 Z M 153.261719 35.410156 "/>
<path style=" stroke:none;fill-rule:nonzero;fill:rgb(43.921569%,43.529412%,43.529412%);fill-opacity:1;" d="M 129.898438 17.980469 L 134.253906 17.980469 L 134.253906 42.011719 C 134.125 42.023438 134.007812 42.042969 133.890625 42.042969 C 131.359375 42.042969 128.824219 42.03125 126.292969 42.054688 C 125.894531 42.054688 125.695312 41.910156 125.574219 41.515625 C 124.890625 39.332031 124.203125 37.148438 123.511719 34.96875 C 122.914062 33.085938 122.304688 31.210938 121.710938 29.332031 C 121.082031 27.34375 120.46875 25.351562 119.84375 23.359375 C 119.726562 22.988281 119.558594 22.632812 119.472656 22.253906 C 119.386719 21.863281 119.140625 21.726562 118.863281 21.839844 C 118.714844 21.898438 118.574219 22.222656 118.574219 22.429688 C 118.554688 26.679688 118.558594 30.933594 118.558594 35.183594 C 118.558594 37.320312 118.558594 39.453125 118.558594 41.589844 C 118.558594 41.71875 118.546875 41.851562 118.539062 42.019531 C 118.390625 42.027344 118.257812 42.042969 118.121094 42.042969 C 116.953125 42.042969 115.78125 42.023438 114.613281 42.046875 C 114.148438 42.058594 113.976562 41.921875 113.980469 41.378906 C 114.003906 38.015625 113.992188 34.652344 113.992188 31.289062 C 113.992188 27.09375 113.992188 22.898438 113.992188 18.703125 C 113.992188 17.960938 113.996094 17.957031 114.691406 17.957031 C 117.1875 17.957031 119.6875 17.960938 122.183594 17.945312 C 122.496094 17.945312 122.65625 18.046875 122.757812 18.367188 C 124.277344 23.035156 125.808594 27.703125 127.328125 32.371094 C 127.847656 33.960938 128.347656 35.558594 128.855469 37.152344 C 128.898438 37.277344 128.929688 37.433594 129.015625 37.503906 C 129.171875 37.636719 129.367188 37.808594 129.539062 37.796875 C 129.667969 37.789062 129.832031 37.539062 129.886719 37.359375 C 129.945312 37.15625 129.902344 36.914062 129.902344 36.683594 C 129.902344 30.675781 129.902344 24.667969 129.902344 18.65625 C 129.902344 18.453125 129.902344 18.246094 129.902344 17.976562 Z M 129.898438 17.980469 "/>
<path style=" stroke:none;fill-rule:nonzero;fill:rgb(43.921569%,43.529412%,43.529412%);fill-opacity:1;" d="M 81.664062 24.472656 C 80.800781 23.847656 80.074219 23.210938 79.253906 22.757812 C 78.125 22.140625 76.859375 22.082031 75.59375 22.152344 C 74.589844 22.207031 73.609375 22.332031 72.683594 22.796875 C 71.203125 23.539062 70.410156 24.808594 69.953125 26.351562 C 69.464844 27.988281 69.441406 29.675781 69.574219 31.347656 C 69.714844 33.078125 70.011719 34.804688 71.304688 36.121094 C 72.140625 36.972656 73.195312 37.355469 74.34375 37.613281 C 75.667969 37.910156 76.953125 37.699219 78.25 37.558594 C 78.789062 37.5 79.324219 37.3125 79.84375 37.125 C 79.972656 37.078125 80.09375 36.816406 80.097656 36.648438 C 80.121094 35.496094 80.105469 34.339844 80.113281 33.183594 C 80.121094 32.722656 79.851562 32.640625 79.484375 32.644531 C 78.40625 32.648438 77.324219 32.644531 76.246094 32.644531 C 76.105469 32.644531 75.964844 32.644531 75.78125 32.644531 L 75.78125 28.59375 L 84.800781 28.59375 C 84.808594 28.777344 84.824219 28.953125 84.824219 29.128906 C 84.828125 32.539062 84.820312 35.945312 84.835938 39.355469 C 84.835938 39.714844 84.738281 39.925781 84.429688 40.089844 C 83.046875 40.839844 81.597656 41.335938 80.058594 41.667969 C 78.152344 42.082031 76.246094 42.117188 74.332031 41.988281 C 71.449219 41.792969 68.84375 40.921875 66.929688 38.546875 C 66.101562 37.515625 65.589844 36.320312 65.210938 35.046875 C 64.519531 32.710938 64.464844 30.308594 64.660156 27.929688 C 64.890625 25.160156 65.707031 22.558594 67.816406 20.589844 C 69.089844 19.402344 70.613281 18.742188 72.28125 18.332031 C 74.003906 17.90625 75.742188 17.886719 77.472656 18.015625 C 80.136719 18.210938 82.546875 19.078125 84.367188 21.21875 C 84.617188 21.511719 84.664062 21.683594 84.347656 21.964844 C 83.539062 22.691406 82.761719 23.457031 81.972656 24.203125 C 81.84375 24.324219 81.707031 24.433594 81.660156 24.472656 Z M 81.664062 24.472656 "/>
<path style=" stroke:none;fill-rule:nonzero;fill:rgb(43.921569%,43.529412%,43.529412%);fill-opacity:1;" d="M 111.445312 20.949219 C 110.628906 21.902344 109.820312 22.855469 108.988281 23.785156 C 108.917969 23.863281 108.613281 23.855469 108.519531 23.769531 C 107.433594 22.785156 106.175781 22.097656 104.753906 21.90625 C 102.019531 21.535156 99.398438 22.210938 98.097656 25.441406 C 97.257812 27.539062 97.15625 29.734375 97.476562 31.984375 C 97.632812 33.0625 97.808594 34.101562 98.300781 35.066406 C 99.125 36.683594 100.46875 37.59375 102.226562 37.734375 C 103.523438 37.839844 104.855469 37.875 106.136719 37.699219 C 107.34375 37.53125 108.515625 37.078125 109.683594 36.691406 C 110.035156 36.574219 110.09375 36.625 110.183594 36.957031 C 110.425781 37.882812 110.691406 38.808594 110.996094 39.714844 C 111.117188 40.085938 111.085938 40.3125 110.714844 40.441406 C 109.585938 40.828125 108.472656 41.277344 107.324219 41.582031 C 105.355469 42.109375 103.332031 42.140625 101.328125 41.9375 C 97.625 41.5625 94.816406 39.835938 93.40625 36.175781 C 92.742188 34.460938 92.523438 32.644531 92.457031 30.832031 C 92.34375 27.660156 92.71875 24.574219 94.609375 21.886719 C 95.902344 20.046875 97.648438 18.902344 99.808594 18.355469 C 101.828125 17.839844 103.855469 17.851562 105.898438 18.164062 C 107.910156 18.472656 109.71875 19.222656 111.203125 20.679688 C 111.28125 20.753906 111.347656 20.839844 111.445312 20.953125 Z M 111.445312 20.949219 "/>
<path style=" stroke:none;fill-rule:nonzero;fill:rgb(43.921569%,43.529412%,43.529412%);fill-opacity:1;" d="M 48.089844 42.050781 L 48.089844 17.992188 C 48.207031 17.976562 48.320312 17.945312 48.429688 17.945312 C 49.648438 17.945312 50.867188 17.945312 52.085938 17.949219 C 52.609375 17.949219 52.867188 18.234375 52.867188 18.796875 C 52.867188 24.800781 52.867188 30.800781 52.867188 36.804688 C 52.867188 37.371094 53.117188 37.652344 53.609375 37.652344 C 56.625 37.652344 59.636719 37.652344 62.648438 37.652344 C 62.851562 37.652344 63.050781 37.652344 63.292969 37.652344 L 63.292969 42.054688 L 48.085938 42.054688 Z M 48.089844 42.050781 "/>
</g>
</svg>
