<?xml version="1.0" encoding="UTF-8"?>
<svg xmlns="http://www.w3.org/2000/svg" xmlns:xlink="http://www.w3.org/1999/xlink" width="px" height="60px" viewBox="0 0 144 60" version="1.1">
<g id="surface1">
<path style=" stroke:none;fill-rule:nonzero;fill:rgb(81.568627%,0%,19.607843%);fill-opacity:1;" d="M 22.558594 11.25 C 22.753906 11.332031 22.941406 11.46875 23.140625 11.488281 C 26.320312 11.765625 29.167969 12.96875 31.746094 14.914062 C 34.703125 17.148438 36.777344 20.113281 38.027344 23.695312 C 38.847656 26.042969 39.105469 28.5 39.007812 31.011719 C 38.847656 35.125 37.484375 38.753906 35.0625 41.921875 C 33.199219 44.355469 30.847656 46.175781 28.082031 47.347656 C 26.34375 48.082031 24.539062 48.445312 22.671875 48.675781 C 21.363281 48.835938 20.085938 48.714844 18.851562 48.527344 C 16.089844 48.109375 13.527344 47.019531 11.234375 45.269531 C 8.328125 43.058594 6.238281 40.1875 4.957031 36.679688 C 4.394531 35.144531 4.003906 33.539062 3.921875 31.875 C 3.898438 31.371094 3.726562 30.871094 3.742188 30.371094 C 3.863281 26.144531 4.902344 22.242188 7.363281 18.8125 C 9.640625 15.636719 12.558594 13.433594 16.148438 12.257812 C 17.304688 11.878906 18.535156 11.75 19.730469 11.492188 C 19.929688 11.449219 20.117188 11.332031 20.308594 11.25 C 21.058594 11.25 21.8125 11.25 22.558594 11.25 Z M 34.734375 30.929688 C 34.734375 31.128906 34.757812 31.28125 34.730469 31.421875 C 34.535156 32.453125 34.40625 33.503906 34.113281 34.5 C 33.363281 37.023438 31.984375 39.132812 30.074219 40.835938 C 27.917969 42.757812 25.433594 43.828125 22.605469 44.113281 C 20.8125 44.292969 19.082031 44.117188 17.382812 43.554688 C 14.621094 42.640625 12.394531 40.890625 10.6875 38.449219 C 8.386719 35.15625 7.628906 31.429688 8.289062 27.429688 C 8.75 24.644531 9.972656 22.222656 11.847656 20.171875 C 13.4375 18.433594 15.335938 17.207031 17.488281 16.53125 C 18.804688 16.117188 20.226562 16.089844 21.597656 15.886719 C 21.800781 15.855469 22.160156 15.816406 22.171875 15.734375 C 22.238281 15.316406 22.269531 14.871094 22.183594 14.464844 C 22.15625 14.328125 21.742188 14.203125 21.503906 14.207031 C 19.3125 14.25 17.195312 14.679688 15.191406 15.667969 C 12.726562 16.886719 10.730469 18.699219 9.160156 21.03125 C 7.859375 22.960938 7.046875 25.121094 6.660156 27.449219 C 6.304688 29.613281 6.488281 31.753906 6.964844 33.890625 C 7.507812 36.328125 8.570312 38.488281 10.121094 40.34375 C 13.398438 44.28125 17.53125 46.132812 22.519531 45.785156 C 25.347656 45.585938 27.917969 44.636719 30.183594 42.835938 C 34.261719 39.597656 36.332031 35.289062 36.335938 29.882812 C 36.335938 29.390625 36.183594 29.226562 35.71875 29.226562 C 32.574219 29.242188 29.429688 29.234375 26.285156 29.238281 C 25.636719 29.238281 25.582031 29.316406 25.585938 30.113281 C 25.585938 30.84375 25.625 30.886719 26.304688 30.886719 C 28.894531 30.886719 31.488281 30.886719 34.078125 30.890625 C 34.285156 30.890625 34.492188 30.914062 34.734375 30.925781 Z M 20.648438 29.992188 C 20.648438 30.878906 20.648438 31.765625 20.648438 32.648438 C 20.648438 34.347656 20.652344 36.046875 20.644531 37.742188 C 20.644531 38.128906 20.707031 38.402344 21.164062 38.398438 C 22.542969 38.382812 23.917969 38.390625 25.292969 38.394531 C 25.644531 38.394531 25.828125 38.230469 25.808594 37.847656 C 25.804688 37.675781 25.796875 37.503906 25.8125 37.335938 C 25.851562 36.863281 25.644531 36.703125 25.210938 36.714844 C 24.441406 36.738281 23.671875 36.6875 22.90625 36.730469 C 22.386719 36.761719 22.25 36.582031 22.25 36.039062 C 22.269531 31.492188 22.261719 26.945312 22.261719 22.398438 C 22.261719 21.683594 22.242188 21.671875 21.445312 21.671875 C 20.660156 21.671875 20.652344 21.675781 20.648438 22.40625 C 20.648438 24.933594 20.648438 27.460938 20.648438 29.992188 Z M 15.8125 26.351562 C 17.070312 26.347656 17.980469 25.367188 17.976562 24.023438 C 17.972656 22.773438 16.929688 21.664062 15.769531 21.679688 C 14.648438 21.695312 13.550781 22.886719 13.566406 24.066406 C 13.582031 25.355469 14.566406 26.355469 15.8125 26.351562 Z M 15.8125 26.351562 "/>
<path style=" stroke:none;fill-rule:nonzero;fill:rgb(43.921569%,43.529412%,43.529412%);fill-opacity:1;" d="M 81.246094 24.476562 C 80.386719 23.851562 79.664062 23.210938 78.84375 22.757812 C 77.726562 22.140625 76.464844 22.085938 75.207031 22.152344 C 74.207031 22.207031 73.234375 22.335938 72.3125 22.800781 C 70.839844 23.542969 70.050781 24.808594 69.59375 26.351562 C 69.113281 27.988281 69.085938 29.675781 69.222656 31.347656 C 69.363281 33.078125 69.65625 34.808594 70.9375 36.121094 C 71.773438 36.972656 72.824219 37.355469 73.964844 37.613281 C 75.277344 37.914062 76.558594 37.703125 77.847656 37.5625 C 78.386719 37.5 78.917969 37.3125 79.433594 37.128906 C 79.5625 37.082031 79.683594 36.816406 79.6875 36.652344 C 79.710938 35.496094 79.691406 34.339844 79.703125 33.1875 C 79.707031 32.726562 79.441406 32.644531 79.078125 32.644531 C 78.003906 32.648438 76.929688 32.648438 75.855469 32.648438 C 75.714844 32.648438 75.574219 32.648438 75.394531 32.648438 L 75.394531 28.597656 L 84.363281 28.597656 C 84.375 28.777344 84.390625 28.953125 84.390625 29.128906 C 84.390625 32.539062 84.382812 35.949219 84.398438 39.355469 C 84.402344 39.714844 84.304688 39.925781 83.996094 40.09375 C 82.621094 40.839844 81.179688 41.335938 79.648438 41.671875 C 77.753906 42.082031 75.855469 42.117188 73.953125 41.988281 C 71.085938 41.796875 68.492188 40.921875 66.589844 38.550781 C 65.765625 37.519531 65.257812 36.320312 64.882812 35.050781 C 64.191406 32.714844 64.136719 30.308594 64.332031 27.929688 C 64.5625 25.160156 65.375 22.558594 67.472656 20.589844 C 68.738281 19.40625 70.253906 18.746094 71.914062 18.332031 C 73.625 17.910156 75.355469 17.890625 77.078125 18.015625 C 79.722656 18.210938 82.121094 19.082031 83.933594 21.21875 C 84.179688 21.515625 84.226562 21.683594 83.914062 21.96875 C 83.109375 22.691406 82.339844 23.457031 81.550781 24.207031 C 81.425781 24.328125 81.285156 24.4375 81.242188 24.472656 Z M 81.246094 24.476562 "/>
<path style=" stroke:none;fill-rule:nonzero;fill:rgb(43.921569%,43.529412%,43.529412%);fill-opacity:1;" d="M 47.851562 42.054688 L 47.851562 17.996094 C 47.96875 17.980469 48.082031 17.949219 48.191406 17.949219 C 49.402344 17.945312 50.617188 17.949219 51.828125 17.953125 C 52.34375 17.953125 52.605469 18.234375 52.605469 18.800781 C 52.605469 24.800781 52.605469 30.804688 52.605469 36.804688 C 52.605469 37.371094 52.851562 37.652344 53.34375 37.65625 C 56.339844 37.65625 59.335938 37.65625 62.332031 37.65625 C 62.535156 37.65625 62.734375 37.65625 62.972656 37.65625 L 62.972656 42.054688 Z M 47.851562 42.054688 "/>
<path style=" stroke:none;fill-rule:nonzero;fill:rgb(43.921569%,43.529412%,43.529412%);fill-opacity:1;" d="M 130.230469 32.980469 C 128.003906 31.898438 125.074219 28.464844 125.074219 24.5 L 125.074219 21.734375 L 129.726562 21.734375 L 129.726562 18.460938 L 115.90625 18.460938 L 115.90625 21.734375 L 120.554688 21.734375 L 120.554688 24.5 C 120.554688 28.464844 117.636719 31.898438 115.410156 32.980469 L 115.328125 33.019531 L 115.128906 33.117188 L 115.128906 36.496094 L 115.578125 36.371094 L 115.757812 36.324219 C 118.097656 35.660156 120.949219 33.679688 122.820312 31.085938 C 124.683594 33.679688 127.535156 35.660156 129.875 36.324219 L 130.050781 36.371094 L 130.511719 36.496094 L 130.511719 33.117188 L 130.238281 32.980469 Z M 130.230469 32.980469 "/>
<path style=" stroke:none;fill-rule:nonzero;fill:rgb(43.921569%,43.529412%,43.529412%);fill-opacity:1;" d="M 139.894531 24.003906 L 136.425781 24.003906 L 136.425781 17.945312 L 132.25 17.945312 L 132.25 42.058594 L 136.425781 42.058594 L 136.425781 27.277344 L 140.261719 27.277344 L 140.261719 24.003906 Z M 139.894531 24.003906 "/>
<path style=" stroke:none;fill-rule:nonzero;fill:rgb(43.921569%,43.529412%,43.529412%);fill-opacity:1;" d="M 103.855469 18.460938 L 103.855469 21.734375 L 99.207031 21.734375 L 99.207031 21.78125 C 99.207031 25.621094 102.070312 27.839844 104.230469 28.292969 L 104.34375 28.3125 L 104.625 28.367188 L 104.625 31.574219 L 104.238281 31.546875 L 104.097656 31.546875 C 101.761719 31.375 98.953125 30.140625 96.941406 27.765625 C 94.929688 30.140625 92.113281 31.363281 89.773438 31.527344 L 89.632812 31.527344 L 89.25 31.566406 L 89.25 28.359375 L 89.53125 28.300781 L 89.644531 28.28125 C 91.804688 27.832031 94.667969 25.648438 94.667969 21.773438 L 94.667969 21.726562 L 90.035156 21.726562 L 90.035156 18.460938 Z M 103.855469 18.460938 "/>
<path style=" stroke:none;fill-rule:nonzero;fill:rgb(43.921569%,43.529412%,43.529412%);fill-opacity:1;" d="M 104.210938 23.019531 L 103.714844 23.019531 L 103.714844 26.292969 L 107.550781 26.292969 L 107.550781 33.765625 L 111.714844 33.765625 L 111.714844 17.945312 L 107.550781 17.945312 L 107.550781 23.019531 Z M 104.210938 23.019531 "/>
<path style=" stroke:none;fill-rule:nonzero;fill:rgb(43.921569%,43.529412%,43.529412%);fill-opacity:1;" d="M 111.359375 38.773438 L 97.484375 38.773438 L 97.484375 32.761719 L 93.320312 32.761719 L 93.320312 39.316406 C 93.320312 40.140625 93.5625 40.839844 94.050781 41.320312 C 94.527344 41.796875 95.230469 42.046875 96.0625 42.046875 L 111.714844 42.046875 L 111.714844 38.773438 L 111.347656 38.773438 Z M 111.359375 38.773438 "/>
</g>
</svg>
