<?xml version="1.0" encoding="UTF-8"?>
<svg xmlns="http://www.w3.org/2000/svg" xmlns:xlink="http://www.w3.org/1999/xlink" width="px" height="60px" viewBox="0 0 131 60" version="1.1">
<g id="surface1">
<path style=" stroke:none;fill-rule:nonzero;fill:rgb(90.196078%,23.137255%,44.705882%);fill-opacity:1;" d="M 65.65625 26.003906 L 65.65625 37.296875 L 60.761719 37.296875 L 60.761719 26.421875 C 60.761719 24.164062 59.359375 22.460938 56.820312 22.460938 C 54.515625 22.460938 52.871094 24.164062 52.871094 26.46875 L 52.871094 37.296875 L 47.984375 37.296875 L 47.984375 18.054688 L 52.675781 18.054688 L 52.675781 20.3125 C 53.855469 18.417969 56.277344 17.828125 57.980469 17.828125 C 63.601562 17.828125 65.65625 21.671875 65.65625 26.003906 Z M 19.269531 18.0625 L 14.429688 30.125 L 9.460938 18.0625 L 3.742188 18.0625 L 11.820312 36.105469 L 7.210938 46.820312 L 12.722656 46.820312 L 25.007812 18.0625 Z M 87.875 27.8125 C 87.875 33.304688 83.585938 37.765625 78.296875 37.765625 C 73.007812 37.765625 68.722656 33.3125 68.722656 27.8125 C 68.722656 22.308594 73.007812 17.855469 78.296875 17.855469 C 83.585938 17.855469 87.875 22.308594 87.875 27.8125 Z M 83.058594 27.8125 C 83.058594 25.074219 80.925781 22.863281 78.296875 22.863281 C 75.671875 22.863281 73.535156 25.082031 73.535156 27.8125 C 73.535156 30.539062 75.671875 32.761719 78.296875 32.761719 C 80.925781 32.761719 83.058594 30.539062 83.058594 27.8125 Z M 44.117188 28.382812 L 44.117188 37.296875 L 39.703125 37.296875 L 39.703125 35.308594 C 38.265625 36.816406 36.398438 37.738281 34.394531 37.738281 C 29.105469 37.738281 24.820312 33.285156 24.820312 27.78125 C 24.820312 22.28125 29.105469 17.828125 34.394531 17.828125 C 39.683594 17.828125 44.125 22.167969 44.125 28.382812 M 39.167969 27.8125 C 39.167969 25.074219 37.03125 22.863281 34.40625 22.863281 C 31.777344 22.863281 29.644531 25.082031 29.644531 27.8125 C 29.644531 30.539062 31.777344 32.761719 34.40625 32.761719 C 37.03125 32.761719 39.167969 30.539062 39.167969 27.8125 Z M 127.25 28.382812 L 127.25 37.296875 L 122.835938 37.296875 L 122.835938 35.308594 C 121.394531 36.816406 119.527344 37.738281 117.527344 37.738281 C 112.238281 37.738281 107.949219 33.285156 107.949219 27.78125 C 107.949219 22.28125 112.238281 17.828125 117.527344 17.828125 C 122.816406 17.828125 127.257812 22.167969 127.257812 28.382812 Z M 122.289062 27.8125 C 122.289062 25.074219 120.15625 22.863281 117.527344 22.863281 C 114.902344 22.863281 112.765625 25.082031 112.765625 27.8125 C 112.765625 30.539062 114.902344 32.761719 117.527344 32.761719 C 120.15625 32.761719 122.289062 30.539062 122.289062 27.8125 Z M 91.011719 37.285156 L 95.996094 37.285156 L 95.996094 9.375 L 91.011719 9.375 Z M 99.992188 37.023438 C 99.992188 40.585938 97.925781 41.765625 96.03125 41.765625 L 96.03125 46.875 C 98.875 46.875 104.894531 46.03125 104.921875 37.117188 L 104.921875 18.054688 L 99.992188 18.054688 Z M 99.992188 37.023438 "/>
</g>
</svg>
