<?xml version="1.0" encoding="UTF-8"?>
<svg xmlns="http://www.w3.org/2000/svg" xmlns:xlink="http://www.w3.org/1999/xlink" width="px" height="60px" viewBox="0 0 123 60" version="1.1">
<g id="surface1">
<path style=" stroke:none;fill-rule:nonzero;fill:rgb(0%,0%,0%);fill-opacity:1;" d="M 7.589844 24.304688 L 16.257812 24.304688 L 16.257812 20.933594 L 3.726562 20.933594 L 3.726562 39.066406 L 7.589844 39.066406 L 7.589844 32.460938 L 15.238281 32.460938 L 15.238281 29.097656 L 7.589844 29.097656 Z M 7.589844 24.304688 "/>
<path style=" stroke:none;fill-rule:nonzero;fill:rgb(0%,0%,0%);fill-opacity:1;" d="M 23.429688 20.933594 L 16.066406 39.066406 L 19.992188 39.066406 L 21.46875 35.183594 L 29.148438 35.183594 L 30.625 39.066406 L 34.648438 39.066406 L 27.214844 20.933594 Z M 22.683594 31.996094 L 25.316406 25.082031 L 27.941406 31.996094 Z M 22.683594 31.996094 "/>
<path style=" stroke:none;fill-rule:nonzero;fill:rgb(0%,0%,0%);fill-opacity:1;" d="M 47.015625 29.914062 C 46.449219 29.542969 45.824219 29.234375 45.144531 28.992188 C 44.464844 28.753906 43.78125 28.546875 43.085938 28.382812 C 42.394531 28.21875 41.761719 28.050781 41.195312 27.894531 C 40.625 27.726562 40.164062 27.5 39.820312 27.207031 C 39.480469 26.914062 39.300781 26.519531 39.300781 26.039062 C 39.300781 25.660156 39.40625 25.3125 39.621094 25.003906 C 39.835938 24.695312 40.171875 24.449219 40.625 24.265625 C 41.082031 24.085938 41.691406 23.996094 42.453125 23.996094 C 43.214844 23.996094 43.9375 24.109375 44.726562 24.34375 C 45.515625 24.574219 46.285156 24.921875 47.023438 25.390625 L 48.230469 22.230469 C 47.46875 21.710938 46.582031 21.320312 45.570312 21.039062 C 44.554688 20.761719 43.519531 20.625 42.476562 20.625 C 40.910156 20.625 39.613281 20.882812 38.578125 21.386719 C 37.539062 21.898438 36.773438 22.578125 36.265625 23.429688 C 35.757812 24.28125 35.503906 25.230469 35.503906 26.265625 C 35.503906 27.214844 35.675781 28.007812 36.011719 28.632812 C 36.347656 29.257812 36.808594 29.769531 37.382812 30.160156 C 37.957031 30.546875 38.59375 30.863281 39.277344 31.097656 C 39.964844 31.332031 40.648438 31.527344 41.328125 31.691406 C 42.007812 31.859375 42.632812 32.03125 43.214844 32.210938 C 43.789062 32.394531 44.25 32.628906 44.601562 32.914062 C 44.941406 33.199219 45.121094 33.585938 45.121094 34.066406 C 45.121094 34.445312 45.011719 34.785156 44.792969 35.0625 C 44.570312 35.347656 44.226562 35.574219 43.765625 35.75 C 43.304688 35.921875 42.683594 36.003906 41.929688 36.003906 C 40.941406 36.003906 39.949219 35.832031 38.972656 35.476562 C 37.996094 35.121094 37.152344 34.671875 36.460938 34.121094 L 35.15625 37.277344 C 35.902344 37.90625 36.878906 38.410156 38.105469 38.792969 C 39.328125 39.179688 40.605469 39.375 41.929688 39.375 C 43.496094 39.375 44.792969 39.117188 45.835938 38.597656 C 46.882812 38.078125 47.65625 37.398438 48.171875 36.554688 C 48.683594 35.710938 48.9375 34.777344 48.9375 33.757812 C 48.9375 32.824219 48.757812 32.046875 48.410156 31.414062 C 48.058594 30.78125 47.589844 30.28125 47.023438 29.914062 Z M 47.015625 29.914062 "/>
<path style=" stroke:none;fill-rule:nonzero;fill:rgb(0%,0%,0%);fill-opacity:1;" d="M 49.527344 24.355469 L 54.828125 24.355469 L 54.828125 39.066406 L 58.667969 39.066406 L 58.667969 24.355469 L 63.976562 24.355469 L 63.976562 20.933594 L 49.527344 20.933594 Z M 49.527344 24.355469 "/>
<path style=" stroke:none;fill-rule:nonzero;fill:rgb(0%,0%,0%);fill-opacity:1;" d="M 66.105469 39.066406 L 69.960938 39.066406 L 69.960938 32.460938 L 77.617188 32.460938 L 77.617188 29.097656 L 69.960938 29.097656 L 69.960938 24.304688 L 78.628906 24.304688 L 78.628906 20.933594 L 66.105469 20.933594 Z M 66.105469 39.066406 "/>
<path style=" stroke:none;fill-rule:nonzero;fill:rgb(0%,0%,0%);fill-opacity:1;" d="M 85.167969 20.933594 L 81.304688 20.933594 L 81.304688 39.066406 L 85.167969 39.066406 Z M 85.167969 20.933594 "/>
<path style=" stroke:none;fill-rule:nonzero;fill:rgb(0%,0%,0%);fill-opacity:1;" d="M 96.058594 33.886719 L 91.019531 20.933594 L 86.84375 20.933594 L 94.023438 39.066406 L 97.808594 39.066406 L 104.988281 20.933594 L 101.171875 20.933594 Z M 96.058594 33.886719 "/>
<path style=" stroke:none;fill-rule:nonzero;fill:rgb(0%,0%,0%);fill-opacity:1;" d="M 110.246094 35.703125 L 110.246094 31.503906 L 117.945312 31.503906 L 117.945312 28.21875 L 110.246094 28.21875 L 110.246094 24.304688 L 118.960938 24.304688 L 118.960938 20.933594 L 106.4375 20.933594 L 106.4375 39.066406 L 119.273438 39.066406 L 119.273438 35.703125 Z M 110.246094 35.703125 "/>
</g>
</svg>
