<?xml version="1.0" encoding="UTF-8"?>
<svg xmlns="http://www.w3.org/2000/svg" xmlns:xlink="http://www.w3.org/1999/xlink" width="px" height="60px" viewBox="0 0 180 60" version="1.1">
<g id="surface1">
<path style=" stroke:none;fill-rule:nonzero;fill:rgb(90.196078%,0%,0%);fill-opacity:1;" d="M 16.046875 18.804688 C 16.328125 19.191406 16.914062 19.976562 16.929688 19.984375 C 16.976562 20.058594 17.007812 20.128906 17.074219 20.203125 C 17.414062 20.90625 17.933594 21.535156 18.160156 22.3125 L 18.296875 22.753906 C 18.296875 22.753906 18.328125 22.902344 18.355469 23.074219 C 18.484375 23.574219 18.355469 24.0625 18.3125 24.554688 C 18.152344 25.429688 17.648438 26.230469 17.195312 26.992188 C 16.78125 27.5625 15.859375 28.667969 15.859375 28.667969 C 15.316406 28.011719 14.742188 27.382812 14.175781 26.753906 C 13.859375 26.164062 13.535156 25.585938 13.25 24.972656 C 13.050781 24.269531 12.863281 23.582031 12.894531 22.886719 C 12.886719 22.886719 12.917969 22.589844 12.925781 22.46875 C 12.992188 22.222656 13.039062 21.953125 13.171875 21.742188 C 13.210938 21.625 13.347656 21.390625 13.4375 21.292969 C 13.4375 21.292969 13.695312 20.914062 13.777344 20.824219 C 14.410156 20.023438 15.242188 19.460938 15.972656 18.757812 C 16.003906 18.730469 16.03125 18.78125 16.046875 18.796875 Z M 16.046875 18.804688 "/>
<path style=" stroke:none;fill-rule:nonzero;fill:rgb(90.196078%,0%,0%);fill-opacity:1;" d="M 7.632812 22.871094 C 7.824219 22.953125 8.035156 22.984375 8.238281 23.058594 C 8.789062 23.117188 9.332031 23.261719 9.859375 23.417969 C 10.183594 23.53125 10.832031 23.867188 10.832031 23.867188 C 11.671875 24.332031 12.246094 25.054688 12.839844 25.722656 C 13.339844 26.445312 13.761719 27.226562 13.949219 28.152344 C 13.996094 28.429688 14.085938 28.726562 14.101562 29.003906 C 13.195312 29.273438 12.265625 29.417969 11.355469 29.453125 C 10.628906 29.339844 9.9375 29.066406 9.257812 28.707031 C 8.59375 28.234375 8.085938 27.671875 7.640625 27.039062 C 7.046875 26.101562 6.742188 24.914062 6.601562 23.777344 C 6.585938 23.621094 6.570312 23.476562 6.570312 23.476562 C 6.570312 23.476562 6.523438 23 6.488281 22.773438 C 6.488281 22.648438 6.496094 22.585938 6.496094 22.585938 C 6.496094 22.585938 6.683594 22.625 6.820312 22.648438 C 7.03125 22.714844 7.535156 22.863281 7.632812 22.878906 Z M 7.632812 22.871094 "/>
<path style=" stroke:none;fill-rule:nonzero;fill:rgb(90.196078%,0%,0%);fill-opacity:1;" d="M 22.777344 23.648438 C 22.777344 23.648438 23.714844 23.792969 24.242188 23.949219 C 24.332031 23.964844 24.378906 23.988281 24.46875 24.007812 C 24.929688 24.160156 25.390625 24.324219 25.859375 24.496094 C 25.789062 25.125 25.675781 25.757812 25.285156 26.3125 C 25.277344 26.328125 25.261719 26.351562 25.238281 26.386719 C 24.914062 26.910156 24.417969 27.375 23.917969 27.71875 C 23.441406 28.03125 22.96875 28.363281 22.425781 28.59375 C 21.324219 29.125 20.015625 29.527344 18.765625 29.320312 C 18.296875 29.238281 17.800781 29.222656 17.339844 29.117188 C 17.339844 29.117188 17.550781 28.273438 17.648438 27.859375 C 17.707031 27.585938 17.933594 27.082031 17.933594 27.082031 C 18.289062 26.523438 18.402344 25.894531 18.863281 25.371094 C 19.496094 24.71875 20.144531 24.089844 20.984375 23.761719 C 21.578125 23.558594 22.214844 23.539062 22.792969 23.636719 Z M 22.777344 23.648438 "/>
<path style=" stroke:none;fill-rule:nonzero;fill:rgb(90.196078%,0%,0%);fill-opacity:1;" d="M 10.34375 34.21875 C 10.917969 34.007812 11.324219 33.53125 11.738281 33.105469 C 12.160156 32.664062 12.523438 32.183594 12.871094 31.667969 C 12.878906 31.652344 13.203125 31.152344 13.347656 30.957031 C 13.355469 30.941406 13.375 30.933594 13.382812 30.90625 C 12.585938 30.582031 11.816406 30.238281 11.023438 30.03125 C 10.351562 29.859375 9.6875 29.632812 8.992188 29.625 C 8.402344 29.609375 7.832031 29.492188 7.21875 29.65625 C 5.847656 29.992188 4.765625 30.734375 3.742188 31.527344 L 3.742188 31.570312 C 4.132812 32.140625 4.519531 32.707031 4.964844 33.222656 C 4.964844 33.222656 5.136719 33.441406 5.242188 33.53125 L 5.734375 34.039062 C 5.929688 34.144531 6.359375 34.332031 6.359375 34.332031 C 6.871094 34.628906 7.429688 34.710938 7.972656 34.757812 C 8.601562 34.710938 9.679688 34.5625 10.34375 34.226562 Z M 10.34375 34.21875 "/>
<path style=" stroke:none;fill-rule:nonzero;fill:rgb(90.196078%,0%,0%);fill-opacity:1;" d="M 22.097656 29.617188 C 22.414062 29.597656 22.632812 29.648438 22.90625 29.664062 C 23.683594 29.746094 24.414062 30.007812 25.132812 30.328125 C 25.253906 30.390625 25.367188 30.464844 25.472656 30.546875 C 25.472656 30.546875 25.714844 30.753906 25.855469 30.859375 C 26.066406 31.054688 26.25 31.265625 26.421875 31.480469 C 26.46875 31.585938 26.625 31.824219 26.632812 31.847656 C 26.921875 32.402344 27.183594 32.96875 27.410156 33.554688 C 27.433594 33.589844 27.441406 33.628906 27.449219 33.664062 C 27.320312 33.726562 27.175781 33.753906 27.035156 33.792969 C 27.003906 33.808594 26.597656 33.925781 26.4375 34 C 25.984375 34.105469 25.507812 34.203125 25.042969 34.277344 C 25.011719 34.277344 24.378906 34.382812 24.082031 34.398438 C 24.066406 34.398438 23.53125 34.441406 23.433594 34.429688 C 23.296875 34.464844 23.148438 34.429688 23.003906 34.449219 C 22.703125 34.449219 22.039062 34.398438 22.015625 34.390625 C 21.738281 34.367188 21.34375 34.269531 21.214844 34.21875 C 21.171875 34.203125 20.492188 33.933594 20.46875 33.917969 C 20.339844 33.859375 20.054688 33.679688 20.054688 33.679688 C 19.878906 33.597656 19.714844 33.457031 19.5625 33.351562 C 19.300781 33.140625 19.066406 32.910156 18.863281 32.640625 C 18.539062 32.214844 18.054688 31.257812 18.046875 31.25 C 18.671875 30.710938 19.421875 30.34375 20.183594 30.023438 C 20.484375 29.894531 20.792969 29.789062 21.101562 29.671875 C 21.425781 29.632812 21.78125 29.550781 22.097656 29.582031 Z M 22.097656 29.617188 "/>
<path style=" stroke:none;fill-rule:nonzero;fill:rgb(90.196078%,0%,0%);fill-opacity:1;" d="M 20.824219 35.183594 C 21.367188 35.894531 21.941406 36.539062 22.101562 37.53125 C 22.152344 37.839844 22.21875 38.160156 22.234375 38.46875 C 22.273438 38.8125 22.3125 39.171875 22.3125 39.507812 C 22.3125 40.039062 22.273438 40.578125 22.273438 41.113281 C 22.023438 41.03125 21.761719 40.921875 21.511719 40.824219 C 21.496094 40.832031 19.746094 40.195312 19.746094 40.195312 C 19.113281 39.917969 18.457031 39.542969 17.882812 39.132812 C 17.882812 39.132812 17.058594 38.519531 16.796875 38.136719 C 16.621094 37.890625 16.464844 37.628906 16.296875 37.375 C 16.273438 37.34375 16.132812 37.054688 16.117188 36.933594 C 16.027344 36.550781 15.957031 36.15625 15.980469 35.773438 C 15.972656 35.609375 15.980469 35.414062 15.996094 35.234375 C 16.078125 34.441406 16.273438 33.664062 16.515625 32.894531 L 16.5625 32.691406 C 18.046875 33.214844 19.761719 33.964844 20.824219 35.191406 Z M 20.824219 35.183594 "/>
<path style=" stroke:none;fill-rule:nonzero;fill:rgb(90.196078%,0%,0%);fill-opacity:1;" d="M 14.699219 32.707031 C 13.648438 33.105469 12.636719 33.589844 11.613281 34.054688 C 11.445312 34.160156 11.265625 34.292969 11.097656 34.390625 C 10.796875 34.726562 10.117188 35.339844 10.117188 35.339844 C 9.710938 35.738281 9.316406 36.335938 9.316406 36.941406 C 9.273438 37.539062 9.339844 38.132812 9.421875 38.738281 C 9.535156 39.371094 9.746094 40 9.9375 40.628906 C 9.988281 40.839844 10.042969 41.039062 10.09375 41.25 C 10.15625 41.242188 10.238281 41.199219 10.3125 41.199219 C 10.3125 41.199219 11.964844 40.644531 12.691406 40.226562 C 13.285156 39.882812 13.859375 39.507812 14.273438 38.953125 C 14.34375 38.878906 14.492188 38.691406 14.492188 38.691406 C 15.042969 37.914062 15.382812 36.949219 15.375 36.042969 C 15.375 36.042969 15.375 35.753906 15.375 35.617188 C 15.347656 35.273438 15.257812 34.929688 15.226562 34.59375 C 15.164062 34.398438 15.128906 34.195312 15.074219 33.988281 C 14.976562 33.5625 14.804688 33.128906 14.691406 32.695312 Z M 14.699219 32.707031 "/>
<path style=" stroke:none;fill-rule:nonzero;fill:rgb(30.980392%,33.333333%,33.72549%);fill-opacity:1;" d="M 40.375 29.535156 C 39.09375 28.804688 37.894531 28.117188 37.894531 26.882812 C 37.894531 25.835938 38.835938 25.109375 40.195312 25.109375 C 41.144531 25.109375 42.074219 25.460938 42.972656 26.15625 L 43.316406 26.417969 L 43.316406 24.488281 L 43.21875 24.421875 C 42.320312 23.851562 41.332031 23.554688 40.367188 23.554688 C 39.167969 23.554688 38.148438 23.890625 37.425781 24.53125 C 36.699219 25.175781 36.308594 26.074219 36.308594 27.144531 C 36.308594 29.125 37.953125 30.121094 39.539062 31.09375 C 40.941406 31.953125 42.261719 32.753906 42.261719 34.160156 C 42.261719 35.070312 41.425781 36.035156 39.898438 36.035156 C 38.789062 36.035156 37.695312 35.527344 36.730469 34.570312 L 36.375 34.21875 L 36.375 36.359375 L 36.453125 36.425781 C 37.574219 37.234375 38.699219 37.59375 40.105469 37.59375 C 42.277344 37.59375 43.847656 36.058594 43.847656 33.941406 C 43.847656 32.859375 43.46875 31.953125 42.699219 31.160156 C 42.035156 30.480469 41.191406 30 40.375 29.535156 Z M 40.375 29.535156 "/>
<path style=" stroke:none;fill-rule:nonzero;fill:rgb(30.980392%,33.333333%,33.72549%);fill-opacity:1;" d="M 86.636719 29.535156 C 85.355469 28.804688 84.148438 28.117188 84.148438 26.882812 C 84.148438 25.835938 85.097656 25.109375 86.449219 25.109375 C 87.398438 25.109375 88.328125 25.460938 89.226562 26.15625 L 89.566406 26.417969 L 89.566406 24.488281 L 89.46875 24.421875 C 88.570312 23.851562 87.582031 23.554688 86.621094 23.554688 C 85.421875 23.554688 84.402344 23.890625 83.679688 24.53125 C 82.949219 25.175781 82.5625 26.074219 82.5625 27.144531 C 82.5625 29.117188 84.207031 30.121094 85.792969 31.09375 C 87.195312 31.953125 88.515625 32.753906 88.515625 34.160156 C 88.515625 35.070312 87.6875 36.035156 86.15625 36.035156 C 85.046875 36.035156 83.957031 35.527344 83 34.570312 L 82.644531 34.210938 L 82.644531 36.351562 L 82.722656 36.417969 C 83.84375 37.226562 84.96875 37.585938 86.375 37.585938 C 88.539062 37.585938 90.117188 36.050781 90.117188 33.933594 C 90.117188 32.851562 89.738281 31.945312 88.96875 31.152344 C 88.304688 30.472656 87.460938 29.992188 86.644531 29.523438 Z M 86.636719 29.535156 "/>
<path style=" stroke:none;fill-rule:nonzero;fill:rgb(30.980392%,33.333333%,33.72549%);fill-opacity:1;" d="M 55.851562 29.820312 L 48.613281 29.820312 L 48.613281 23.761719 L 46.917969 23.761719 L 46.917969 37.375 L 48.613281 37.375 L 48.613281 31.316406 L 55.851562 31.316406 L 55.851562 37.375 L 57.535156 37.375 L 57.535156 23.761719 L 55.851562 23.761719 Z M 55.851562 29.820312 "/>
<path style=" stroke:none;fill-rule:nonzero;fill:rgb(30.980392%,33.333333%,33.72549%);fill-opacity:1;" d="M 63.496094 23.761719 L 61.804688 23.761719 L 61.804688 37.375 L 63.496094 37.375 Z M 63.496094 23.761719 "/>
<path style=" stroke:none;fill-rule:nonzero;fill:rgb(30.980392%,33.333333%,33.72549%);fill-opacity:1;" d="M 94.992188 31.324219 L 100.492188 31.324219 L 100.492188 29.820312 L 94.992188 29.820312 L 94.992188 25.265625 L 100.695312 25.265625 L 100.695312 23.761719 L 93.300781 23.761719 L 93.300781 37.375 L 100.875 37.375 L 100.875 35.867188 L 94.992188 35.867188 Z M 94.992188 31.324219 "/>
<path style=" stroke:none;fill-rule:nonzero;fill:rgb(30.980392%,33.333333%,33.72549%);fill-opacity:1;" d="M 132.257812 31.324219 L 137.757812 31.324219 L 137.757812 29.820312 L 132.257812 29.820312 L 132.257812 25.265625 L 137.960938 25.265625 L 137.960938 23.761719 L 130.566406 23.761719 L 130.566406 37.375 L 138.144531 37.375 L 138.144531 35.867188 L 132.257812 35.867188 Z M 132.257812 31.324219 "/>
<path style=" stroke:none;fill-rule:nonzero;fill:rgb(30.980392%,33.333333%,33.72549%);fill-opacity:1;" d="M 121.609375 23.679688 L 116.164062 37.375 L 117.914062 37.375 L 119.476562 33.277344 L 125.074219 33.277344 L 126.765625 37.375 L 128.492188 37.375 L 122.804688 23.679688 L 121.597656 23.679688 Z M 120.050781 31.773438 L 122.167969 26.238281 L 124.457031 31.773438 Z M 120.050781 31.773438 "/>
<path style=" stroke:none;fill-rule:nonzero;fill:rgb(30.980392%,33.333333%,33.72549%);fill-opacity:1;" d="M 110.042969 31.265625 L 112.738281 31.265625 L 112.738281 35.386719 C 111.894531 35.839844 110.820312 36.066406 109.75 36.007812 C 107.273438 35.804688 104.875 34.351562 104.875 30.621094 C 104.875 27.277344 106.828125 25.144531 110.234375 25.144531 C 110.234375 25.144531 112.472656 25.160156 114.292969 26.394531 L 114.292969 24.613281 C 112.964844 24.023438 111.5625 23.605469 110.382812 23.605469 C 108.136719 23.605469 106.429688 24.171875 105.101562 25.4375 C 103.773438 26.714844 103.140625 28.625 103.140625 30.570312 C 103.140625 34.375 105.214844 37.570312 109.808594 37.570312 C 111.523438 37.570312 113.199219 37.136719 114.292969 36.402344 L 114.375 36.34375 L 114.375 29.835938 L 110.050781 29.835938 L 110.050781 31.273438 Z M 110.042969 31.265625 "/>
<path style=" stroke:none;fill-rule:nonzero;fill:rgb(30.980392%,33.333333%,33.72549%);fill-opacity:1;" d="M 77.558594 34.347656 L 69.363281 23.761719 L 67.757812 23.761719 L 67.757812 37.375 L 69.320312 37.375 L 69.320312 26.492188 L 77.703125 37.375 L 79.128906 37.375 L 79.128906 23.761719 L 77.558594 23.761719 Z M 77.558594 34.347656 "/>
<path style=" stroke:none;fill-rule:nonzero;fill:rgb(30.980392%,33.333333%,33.72549%);fill-opacity:1;" d="M 148.140625 23.664062 L 146.558594 23.664062 L 146.558594 37.375 L 148.140625 37.375 Z M 148.140625 23.664062 "/>
<path style=" stroke:none;fill-rule:nonzero;fill:rgb(30.980392%,33.333333%,33.72549%);fill-opacity:1;" d="M 162.214844 31.503906 L 162.234375 31.429688 L 160.984375 31.03125 L 160.96875 31.121094 C 160.785156 32.085938 160.507812 32.925781 160.136719 33.613281 L 156.597656 29.933594 C 157.148438 29.605469 157.617188 29.304688 157.988281 29.019531 C 158.53125 28.609375 158.929688 28.175781 159.171875 27.742188 C 159.414062 27.300781 159.535156 26.828125 159.535156 26.328125 C 159.535156 25.746094 159.398438 25.242188 159.132812 24.832031 C 158.863281 24.421875 158.484375 24.105469 158.003906 23.882812 C 157.527344 23.664062 156.96875 23.554688 156.328125 23.554688 C 155.632812 23.554688 155.007812 23.679688 154.492188 23.925781 C 153.964844 24.167969 153.558594 24.519531 153.277344 24.960938 C 152.992188 25.40625 152.855469 25.9375 152.855469 26.523438 C 152.855469 26.890625 152.910156 27.242188 153.007812 27.578125 C 153.113281 27.90625 153.300781 28.257812 153.566406 28.617188 C 153.800781 28.9375 154.109375 29.304688 154.492188 29.722656 C 153.816406 30.121094 153.25 30.507812 152.804688 30.867188 C 152.230469 31.339844 151.808594 31.832031 151.550781 32.320312 C 151.292969 32.8125 151.152344 33.367188 151.152344 33.957031 C 151.152344 34.660156 151.355469 35.28125 151.753906 35.804688 C 152.148438 36.328125 152.699219 36.746094 153.390625 37.039062 C 154.070312 37.332031 154.863281 37.480469 155.738281 37.480469 C 156.847656 37.480469 157.851562 37.253906 158.726562 36.792969 C 159.277344 36.507812 159.777344 36.132812 160.214844 35.675781 L 162.023438 37.554688 L 162.085938 37.621094 L 162.976562 36.589844 L 161.058594 34.59375 C 161.585938 33.746094 161.972656 32.707031 162.199219 31.496094 Z M 154.402344 27.261719 C 154.320312 27.023438 154.28125 26.777344 154.28125 26.507812 C 154.28125 25.984375 154.449219 25.566406 154.804688 25.242188 C 155.164062 24.914062 155.671875 24.75 156.328125 24.75 C 156.929688 24.75 157.398438 24.898438 157.722656 25.191406 C 158.046875 25.484375 158.207031 25.871094 158.207031 26.351562 C 158.207031 26.6875 158.117188 27 157.933594 27.285156 C 157.746094 27.578125 157.429688 27.890625 156.984375 28.210938 C 156.660156 28.445312 156.238281 28.714844 155.722656 29.019531 C 155.363281 28.632812 155.074219 28.296875 154.871094 28.039062 C 154.644531 27.75 154.480469 27.480469 154.402344 27.253906 Z M 158.191406 35.632812 C 157.503906 36 156.710938 36.1875 155.835938 36.1875 C 155.210938 36.1875 154.644531 36.089844 154.167969 35.894531 C 153.6875 35.699219 153.316406 35.421875 153.046875 35.070312 C 152.789062 34.71875 152.652344 34.300781 152.652344 33.835938 C 152.652344 33.425781 152.75 33.042969 152.925781 32.707031 C 153.113281 32.363281 153.4375 32.003906 153.890625 31.636719 C 154.261719 31.332031 154.757812 31.003906 155.363281 30.644531 L 159.324219 34.757812 C 158.984375 35.125 158.605469 35.421875 158.183594 35.640625 Z M 158.191406 35.632812 "/>
<path style=" stroke:none;fill-rule:nonzero;fill:rgb(30.980392%,33.333333%,33.72549%);fill-opacity:1;" d="M 175.175781 34.449219 C 174.632812 35.003906 174.03125 35.414062 173.382812 35.664062 C 172.734375 35.917969 172.023438 36.050781 171.261719 36.050781 C 170.46875 36.050781 169.722656 35.910156 169.050781 35.640625 C 168.371094 35.371094 167.773438 34.980469 167.277344 34.480469 C 166.777344 33.980469 166.378906 33.394531 166.09375 32.722656 C 165.8125 32.058594 165.675781 31.316406 165.675781 30.515625 C 165.675781 29.714844 165.820312 28.976562 166.09375 28.308594 C 166.378906 27.644531 166.777344 27.046875 167.277344 26.550781 C 167.78125 26.050781 168.378906 25.65625 169.050781 25.386719 C 169.730469 25.117188 170.476562 24.980469 171.261719 24.980469 C 172.046875 24.980469 172.726562 25.101562 173.382812 25.355469 C 174.03125 25.601562 174.640625 26.007812 175.175781 26.566406 L 175.230469 26.621094 L 176.242188 25.601562 L 176.195312 25.542969 C 175.601562 24.882812 174.859375 24.375 174 24.039062 C 173.140625 23.710938 172.210938 23.539062 171.230469 23.539062 C 170.25 23.539062 169.261719 23.710938 168.394531 24.054688 C 167.535156 24.398438 166.777344 24.890625 166.136719 25.519531 C 165.496094 26.140625 164.992188 26.882812 164.636719 27.734375 C 164.28125 28.578125 164.101562 29.515625 164.101562 30.515625 C 164.101562 31.511719 164.28125 32.453125 164.636719 33.292969 C 164.992188 34.136719 165.488281 34.890625 166.121094 35.511719 C 166.75 36.132812 167.503906 36.621094 168.371094 36.972656 C 169.238281 37.324219 170.183594 37.488281 171.199219 37.488281 C 172.210938 37.488281 173.125 37.316406 173.992188 36.980469 C 174.859375 36.648438 175.59375 36.132812 176.1875 35.46875 L 176.234375 35.414062 L 175.222656 34.390625 L 175.167969 34.449219 Z M 175.175781 34.449219 "/>
</g>
</svg>
