<?xml version="1.0" encoding="UTF-8"?>
<svg xmlns="http://www.w3.org/2000/svg" xmlns:xlink="http://www.w3.org/1999/xlink" width="px" height="60px" viewBox="0 0 123 60" version="1.1">
<defs>
<clipPath id="clip1">
  <path d="M 46 16.875 L 73 16.875 L 73 43 L 46 43 Z M 46 16.875 "/>
</clipPath>
<clipPath id="clip2">
  <path d="M 99 17 L 119.273438 17 L 119.273438 43 L 99 43 Z M 99 17 "/>
</clipPath>
<clipPath id="clip3">
  <path d="M 3.726562 16.875 L 25 16.875 L 25 43.125 L 3.726562 43.125 Z M 3.726562 16.875 "/>
</clipPath>
</defs>
<g id="surface1">
<g clip-path="url(#clip1)" clip-rule="nonzero">
<path style=" stroke:none;fill-rule:nonzero;fill:rgb(100%,21.960784%,0%);fill-opacity:1;" d="M 59.855469 42.921875 C 52.808594 43.265625 46.691406 37.683594 46.328125 30.574219 C 45.957031 23.304688 51.667969 17.074219 59.132812 16.878906 C 66.148438 16.695312 72.035156 22.320312 72.347656 29.378906 C 72.671875 36.632812 66.84375 42.796875 59.855469 42.921875 Z M 59.382812 36.464844 C 62.890625 36.5 65.890625 33.726562 65.902344 29.980469 C 65.910156 26.105469 63.101562 23.441406 59.402344 23.390625 C 55.753906 23.339844 52.8125 26.003906 52.796875 29.964844 C 52.785156 33.675781 55.644531 36.464844 59.382812 36.464844 Z M 59.382812 36.464844 "/>
</g>
<g clip-path="url(#clip2)" clip-rule="nonzero">
<path style=" stroke:none;fill-rule:nonzero;fill:rgb(100%,21.960784%,0%);fill-opacity:1;" d="M 99.722656 29.910156 C 99.722656 27.417969 99.644531 24.921875 99.75 22.433594 C 99.820312 20.703125 100.488281 19.105469 102.054688 18.222656 C 103.011719 17.679688 104.167969 17.273438 105.253906 17.226562 C 108.613281 17.09375 111.984375 17.097656 115.347656 17.1875 C 116.785156 17.226562 118.125 17.753906 118.878906 19.183594 C 119.882812 21.082031 118.886719 23.167969 116.765625 23.453125 C 115.964844 23.5625 115.136719 23.421875 114.316406 23.425781 C 111.863281 23.433594 109.414062 23.464844 106.960938 23.476562 C 106.125 23.480469 105.839844 23.839844 105.855469 24.699219 C 105.894531 27.03125 105.855469 27.03125 108.191406 27.027344 C 110.113281 27.027344 112.035156 27.019531 113.953125 27.035156 C 115.761719 27.046875 117.144531 28.316406 117.15625 29.945312 C 117.171875 31.480469 115.644531 32.851562 113.933594 32.851562 C 111.539062 32.851562 109.144531 32.875 106.75 32.847656 C 106.113281 32.839844 105.859375 32.996094 105.871094 33.683594 C 105.925781 36.945312 105.472656 36.214844 108.40625 36.453125 C 110.46875 36.617188 112.558594 36.425781 114.636719 36.402344 C 115.453125 36.390625 116.292969 36.28125 117.078125 36.441406 C 118.246094 36.679688 119.023438 37.441406 119.222656 38.679688 C 119.433594 40.007812 118.941406 41.132812 117.847656 41.769531 C 116.953125 42.289062 115.859375 42.714844 114.847656 42.730469 C 111.421875 42.78125 107.988281 42.757812 104.574219 42.519531 C 101.675781 42.316406 99.839844 40.226562 99.734375 37.292969 C 99.648438 34.835938 99.714844 32.371094 99.714844 29.910156 C 99.71875 29.910156 99.71875 29.910156 99.722656 29.910156 Z M 99.722656 29.910156 "/>
</g>
<g clip-path="url(#clip3)" clip-rule="nonzero">
<path style=" stroke:none;fill-rule:nonzero;fill:rgb(100%,21.960784%,0%);fill-opacity:1;" d="M 13.898438 43.125 C 11.035156 42.945312 8.429688 42.613281 6.050781 41.273438 C 4.25 40.257812 3.402344 38.679688 3.839844 37.011719 C 4.25 35.457031 5.75 34.585938 7.28125 35.074219 C 8.65625 35.507812 9.976562 36.195312 11.378906 36.445312 C 12.933594 36.722656 14.554688 36.710938 16.140625 36.648438 C 16.585938 36.628906 17.203125 36.078125 17.402344 35.621094 C 17.683594 34.976562 17.242188 34.34375 16.609375 34.097656 C 14.828125 33.40625 13.019531 32.78125 11.210938 32.148438 C 8.863281 31.324219 6.582031 30.335938 5.25 28.089844 C 3.328125 24.851562 4 19.84375 8.820312 17.929688 C 12.582031 16.4375 16.410156 16.667969 20.179688 17.972656 C 21.296875 18.355469 22.242188 19.058594 22.585938 20.316406 C 22.894531 21.425781 22.78125 22.425781 21.933594 23.285156 C 21.066406 24.167969 20.046875 24.140625 18.953125 23.886719 C 17.609375 23.578125 16.265625 23.179688 14.902344 23.039062 C 13.894531 22.933594 12.832031 23.074219 11.832031 23.296875 C 10.820312 23.519531 10.53125 24.480469 11.3125 25.121094 C 12.035156 25.714844 12.972656 26.121094 13.878906 26.398438 C 16.304688 27.148438 18.851562 27.535156 21.035156 28.957031 C 23.9375 30.847656 25.070312 34.464844 23.769531 37.6875 C 22.5 40.839844 19.90625 42.191406 16.789062 42.785156 C 15.769531 42.980469 14.726562 43.03125 13.898438 43.125 Z M 13.898438 43.125 "/>
</g>
<path style=" stroke:none;fill-rule:nonzero;fill:rgb(100%,21.960784%,0%);fill-opacity:1;" d="M 85.386719 35.328125 C 86.085938 33.648438 86.75 32.109375 87.371094 30.546875 C 88.742188 27.109375 89.492188 23.503906 90.1875 19.878906 C 90.523438 18.144531 91.804688 17.109375 93.445312 17.222656 C 95.109375 17.339844 96.769531 18.875 96.632812 20.511719 C 96.4375 22.855469 96.148438 25.21875 95.566406 27.488281 C 94.582031 31.3125 93.042969 34.945312 90.972656 38.324219 C 90.414062 39.234375 89.789062 40.117188 89.101562 40.9375 C 86.894531 43.582031 83.539062 43.527344 81.410156 40.828125 C 78.457031 37.085938 76.519531 32.824219 75.3125 28.246094 C 74.691406 25.886719 74.242188 23.457031 73.953125 21.03125 C 73.734375 19.164062 74.929688 17.757812 76.65625 17.339844 C 78.339844 16.933594 79.878906 17.792969 80.300781 19.488281 C 80.726562 21.195312 80.902344 22.976562 81.4375 24.648438 C 82.539062 28.085938 83.804688 31.472656 85.011719 34.875 C 85.050781 34.980469 85.160156 35.058594 85.386719 35.328125 Z M 85.386719 35.328125 "/>
<path style=" stroke:none;fill-rule:nonzero;fill:rgb(100%,21.960784%,0%);fill-opacity:1;" d="M 32.382812 32.242188 C 32.382812 29.84375 32.390625 27.445312 32.378906 25.046875 C 32.375 23.613281 32.363281 23.613281 30.898438 23.726562 C 29.832031 23.808594 28.765625 23.957031 27.699219 23.972656 C 26.617188 23.984375 25.640625 23.601562 25.035156 22.636719 C 23.820312 20.710938 24.992188 18.207031 27.289062 17.804688 C 31.28125 17.105469 35.308594 17.027344 39.335938 17.285156 C 41.027344 17.394531 42.730469 17.53125 44.386719 17.863281 C 46.746094 18.335938 47.722656 21.082031 46.261719 22.875 C 45.628906 23.652344 44.757812 24.023438 43.773438 23.984375 C 42.484375 23.933594 41.199219 23.808594 39.914062 23.675781 C 39.285156 23.613281 39.101562 23.816406 39.105469 24.457031 C 39.128906 29.40625 39.058594 34.363281 39.132812 39.3125 C 39.175781 42.414062 36.765625 43.335938 34.285156 42.667969 C 33.039062 42.332031 32.378906 41.183594 32.371094 39.71875 C 32.363281 37.226562 32.367188 34.734375 32.367188 32.242188 Z M 32.382812 32.242188 "/>
</g>
</svg>
