<?xml version="1.0" encoding="UTF-8"?>
<svg xmlns="http://www.w3.org/2000/svg" xmlns:xlink="http://www.w3.org/1999/xlink" width="px" height="60px" viewBox="0 0 151 60" version="1.1">
<g id="surface1">
<path style=" stroke:none;fill-rule:nonzero;fill:rgb(0%,0%,0%);fill-opacity:1;" d="M 58.273438 21.367188 C 58.105469 21.351562 57.933594 21.328125 57.777344 21.308594 C 57.617188 21.292969 57.320312 21.277344 56.898438 21.277344 C 56.34375 21.277344 55.796875 21.378906 55.269531 21.585938 C 54.738281 21.796875 54.25 22.070312 53.8125 22.414062 C 53.375 22.757812 53.003906 23.132812 52.691406 23.554688 C 52.382812 23.972656 52.179688 24.390625 52.070312 24.832031 L 52.003906 24.832031 L 52.003906 21.71875 L 48.578125 21.71875 L 48.578125 37.828125 L 52.222656 37.828125 L 52.222656 30.164062 C 52.222656 29.269531 52.339844 28.480469 52.574219 27.796875 C 52.808594 27.109375 53.128906 26.53125 53.535156 26.0625 C 53.9375 25.59375 54.410156 25.242188 54.957031 25 C 55.503906 24.757812 56.085938 24.640625 56.699219 24.640625 C 56.949219 24.640625 57.210938 24.65625 57.480469 24.691406 C 57.75 24.722656 58.011719 24.757812 58.265625 24.800781 L 58.265625 21.367188 Z M 58.273438 21.367188 "/>
<path style=" stroke:none;fill-rule:nonzero;fill:rgb(0%,0%,0%);fill-opacity:1;" d="M 72.34375 24.171875 C 71.660156 23.300781 70.804688 22.597656 69.769531 22.070312 C 68.734375 21.542969 67.5625 21.277344 66.265625 21.277344 C 64.972656 21.277344 63.917969 21.503906 62.941406 21.964844 C 61.957031 22.421875 61.125 23.042969 60.433594 23.820312 C 59.746094 24.597656 59.207031 25.503906 58.835938 26.53125 C 58.464844 27.5625 58.273438 28.648438 58.273438 29.785156 C 58.273438 31.035156 58.449219 32.179688 58.800781 33.21875 C 59.15625 34.253906 59.675781 35.152344 60.367188 35.894531 C 61.058594 36.640625 61.90625 37.226562 62.910156 37.636719 C 63.910156 38.054688 65.0625 38.265625 66.359375 38.265625 C 67.25 38.265625 68.109375 38.148438 68.933594 37.902344 C 69.757812 37.660156 70.5 37.308594 71.15625 36.839844 C 71.8125 36.371094 72.386719 35.796875 72.847656 35.109375 C 73.320312 34.421875 73.648438 33.644531 73.839844 32.773438 L 70.390625 32.773438 C 70.070312 33.667969 69.582031 34.339844 68.933594 34.78125 C 68.285156 35.226562 67.429688 35.453125 66.359375 35.453125 C 65.59375 35.453125 64.929688 35.316406 64.375 35.058594 C 63.816406 34.800781 63.363281 34.449219 63 34.011719 C 62.640625 33.578125 62.371094 33.066406 62.183594 32.480469 C 62 31.902344 61.914062 31.292969 61.914062 30.675781 L 74.070312 30.675781 C 74.21875 29.46875 74.136719 28.296875 73.824219 27.167969 C 73.511719 26.039062 73.015625 25.035156 72.335938 24.164062 Z M 61.914062 28.347656 C 61.933594 27.746094 62.058594 27.183594 62.285156 26.664062 C 62.511719 26.148438 62.808594 25.695312 63.179688 25.308594 C 63.546875 24.925781 63.996094 24.625 64.523438 24.40625 C 65.046875 24.1875 65.628906 24.078125 66.265625 24.078125 C 66.90625 24.078125 67.445312 24.195312 67.949219 24.441406 C 68.445312 24.683594 68.875 24.992188 69.230469 25.378906 C 69.582031 25.761719 69.859375 26.214844 70.0625 26.734375 C 70.265625 27.25 70.390625 27.796875 70.433594 28.355469 L 61.925781 28.355469 Z M 61.914062 28.347656 "/>
<path style=" stroke:none;fill-rule:nonzero;fill:rgb(0%,0%,0%);fill-opacity:1;" d="M 91.371094 35.460938 C 91.027344 35.460938 90.800781 35.367188 90.683594 35.183594 C 90.5625 35 90.503906 34.683594 90.503906 34.246094 L 90.503906 25.953125 C 90.503906 25.101562 90.3125 24.382812 89.933594 23.789062 C 89.546875 23.191406 89.039062 22.707031 88.417969 22.339844 C 87.785156 21.964844 87.078125 21.695312 86.289062 21.527344 C 85.496094 21.359375 84.699219 21.277344 83.890625 21.277344 C 82.972656 21.277344 82.082031 21.359375 81.207031 21.527344 C 80.328125 21.695312 79.546875 21.988281 78.855469 22.398438 C 78.167969 22.816406 77.59375 23.359375 77.148438 24.046875 C 76.703125 24.734375 76.441406 25.59375 76.382812 26.632812 L 80.027344 26.632812 C 80.109375 25.761719 80.480469 25.117188 81.144531 24.699219 C 81.804688 24.28125 82.652344 24.070312 83.671875 24.070312 C 84.03125 24.070312 84.421875 24.097656 84.824219 24.148438 C 85.226562 24.195312 85.597656 24.304688 85.925781 24.457031 C 86.253906 24.617188 86.53125 24.832031 86.757812 25.125 C 86.988281 25.417969 87.097656 25.789062 87.097656 26.246094 C 87.097656 26.765625 86.960938 27.160156 86.691406 27.417969 C 86.421875 27.679688 86.0625 27.871094 85.605469 27.996094 C 85.152344 28.121094 84.621094 28.207031 84.023438 28.265625 C 83.425781 28.3125 82.796875 28.40625 82.140625 28.53125 C 81.375 28.617188 80.609375 28.734375 79.851562 28.890625 C 79.09375 29.050781 78.410156 29.300781 77.804688 29.652344 C 77.199219 30.003906 76.703125 30.5 76.332031 31.117188 C 75.960938 31.746094 75.769531 32.546875 75.769531 33.550781 C 75.769531 34.339844 75.921875 35.035156 76.230469 35.628906 C 76.542969 36.222656 76.957031 36.707031 77.476562 37.09375 C 78 37.476562 78.605469 37.769531 79.285156 37.960938 C 79.96875 38.164062 80.683594 38.253906 81.433594 38.253906 C 82.417969 38.253906 83.433594 38.097656 84.488281 37.785156 C 85.539062 37.476562 86.433594 36.976562 87.15625 36.289062 C 87.308594 37.015625 87.625 37.527344 88.113281 37.820312 C 88.601562 38.113281 89.226562 38.253906 89.964844 38.253906 C 90.117188 38.253906 90.292969 38.246094 90.511719 38.222656 C 90.722656 38.195312 90.941406 38.171875 91.152344 38.128906 C 91.363281 38.089844 91.574219 38.039062 91.777344 37.988281 C 91.976562 37.9375 92.144531 37.886719 92.273438 37.84375 L 92.273438 35.386719 C 92.078125 35.425781 91.910156 35.445312 91.757812 35.445312 L 91.371094 35.445312 Z M 86.859375 32.40625 C 86.859375 32.96875 86.71875 33.445312 86.449219 33.820312 C 86.171875 34.207031 85.824219 34.523438 85.40625 34.773438 C 84.992188 35.023438 84.546875 35.199219 84.074219 35.300781 C 83.605469 35.402344 83.167969 35.460938 82.761719 35.460938 C 82.441406 35.460938 82.089844 35.425781 81.695312 35.367188 C 81.296875 35.308594 80.9375 35.199219 80.609375 35.042969 C 80.28125 34.882812 79.992188 34.671875 79.757812 34.40625 C 79.523438 34.136719 79.402344 33.804688 79.402344 33.410156 C 79.402344 32.949219 79.488281 32.566406 79.648438 32.238281 C 79.808594 31.914062 80.027344 31.660156 80.304688 31.460938 C 80.582031 31.261719 80.902344 31.109375 81.265625 30.992188 C 81.625 30.875 81.996094 30.792969 82.382812 30.722656 C 83.191406 30.582031 84 30.472656 84.816406 30.398438 C 85.625 30.324219 86.304688 30.113281 86.859375 29.761719 L 86.859375 32.414062 Z M 86.859375 32.40625 "/>
<path style=" stroke:none;fill-rule:nonzero;fill:rgb(0%,0%,0%);fill-opacity:1;" d="M 97.996094 15.578125 L 94.351562 15.578125 L 94.351562 37.828125 L 97.996094 37.828125 Z M 97.996094 15.578125 "/>
<path style=" stroke:none;fill-rule:nonzero;fill:rgb(0%,0%,0%);fill-opacity:1;" d="M 106.503906 16.882812 L 102.859375 16.882812 L 102.859375 21.710938 L 100.109375 21.710938 L 100.109375 24.363281 L 102.859375 24.363281 L 102.859375 33.871094 C 102.886719 34.53125 102.953125 35.125 103.070312 35.644531 C 103.1875 36.160156 103.417969 36.597656 103.746094 36.933594 C 104.074219 37.273438 104.535156 37.535156 105.117188 37.710938 C 105.707031 37.886719 106.480469 37.976562 107.429688 37.976562 C 107.835938 37.976562 108.230469 37.953125 108.617188 37.910156 C 109.003906 37.867188 109.390625 37.828125 109.804688 37.785156 L 109.804688 35.039062 C 109.550781 35.097656 109.289062 35.140625 109.039062 35.148438 C 108.785156 35.15625 108.523438 35.167969 108.273438 35.167969 C 107.867188 35.167969 107.546875 35.117188 107.3125 35.023438 C 107.078125 34.933594 106.898438 34.789062 106.78125 34.605469 C 106.664062 34.421875 106.589844 34.1875 106.554688 33.917969 C 106.523438 33.652344 106.503906 33.324219 106.503906 32.957031 L 106.503906 24.355469 L 109.796875 24.355469 L 109.796875 21.703125 L 106.503906 21.703125 Z M 106.503906 16.882812 "/>
<path style=" stroke:none;fill-rule:nonzero;fill:rgb(0%,0%,0%);fill-opacity:1;" d="M 120.542969 21.277344 C 119.988281 21.277344 119.441406 21.378906 118.910156 21.585938 C 118.378906 21.796875 117.890625 22.070312 117.453125 22.414062 C 117.015625 22.757812 116.644531 23.132812 116.335938 23.554688 C 116.023438 23.972656 115.820312 24.390625 115.710938 24.832031 L 115.644531 24.832031 L 115.644531 21.71875 L 112.21875 21.71875 L 112.21875 37.828125 L 115.863281 37.828125 L 115.863281 30.164062 C 115.863281 29.269531 115.980469 28.480469 116.214844 27.796875 C 116.453125 27.109375 116.773438 26.53125 117.175781 26.0625 C 117.578125 25.59375 118.050781 25.242188 118.597656 25 C 119.144531 24.757812 119.726562 24.640625 120.339844 24.640625 C 120.59375 24.640625 120.851562 24.65625 121.121094 24.691406 C 121.390625 24.722656 121.652344 24.757812 121.90625 24.800781 L 121.90625 21.367188 C 121.738281 21.351562 121.570312 21.328125 121.410156 21.308594 C 121.25 21.292969 120.953125 21.277344 120.535156 21.277344 Z M 120.542969 21.277344 "/>
<path style=" stroke:none;fill-rule:nonzero;fill:rgb(0%,0%,0%);fill-opacity:1;" d="M 127.03125 15.578125 L 123.386719 15.578125 L 123.386719 18.945312 L 127.03125 18.945312 Z M 127.03125 15.578125 "/>
<path style=" stroke:none;fill-rule:nonzero;fill:rgb(0%,0%,0%);fill-opacity:1;" d="M 127.03125 21.710938 L 123.386719 21.710938 L 123.386719 37.820312 L 127.03125 37.820312 Z M 127.03125 21.710938 "/>
<path style=" stroke:none;fill-rule:nonzero;fill:rgb(0%,0%,0%);fill-opacity:1;" d="M 146.800781 26.515625 C 146.480469 25.476562 146 24.566406 145.359375 23.789062 C 144.722656 23.007812 143.914062 22.398438 142.945312 21.945312 C 141.976562 21.503906 140.839844 21.277344 139.535156 21.277344 C 138.46875 21.277344 137.484375 21.476562 136.566406 21.886719 C 135.648438 22.289062 134.933594 22.957031 134.421875 23.894531 L 134.351562 23.894531 L 134.351562 21.710938 L 130.902344 21.710938 L 130.902344 43.777344 L 134.546875 43.777344 L 134.546875 35.738281 L 134.613281 35.738281 C 134.890625 36.171875 135.238281 36.546875 135.65625 36.875 C 136.070312 37.191406 136.523438 37.460938 137.011719 37.667969 C 137.5 37.878906 138.011719 38.03125 138.542969 38.121094 C 139.074219 38.214844 139.613281 38.265625 140.144531 38.265625 C 141.355469 38.265625 142.414062 38.03125 143.308594 37.5625 C 144.199219 37.09375 144.941406 36.472656 145.527344 35.695312 C 146.117188 34.917969 146.554688 34.019531 146.84375 33 C 147.128906 31.980469 147.269531 30.933594 147.269531 29.855469 C 147.269531 28.664062 147.109375 27.5625 146.792969 26.515625 Z M 143.390625 31.863281 C 143.230469 32.539062 142.960938 33.140625 142.59375 33.667969 C 142.222656 34.195312 141.742188 34.632812 141.167969 34.964844 C 140.597656 35.300781 139.890625 35.46875 139.058594 35.46875 C 138.308594 35.46875 137.652344 35.328125 137.085938 35.035156 C 136.523438 34.742188 136.035156 34.347656 135.632812 33.84375 C 135.226562 33.34375 134.925781 32.75 134.722656 32.054688 C 134.519531 31.359375 134.421875 30.605469 134.421875 29.796875 C 134.421875 28.070312 134.808594 26.691406 135.589844 25.652344 C 136.363281 24.617188 137.527344 24.097656 139.058594 24.097656 C 139.804688 24.097656 140.460938 24.253906 141.042969 24.582031 C 141.617188 24.910156 142.09375 25.328125 142.484375 25.863281 C 142.871094 26.390625 143.15625 27 143.347656 27.6875 C 143.542969 28.371094 143.636719 29.074219 143.636719 29.804688 C 143.636719 30.53125 143.550781 31.199219 143.390625 31.878906 Z M 143.390625 31.863281 "/>
<path style=" stroke:none;fill-rule:nonzero;fill:rgb(0%,0%,0%);fill-opacity:1;" d="M 45.007812 21.8125 L 41.828125 21.8125 C 41.828125 22.105469 41.886719 27.519531 41.804688 29.96875 C 41.761719 31.25 41.550781 32.546875 41.246094 33.792969 C 40.996094 34.855469 40.304688 35.726562 39.226562 36.09375 C 36.789062 36.925781 35.046875 36.304688 34.65625 33.710938 C 34.617188 33.402344 34.558594 33.089844 34.558594 32.78125 C 34.539062 29.417969 34.515625 22.128906 34.515625 21.835938 L 31.25 21.835938 C 31.25 22.164062 31.316406 28.222656 31.199219 30.972656 C 31.148438 32.222656 30.828125 33.484375 30.449219 34.691406 C 30.273438 35.25 29.769531 35.8125 29.253906 36.152344 C 28.335938 36.773438 27.402344 36.347656 27.167969 35.265625 C 27.050781 34.730469 27.015625 34.171875 27.007812 33.628906 C 27 28.75 27.007812 23.871094 27.007812 18.992188 C 27.007812 18.824219 27 18.683594 26.992188 18.53125 C 26.992188 18.515625 26.992188 18.496094 26.992188 18.472656 C 26.992188 18.429688 26.984375 18.390625 26.984375 18.347656 C 26.984375 18.179688 26.964844 18.011719 26.933594 17.84375 C 26.933594 17.8125 26.921875 17.777344 26.914062 17.746094 C 26.679688 16.625 25.898438 15.703125 24.863281 15.269531 C 24.863281 15.269531 24.851562 15.269531 24.84375 15.269531 C 24.433594 15.09375 23.976562 15 23.5 15 C 22.816406 15 22.175781 15.199219 21.636719 15.542969 C 21.597656 15.570312 21.554688 15.59375 21.519531 15.621094 C 21.429688 15.6875 21.34375 15.761719 21.257812 15.828125 C 21.175781 15.902344 21.082031 15.96875 21.007812 16.046875 C 20.214844 16.824219 19.769531 17.886719 19.457031 19.042969 C 17.976562 24.632812 16.53125 30.222656 15.046875 35.8125 C 14.988281 36.035156 14.183594 36.046875 14.113281 35.820312 C 13.121094 32.230469 12.136719 28.640625 11.175781 25.050781 C 10.933594 24.128906 10.679688 23.207031 10.4375 22.28125 C 10.191406 21.351562 10 20.421875 10.191406 19.476562 C 10.371094 18.589844 11 18.046875 11.882812 18.046875 C 12.707031 18.046875 13.222656 18.390625 13.535156 19.109375 C 13.945312 20.0625 13.886719 21.058594 13.523438 21.996094 C 13.121094 23.035156 12.582031 24.027344 12.078125 25.101562 C 12.078125 25.101562 12.078125 25.101562 12.078125 25.109375 C 12.84375 25.519531 13.675781 25.953125 14.542969 26.414062 C 15.46875 24.832031 16.34375 23.265625 16.738281 21.527344 C 16.859375 21.023438 16.933594 20.507812 16.949219 19.980469 C 16.910156 17.503906 15.074219 15.460938 12.675781 15.082031 C 12.414062 15.042969 12.152344 15.015625 11.875 15.015625 C 11.554688 15.015625 11.246094 15.050781 10.941406 15.109375 C 8.695312 15.519531 6.976562 17.402344 6.808594 19.710938 C 6.808594 19.902344 6.792969 20.097656 6.808594 20.289062 C 6.808594 20.3125 6.808594 20.347656 6.808594 20.371094 C 6.816406 20.574219 6.851562 20.78125 6.875 20.984375 C 6.9375 21.367188 7.003906 21.761719 7.113281 22.136719 C 8.609375 27.453125 10.125 32.757812 11.613281 38.070312 C 11.75 38.539062 11.976562 38.65625 12.429688 38.648438 C 13.785156 38.621094 15.148438 38.597656 16.503906 38.648438 C 17.210938 38.679688 17.488281 38.457031 17.675781 37.769531 C 19.128906 32.398438 20.621094 27.042969 22.109375 21.675781 C 22.371094 20.722656 22.640625 19.777344 22.902344 18.824219 C 22.960938 18.605469 23.050781 18.1875 23.246094 18.230469 C 23.429688 18.28125 23.390625 18.847656 23.390625 19.152344 C 23.390625 20.078125 23.390625 21.015625 23.390625 21.945312 C 23.390625 25.871094 23.390625 29.785156 23.390625 33.710938 C 23.390625 34.355469 23.421875 35.007812 23.5 35.652344 C 23.71875 37.460938 24.742188 38.730469 26.175781 38.933594 C 27.816406 39.167969 29.273438 38.738281 30.347656 37.433594 C 30.820312 36.855469 31.191406 36.195312 31.601562 35.570312 C 31.839844 36.011719 32.03125 36.480469 32.316406 36.890625 C 32.605469 37.300781 32.964844 37.660156 33.253906 37.988281 C 32.964844 38.304688 32.664062 38.648438 32.367188 38.992188 C 31.148438 40.386719 30.996094 41.988281 32.082031 43.234375 C 32.519531 43.742188 33.144531 44.164062 33.765625 44.4375 C 35.347656 45.148438 37.03125 45.082031 38.699219 44.796875 C 40.5 44.488281 42.148438 43.820312 43.359375 42.378906 C 44.632812 40.867188 45.019531 39.058594 45.019531 37.132812 C 45.019531 32.230469 44.984375 22.019531 44.976562 21.820312 Z M 41.078125 40.078125 C 40.078125 42.027344 36.945312 43.058594 34.953125 42.113281 C 33.691406 41.519531 33.394531 39.828125 34.386719 38.839844 C 34.480469 38.75 34.691406 38.679688 34.816406 38.714844 C 37.738281 39.460938 40.050781 38.65625 41.753906 36.09375 C 41.820312 37.484375 41.71875 38.832031 41.078125 40.078125 Z M 41.078125 40.078125 "/>
<path style=" stroke:none;fill-rule:nonzero;fill:rgb(0%,0%,0%);fill-opacity:1;" d="M 7.835938 36.824219 C 8.367188 35.535156 8.886719 34.230469 9.425781 32.898438 C 8.484375 32.496094 7.582031 32.121094 6.648438 31.71875 C 6.523438 32.019531 3.726562 38.605469 3.726562 38.65625 L 7.078125 38.65625 L 7.238281 38.269531 C 7.273438 38.179688 7.3125 38.085938 7.347656 38.003906 Z M 7.835938 36.824219 "/>
</g>
</svg>
