<?xml version="1.0" encoding="UTF-8"?>
<svg xmlns="http://www.w3.org/2000/svg" xmlns:xlink="http://www.w3.org/1999/xlink" width="px" height="60px" viewBox="0 0 106 60" version="1.1">
<g id="surface1">
<path style=" stroke:none;fill-rule:nonzero;fill:rgb(14.509804%,8.235294%,6.666667%);fill-opacity:1;" d="M 75.503906 39.488281 L 75.503906 38.71875 C 75.503906 38.71875 70.894531 38.71875 69.699219 38.71875 L 69.453125 38.71875 C 69.027344 38.71875 68.332031 38.765625 67.96875 39.28125 L 67.96875 34.855469 L 73.058594 34.855469 C 74.277344 34.855469 75.125 34.347656 75.125 33.394531 L 75.125 32.625 L 69.515625 32.625 C 69.074219 32.625 68.332031 32.671875 67.96875 33.1875 C 67.96875 32.800781 67.96875 28.855469 67.96875 28.855469 L 73.4375 28.855469 C 74.65625 28.855469 75.503906 28.253906 75.503906 27.308594 L 75.503906 26.632812 L 66.625 26.632812 C 65.300781 26.632812 64.566406 27.15625 64.558594 28.140625 L 64.558594 40.929688 L 73.464844 40.929688 C 74.675781 40.929688 75.515625 40.414062 75.515625 39.476562 "/>
<path style=" stroke:none;fill-rule:nonzero;fill:rgb(14.509804%,8.235294%,6.666667%);fill-opacity:1;" d="M 86.605469 26.421875 C 85.976562 26.421875 85.359375 26.796875 85.359375 27.601562 L 85.414062 35.925781 L 80.992188 26.421875 L 79.15625 26.421875 C 78.40625 26.421875 77.875 26.859375 77.875 27.695312 L 77.8125 38.9375 L 78.777344 38.9375 C 79.535156 38.9375 80.066406 38.496094 80.066406 37.660156 L 79.933594 28.886719 L 84.394531 38.9375 L 86.191406 38.9375 C 86.941406 38.9375 87.472656 38.496094 87.472656 37.660156 L 87.507812 26.421875 Z M 86.605469 26.421875 "/>
<path style=" stroke:none;fill-rule:nonzero;fill:rgb(14.509804%,8.235294%,6.666667%);fill-opacity:1;" d="M 102.28125 39.460938 L 102.28125 39.441406 L 102.078125 26.421875 L 99.929688 26.421875 C 99.277344 26.421875 98.789062 26.738281 98.605469 27.339844 L 96.175781 36.667969 L 93.417969 26.421875 L 91.414062 26.421875 C 90.589844 26.421875 90.007812 26.925781 90.007812 27.902344 L 89.9375 40.933594 L 90.996094 40.933594 C 91.828125 40.933594 92.402344 40.425781 92.402344 39.453125 L 92.253906 29.5625 L 95.363281 40.933594 L 95.839844 40.933594 C 96.484375 40.933594 96.96875 40.605469 97.15625 39.996094 L 99.957031 29.484375 L 99.808594 40.933594 L 100.867188 40.933594 C 101.6875 40.933594 102.273438 40.425781 102.273438 39.472656 "/>
<path style=" stroke:none;fill-rule:nonzero;fill:rgb(87.058824%,1.960784%,8.235294%);fill-opacity:1;" d="M 43.441406 43.976562 C 42.601562 37.238281 39.472656 31.734375 36.273438 31.703125 C 33.074219 31.703125 28.410156 37.207031 25.679688 43.988281 C 22.957031 50.765625 26.03125 56.25 32.882812 56.25 C 39.773438 56.175781 44.28125 50.726562 43.441406 43.976562 Z M 43.441406 43.976562 "/>
<path style=" stroke:none;fill-rule:nonzero;fill:rgb(14.509804%,8.235294%,6.666667%);fill-opacity:1;" d="M 10.789062 26.023438 C 6.695312 26.023438 3.71875 29.453125 3.71875 33.796875 C 3.71875 38.136719 6.695312 41.457031 10.789062 41.457031 C 13.058594 41.457031 15.214844 40.378906 16.628906 38.492188 C 16.480469 38.332031 16.082031 37.453125 14.765625 37.453125 C 13.527344 37.453125 13.246094 38.773438 10.789062 38.773438 C 8.332031 38.773438 6.386719 36.609375 6.386719 33.796875 C 6.386719 30.984375 8.386719 28.714844 10.789062 28.714844 C 12.980469 28.714844 13.511719 30.101562 14.632812 30.101562 C 15.753906 30.101562 16.425781 29.144531 16.578125 28.996094 C 15.164062 27.109375 13.058594 26.03125 10.789062 26.03125 "/>
<path style=" stroke:none;fill-rule:nonzero;fill:rgb(14.509804%,8.235294%,6.666667%);fill-opacity:1;" d="M 25.210938 26.476562 L 19.464844 26.476562 C 18.492188 26.476562 17.8125 27.09375 17.8125 28.078125 L 17.8125 28.976562 L 20.375 28.976562 C 20.375 28.976562 20.472656 38.15625 20.367188 39.152344 C 20.332031 39.910156 20.023438 41.730469 18.378906 42.546875 C 17.027344 43.21875 17.007812 43.859375 16.949219 44.859375 C 16.964844 44.9375 16.992188 44.972656 17.035156 44.984375 C 17.035156 44.984375 17.042969 44.984375 17.054688 44.984375 C 17.097656 44.972656 18.398438 44.636719 18.582031 44.550781 C 19.800781 44.148438 21.65625 43.257812 22.539062 41.4375 C 22.539062 41.4375 23.371094 40.078125 23.355469 37.171875 L 23.355469 28.988281 L 23.476562 28.988281 C 24.449219 28.988281 25.226562 28.367188 25.226562 27.382812 L 25.226562 26.484375 "/>
<path style=" stroke:none;fill-rule:nonzero;fill:rgb(95.294118%,60.784314%,0%);fill-opacity:1;" d="M 54.855469 21.648438 C 60.828125 24.140625 63.144531 31.058594 59.855469 37.398438 C 56.535156 43.753906 50.515625 43.953125 46.246094 38.140625 C 41.980469 32.324219 39.746094 25.378906 41.253906 22.378906 C 42.800781 19.414062 48.855469 19.152344 54.855469 21.65625 Z M 54.855469 21.648438 "/>
<path style=" stroke:none;fill-rule:nonzero;fill:rgb(0%,47.45098%,76.078431%);fill-opacity:1;" d="M 24.371094 23.671875 C 29.6875 27.523438 35.652344 28.695312 37.765625 26.195312 C 39.894531 23.671875 39.160156 16.3125 36.21875 9.636719 C 33.277344 2.960938 27.367188 1.730469 22.796875 7.140625 C 18.28125 12.542969 19.058594 19.835938 24.371094 23.671875 Z M 24.371094 23.671875 "/>
</g>
</svg>
