<?xml version="1.0" encoding="UTF-8"?>
<svg xmlns="http://www.w3.org/2000/svg" xmlns:xlink="http://www.w3.org/1999/xlink" width="px" height="60px" viewBox="0 0 157 60" version="1.1">
<g id="surface1">
<path style=" stroke:none;fill-rule:nonzero;fill:rgb(100%,78.823529%,0%);fill-opacity:1;" d="M 7.058594 15 C 7.066406 15.277344 7.089844 15.554688 7.089844 15.832031 C 7.089844 25.113281 7.089844 34.398438 7.089844 43.679688 C 7.089844 44.4375 7.089844 44.441406 6.328125 44.429688 C 5.464844 44.421875 4.601562 44.40625 3.738281 44.394531 L 3.738281 15.667969 C 4.527344 15.519531 5.316406 15.382812 6.101562 15.21875 C 6.210938 15.199219 6.296875 15.074219 6.394531 15 Z M 7.058594 15 "/>
<path style=" stroke:none;fill-rule:nonzero;fill:rgb(100%,78.823529%,0%);fill-opacity:1;" d="M 47.117188 15 C 47.117188 24.625 47.117188 34.246094 47.125 43.871094 C 47.125 44.308594 46.972656 44.457031 46.539062 44.441406 C 45.824219 44.414062 45.101562 44.398438 44.386719 44.445312 C 43.882812 44.472656 43.757812 44.289062 43.757812 43.8125 C 43.777344 40.808594 43.769531 37.804688 43.769531 34.800781 C 43.769531 28.699219 43.769531 22.597656 43.769531 16.496094 C 43.769531 15.714844 43.773438 15.742188 44.527344 15.566406 C 45.179688 15.414062 45.8125 15.191406 46.453125 15 C 46.671875 15 46.894531 15 47.117188 15 Z M 47.117188 15 "/>
<path style=" stroke:none;fill-rule:nonzero;fill:rgb(30.196078%,30.196078%,30.196078%);fill-opacity:1;" d="M 153.261719 42.640625 C 152.882812 42.835938 152.535156 43.027344 152.179688 43.191406 C 151.058594 43.714844 149.9375 44.230469 148.816406 44.746094 C 148.128906 45.066406 148.125 45.070312 147.707031 44.390625 C 145.640625 41.058594 143.578125 37.722656 141.515625 34.390625 C 141.421875 34.242188 141.304688 34.101562 141.136719 33.875 C 140.648438 34.691406 140.207031 35.429688 139.769531 36.167969 C 138.066406 39.050781 136.371094 41.933594 134.652344 44.808594 C 134.582031 44.925781 134.292969 45.039062 134.179688 44.988281 C 132.664062 44.324219 131.167969 43.625 129.65625 42.949219 C 129.230469 42.757812 129.285156 42.570312 129.523438 42.234375 C 132.210938 38.429688 134.890625 34.613281 137.550781 30.785156 C 137.664062 30.621094 137.648438 30.234375 137.53125 30.058594 C 135.136719 26.472656 132.722656 22.90625 130.3125 19.332031 C 130.191406 19.15625 130.097656 18.960938 129.96875 18.730469 C 131.277344 18.082031 132.527344 17.457031 133.78125 16.847656 C 134.957031 16.277344 134.960938 16.289062 135.648438 17.457031 C 137.417969 20.46875 139.195312 23.480469 140.976562 26.488281 C 141.042969 26.601562 141.214844 26.769531 141.269531 26.746094 C 141.402344 26.691406 141.519531 26.550781 141.59375 26.421875 C 143.472656 23.191406 145.347656 19.960938 147.210938 16.722656 C 147.402344 16.394531 147.585938 16.324219 147.917969 16.488281 C 149.304688 17.175781 150.691406 17.863281 152.089844 18.519531 C 152.484375 18.707031 152.460938 18.894531 152.257812 19.199219 C 149.824219 22.824219 147.402344 26.453125 144.957031 30.070312 C 144.695312 30.457031 144.6875 30.722656 144.960938 31.101562 C 147.53125 34.675781 150.082031 38.261719 152.644531 41.839844 C 152.824219 42.089844 153.019531 42.328125 153.261719 42.640625 Z M 153.261719 42.640625 "/>
<path style=" stroke:none;fill-rule:nonzero;fill:rgb(30.196078%,30.196078%,30.196078%);fill-opacity:1;" d="M 115.726562 38.328125 C 115.957031 37.535156 116.1875 36.742188 116.417969 35.953125 C 117.5 32.234375 118.582031 28.515625 119.65625 24.796875 C 120.398438 22.234375 121.140625 19.671875 121.871094 17.109375 C 122.085938 16.351562 122.121094 16.304688 122.878906 16.496094 C 124.34375 16.863281 125.800781 17.261719 127.265625 17.628906 C 127.660156 17.730469 127.757812 17.855469 127.609375 18.28125 C 125.796875 23.492188 124.003906 28.710938 122.214844 33.929688 C 121.078125 37.238281 119.949219 40.550781 118.824219 43.863281 C 118.699219 44.230469 118.488281 44.382812 118.085938 44.378906 C 116.371094 44.359375 114.65625 44.355469 112.941406 44.382812 C 112.492188 44.386719 112.277344 44.226562 112.140625 43.8125 C 111.503906 41.894531 110.847656 39.988281 110.203125 38.078125 C 109.347656 35.53125 108.492188 32.988281 107.640625 30.445312 C 106.789062 27.917969 105.941406 25.390625 105.09375 22.863281 C 104.574219 21.316406 104.066406 19.769531 103.527344 18.230469 C 103.402344 17.863281 103.503906 17.734375 103.847656 17.648438 C 105.511719 17.238281 107.171875 16.820312 108.832031 16.390625 C 109.207031 16.292969 109.28125 16.515625 109.355469 16.78125 C 109.726562 18.082031 110.105469 19.378906 110.472656 20.679688 C 111.332031 23.691406 112.1875 26.699219 113.039062 29.714844 C 113.800781 32.40625 114.550781 35.101562 115.3125 37.792969 C 115.367188 37.988281 115.472656 38.171875 115.550781 38.359375 C 115.609375 38.351562 115.667969 38.339844 115.726562 38.328125 Z M 115.726562 38.328125 "/>
<path style=" stroke:none;fill-rule:nonzero;fill:rgb(100%,78.823529%,0%);fill-opacity:1;" d="M 82.394531 34.363281 C 82.410156 32.210938 82.679688 30.101562 83.695312 28.167969 C 85.101562 25.492188 87.378906 24.078125 90.339844 23.832031 C 93.359375 23.582031 96.054688 24.300781 98.066406 26.773438 C 99.109375 28.050781 99.6875 29.550781 99.972656 31.15625 C 100.421875 33.667969 100.355469 36.164062 99.738281 38.65625 C 98.910156 41.984375 96.136719 44.460938 92.742188 44.785156 C 90.792969 44.96875 88.878906 44.871094 87.082031 43.949219 C 84.964844 42.867188 83.683594 41.101562 82.996094 38.871094 C 82.546875 37.40625 82.371094 35.898438 82.394531 34.367188 Z M 96.828125 34.421875 C 96.773438 33.609375 96.765625 32.789062 96.644531 31.984375 C 96.542969 31.292969 96.355469 30.605469 96.121094 29.945312 C 94.964844 26.710938 91.90625 25.953125 89.335938 26.925781 C 87.542969 27.601562 86.703125 29.125 86.28125 30.882812 C 85.738281 33.148438 85.757812 35.4375 86.230469 37.71875 C 86.855469 40.738281 88.957031 42.339844 92 42.078125 C 93.761719 41.925781 95.03125 41.019531 95.835938 39.453125 C 96.640625 37.875 96.808594 36.164062 96.828125 34.421875 Z M 96.828125 34.421875 "/>
<path style=" stroke:none;fill-rule:nonzero;fill:rgb(100%,78.823529%,0%);fill-opacity:1;" d="M 37.789062 37.226562 C 37.789062 39.414062 37.773438 41.605469 37.800781 43.792969 C 37.808594 44.320312 37.628906 44.484375 37.128906 44.449219 C 36.667969 44.414062 36.207031 44.4375 35.746094 44.453125 C 35.410156 44.460938 35.230469 44.316406 35.183594 43.980469 C 35.125 43.578125 35.054688 43.175781 34.980469 42.773438 C 34.914062 42.378906 34.800781 42.273438 34.410156 42.558594 C 32.386719 44.035156 30.175781 44.9375 27.613281 44.734375 C 25.035156 44.527344 23.144531 42.738281 22.828125 40.15625 C 22.632812 38.558594 22.714844 36.992188 23.597656 35.585938 C 24.484375 34.175781 25.839844 33.4375 27.40625 33.027344 C 29.402344 32.507812 31.4375 32.714844 33.460938 32.679688 C 34.644531 32.65625 34.550781 32.816406 34.550781 31.566406 C 34.550781 30.578125 34.484375 29.601562 34.058594 28.6875 C 33.476562 27.445312 32.472656 26.824219 31.140625 26.707031 C 29.183594 26.535156 27.332031 27.011719 25.542969 27.753906 C 25.144531 27.921875 24.988281 27.863281 24.847656 27.484375 C 24.644531 26.945312 24.410156 26.421875 24.175781 25.898438 C 24 25.511719 24.285156 25.375 24.53125 25.28125 C 25.609375 24.863281 26.679688 24.386719 27.796875 24.101562 C 29.433594 23.6875 31.101562 23.617188 32.785156 23.957031 C 35.304688 24.46875 37.132812 26.25 37.503906 28.839844 C 37.710938 30.28125 37.730469 31.753906 37.777344 33.214844 C 37.824219 34.550781 37.789062 35.886719 37.789062 37.222656 Z M 34.550781 37.429688 C 34.550781 37.429688 34.554688 37.429688 34.554688 37.429688 C 34.554688 36.78125 34.554688 36.132812 34.554688 35.484375 C 34.558594 35.199219 34.515625 34.945312 34.152344 34.960938 C 32.386719 35.027344 30.609375 34.988281 28.863281 35.207031 C 27.011719 35.433594 26.023438 36.730469 25.957031 38.625 C 25.875 40.972656 27.136719 42.1875 29.46875 42.007812 C 29.507812 42.003906 29.542969 42 29.578125 41.996094 C 31.28125 41.726562 32.863281 41.15625 34.179688 40.003906 C 34.378906 39.828125 34.507812 39.484375 34.535156 39.207031 C 34.585938 38.621094 34.550781 38.023438 34.550781 37.429688 Z M 34.550781 37.429688 "/>
<path style=" stroke:none;fill-rule:nonzero;fill:rgb(100%,78.823529%,0%);fill-opacity:1;" d="M 77.808594 37.15625 C 77.808594 39.367188 77.796875 41.574219 77.816406 43.78125 C 77.824219 44.292969 77.667969 44.492188 77.152344 44.445312 C 76.75 44.40625 76.335938 44.410156 75.933594 44.445312 C 75.453125 44.488281 75.210938 44.328125 75.179688 43.816406 C 75.15625 43.449219 75.042969 43.089844 74.984375 42.722656 C 74.921875 42.3125 74.792969 42.285156 74.453125 42.539062 C 72.648438 43.875 70.667969 44.761719 68.378906 44.753906 C 64.976562 44.746094 62.859375 42.667969 62.746094 39.242188 C 62.636719 35.945312 64.40625 33.703125 67.609375 32.980469 C 69.640625 32.527344 71.6875 32.726562 73.726562 32.675781 C 74.582031 32.652344 74.570312 32.675781 74.578125 31.8125 C 74.585938 30.75 74.523438 29.699219 74.082031 28.707031 C 73.539062 27.496094 72.574219 26.863281 71.296875 26.71875 C 69.570312 26.519531 67.921875 26.894531 66.304688 27.449219 C 66.113281 27.515625 65.921875 27.589844 65.734375 27.660156 C 65.019531 27.933594 65.023438 27.933594 64.746094 27.195312 C 64.59375 26.796875 64.449219 26.390625 64.253906 26.015625 C 64.085938 25.695312 64.132812 25.480469 64.4375 25.332031 C 67.523438 23.835938 70.710938 23.132812 74.054688 24.34375 C 75.699219 24.9375 76.792969 26.1875 77.253906 27.863281 C 77.566406 28.996094 77.730469 30.191406 77.78125 31.367188 C 77.867188 33.292969 77.804688 35.222656 77.804688 37.15625 Z M 74.574219 37.421875 C 74.574219 37.421875 74.578125 37.421875 74.582031 37.421875 C 74.582031 36.773438 74.578125 36.125 74.582031 35.476562 C 74.585938 35.179688 74.511719 34.945312 74.164062 34.957031 C 72.398438 35.027344 70.613281 34.957031 68.875 35.207031 C 66.425781 35.558594 65.148438 38.445312 66.351562 40.628906 C 67.015625 41.839844 68.152344 42.109375 69.382812 41.996094 C 71.144531 41.839844 72.734375 41.199219 74.132812 40.089844 C 74.46875 39.820312 74.609375 39.523438 74.582031 39.089844 C 74.546875 38.535156 74.574219 37.976562 74.574219 37.421875 Z M 74.574219 37.421875 "/>
<path style=" stroke:none;fill-rule:nonzero;fill:rgb(100%,78.823529%,0%);fill-opacity:1;" d="M 18.65625 25.625 C 18.582031 25.726562 18.511719 25.832031 18.433594 25.929688 C 16.503906 28.390625 14.578125 30.855469 12.632812 33.300781 C 12.34375 33.664062 12.351562 33.894531 12.648438 34.25 C 14.914062 36.984375 17.15625 39.738281 19.421875 42.472656 C 19.691406 42.800781 19.675781 42.996094 19.351562 43.242188 C 18.761719 43.683594 18.171875 44.128906 17.613281 44.609375 C 17.273438 44.902344 17.074219 44.855469 16.804688 44.519531 C 14.457031 41.585938 12.09375 38.667969 9.738281 35.742188 C 9.367188 35.28125 9.003906 34.8125 8.617188 34.367188 C 8.386719 34.101562 8.355469 33.871094 8.574219 33.582031 C 10.984375 30.394531 13.390625 27.203125 15.789062 24.007812 C 16.03125 23.6875 16.222656 23.652344 16.550781 23.921875 C 17.121094 24.390625 17.734375 24.804688 18.335938 25.230469 C 18.46875 25.328125 18.628906 25.386719 18.777344 25.464844 C 18.738281 25.519531 18.699219 25.574219 18.660156 25.625 Z M 18.65625 25.625 "/>
<path style=" stroke:none;fill-rule:nonzero;fill:rgb(100%,78.823529%,0%);fill-opacity:1;" d="M 59.714844 42.851562 C 59.609375 42.984375 59.542969 43.097656 59.445312 43.175781 C 58.8125 43.683594 58.171875 44.179688 57.539062 44.6875 C 57.203125 44.957031 57.023438 44.757812 56.820312 44.503906 C 54.386719 41.476562 51.949219 38.457031 49.511719 35.433594 C 49.222656 35.074219 48.941406 34.707031 48.632812 34.363281 C 48.398438 34.097656 48.375 33.878906 48.597656 33.582031 C 51.003906 30.398438 53.40625 27.207031 55.800781 24.015625 C 56.035156 23.703125 56.222656 23.636719 56.5625 23.917969 C 57.140625 24.402344 57.773438 24.820312 58.390625 25.257812 C 58.671875 25.460938 58.714844 25.628906 58.472656 25.929688 C 56.515625 28.390625 54.589844 30.871094 52.632812 33.328125 C 52.351562 33.679688 52.375 33.898438 52.652344 34.230469 C 54.929688 36.980469 57.183594 39.742188 59.445312 42.503906 C 59.535156 42.613281 59.617188 42.726562 59.714844 42.851562 Z M 59.714844 42.851562 "/>
</g>
</svg>
