<?xml version="1.0" encoding="UTF-8"?>
<svg xmlns="http://www.w3.org/2000/svg" xmlns:xlink="http://www.w3.org/1999/xlink" width="px" height="60px" viewBox="0 0 120 60" version="1.1">
<defs>
<linearGradient id="linear0" gradientUnits="userSpaceOnUse" x1="13.6756" y1="16.2575" x2="11.8333" y2="13.3484" gradientTransform="matrix(1.875,0,0,1.875,0,0)">
<stop offset="0" style="stop-color:rgb(83.921569%,14.901961%,8.627451%);stop-opacity:0;"/>
<stop offset="1" style="stop-color:rgb(83.921569%,14.901961%,8.627451%);stop-opacity:1;"/>
</linearGradient>
</defs>
<g id="surface1">
<path style=" stroke:none;fill-rule:nonzero;fill:rgb(26.27451%,24.705882%,24.705882%);fill-opacity:1;" d="M 56.941406 26.023438 L 54.867188 26.023438 L 51.210938 39.097656 L 55.273438 39.097656 L 58.371094 28.054688 C 58.539062 27.574219 58.46875 27.035156 58.1875 26.621094 C 57.902344 26.21875 57.4375 26 56.949219 26.023438 Z M 56.941406 26.023438 "/>
<path style=" stroke:none;fill-rule:nonzero;fill:rgb(26.27451%,24.705882%,24.705882%);fill-opacity:1;" d="M 59.785156 23.082031 C 59.417969 24.265625 58.378906 25.085938 57.167969 25.160156 C 56.34375 25.203125 55.648438 24.558594 55.609375 23.71875 C 55.601562 23.5 55.632812 23.285156 55.714844 23.082031 C 56.082031 21.902344 57.117188 21.078125 58.332031 21.003906 C 58.835938 20.980469 59.320312 21.214844 59.617188 21.632812 C 59.761719 21.835938 59.855469 22.078125 59.878906 22.332031 C 59.914062 22.585938 59.878906 22.835938 59.785156 23.074219 Z M 59.785156 23.082031 "/>
<path style=" stroke:none;fill-rule:nonzero;fill:rgb(26.27451%,24.705882%,24.705882%);fill-opacity:1;" d="M 76.378906 25.316406 C 75.578125 25.316406 74.78125 25.46875 74.046875 25.78125 C 73.6875 25.941406 73.351562 26.136719 73.039062 26.375 L 73.972656 23.03125 C 74.132812 22.550781 74.070312 22.023438 73.789062 21.597656 C 73.644531 21.402344 73.460938 21.25 73.246094 21.140625 C 73.03125 21.035156 72.800781 20.988281 72.5625 21.003906 L 70.574219 21.003906 L 65.519531 39.089844 L 69.472656 39.089844 L 71.417969 32.136719 C 71.625 31.234375 72.074219 30.402344 72.703125 29.726562 C 73.183594 29.210938 73.847656 28.925781 74.539062 28.925781 C 75.097656 28.871094 75.625 29.195312 75.84375 29.726562 C 76.082031 30.515625 76.058594 31.363281 75.769531 32.136719 L 73.820312 39.089844 L 77.832031 39.089844 L 79.746094 32.292969 C 80.328125 30.664062 80.3125 28.878906 79.691406 27.261719 C 79.074219 25.992188 77.757812 25.226562 76.378906 25.332031 Z M 76.378906 25.316406 "/>
<path style=" stroke:none;fill-rule:nonzero;fill:rgb(26.27451%,24.705882%,24.705882%);fill-opacity:1;" d="M 112.449219 25.289062 C 110.578125 25.25 108.734375 25.796875 107.167969 26.847656 C 106.484375 25.796875 105.300781 25.210938 104.070312 25.300781 C 103.273438 25.300781 102.472656 25.453125 101.738281 25.761719 C 101.300781 25.960938 100.894531 26.210938 100.519531 26.523438 C 100.40625 25.789062 99.765625 25.265625 99.039062 25.316406 L 97.058594 25.316406 L 93.203125 39.097656 L 97.15625 39.097656 L 99.113281 32.121094 C 99.320312 31.214844 99.765625 30.386719 100.398438 29.707031 C 100.636719 29.457031 100.917969 29.253906 101.238281 29.113281 C 101.554688 28.976562 101.890625 28.910156 102.242188 28.910156 C 102.515625 28.878906 102.785156 28.941406 103.023438 29.089844 C 103.257812 29.234375 103.441406 29.449219 103.542969 29.707031 C 103.785156 30.5 103.757812 31.347656 103.472656 32.121094 L 101.523438 39.089844 L 105.53125 39.089844 L 107.488281 32.128906 C 107.695312 31.226562 108.144531 30.394531 108.773438 29.726562 C 109.253906 29.210938 109.925781 28.925781 110.617188 28.925781 C 111.179688 28.871094 111.703125 29.195312 111.921875 29.726562 C 112.160156 30.515625 112.136719 31.363281 111.847656 32.136719 L 109.898438 39.105469 L 113.910156 39.105469 L 115.824219 32.285156 C 116.40625 30.652344 116.390625 28.871094 115.769531 27.253906 C 115.15625 25.976562 113.835938 25.210938 112.449219 25.316406 Z M 112.449219 25.289062 "/>
<path style=" stroke:none;fill-rule:nonzero;fill:rgb(26.27451%,24.705882%,24.705882%);fill-opacity:1;" d="M 80.882812 33.140625 L 83.085938 25.273438 L 87.097656 25.273438 L 84.890625 33.140625 C 84.246094 35.460938 86.378906 35.453125 86.378906 35.453125 C 87.734375 35.4375 88.917969 34.484375 89.242188 33.140625 L 91.441406 25.273438 L 95.390625 25.273438 L 93.1875 33.140625 C 92.207031 36.710938 88.980469 39.15625 85.347656 39.074219 C 85.347656 39.074219 79.09375 39.488281 80.875 33.140625 Z M 80.882812 33.140625 "/>
<path style=" stroke:none;fill-rule:nonzero;fill:rgb(26.27451%,24.705882%,24.705882%);fill-opacity:1;" d="M 65.703125 23.035156 C 65.78125 22.796875 65.8125 22.542969 65.773438 22.300781 C 65.742188 22.046875 65.65625 21.8125 65.519531 21.597656 C 65.246094 21.207031 64.800781 20.980469 64.328125 21.003906 L 62.269531 21.003906 L 57.996094 36.285156 C 57.414062 38.390625 58.429688 38.929688 59.386719 39.007812 C 60.066406 39.066406 60.878906 39.097656 61.679688 39.097656 C 62.199219 39.097656 62.683594 39.082031 63.097656 39.058594 L 63.507812 39.035156 L 64.425781 35.765625 L 62.636719 35.765625 C 62.148438 35.765625 62.199219 35.585938 62.246094 35.414062 L 64.082031 28.804688 L 64.585938 28.804688 C 65.144531 28.796875 65.695312 28.601562 66.132812 28.242188 C 66.613281 27.882812 66.964844 27.371094 67.132812 26.78125 L 67.441406 25.691406 L 64.960938 25.691406 L 65.703125 23.042969 Z M 65.703125 23.035156 "/>
<path style=" stroke:none;fill-rule:nonzero;fill:rgb(26.27451%,24.705882%,24.705882%);fill-opacity:1;" d="M 51.695312 32.269531 C 52.277344 30.640625 52.261719 28.855469 51.640625 27.238281 C 51.023438 25.96875 49.714844 25.203125 48.324219 25.308594 C 47.527344 25.300781 46.730469 25.453125 45.996094 25.765625 C 45.636719 25.925781 45.300781 26.125 44.980469 26.359375 L 45.914062 23.035156 C 46.074219 22.554688 46.011719 22.023438 45.730469 21.605469 C 45.585938 21.410156 45.402344 21.257812 45.1875 21.152344 C 44.972656 21.046875 44.742188 21.003906 44.5 21.011719 L 42.511719 21.011719 L 39.152344 33.011719 C 37.316406 39.582031 43.824219 39.082031 43.824219 39.082031 C 43.824219 39.082031 49.738281 39.222656 51.6875 32.261719 Z M 47.726562 32.128906 C 47.503906 33.074219 47.046875 33.957031 46.410156 34.671875 C 45.929688 35.1875 45.261719 35.480469 44.566406 35.472656 C 43.992188 35.539062 43.441406 35.210938 43.214844 34.671875 C 43 33.835938 43.054688 32.9375 43.367188 32.128906 C 43.574219 31.226562 44.023438 30.394531 44.652344 29.71875 C 45.132812 29.203125 45.804688 28.910156 46.496094 28.917969 C 47.054688 28.863281 47.582031 29.1875 47.796875 29.71875 C 48.039062 30.507812 48.015625 31.355469 47.726562 32.128906 Z M 47.726562 32.128906 "/>
<path style=" stroke:none;fill-rule:nonzero;fill:rgb(83.921569%,15.686275%,9.019608%);fill-opacity:1;" d="M 3.976562 26.367188 C 3.363281 27.824219 4.035156 29.519531 5.464844 30.148438 C 5.863281 30.320312 6.292969 30.398438 6.726562 30.375 L 7.730469 30.375 L 10.566406 20.246094 L 5.710938 20.246094 Z M 3.976562 26.367188 "/>
<path style=" stroke:none;fill-rule:nonzero;fill:rgb(92.54902%,43.921569%,0%);fill-opacity:1;" d="M 30.777344 24.164062 C 29.472656 21.5 27.175781 20.222656 23.957031 20.222656 L 17.9375 20.222656 L 15.117188 30.402344 L 19.398438 30.402344 C 20.082031 30.289062 20.753906 30.664062 21.035156 31.304688 C 21.335938 32.300781 21.304688 33.359375 20.945312 34.339844 C 20.667969 35.527344 20.089844 36.636719 19.285156 37.550781 C 18.6875 38.203125 17.855469 38.5625 16.976562 38.550781 C 16.257812 38.632812 15.570312 38.21875 15.285156 37.542969 C 15.011719 36.480469 15.078125 35.355469 15.476562 34.347656 L 20.730469 15.453125 C 21.066406 14.457031 20.929688 13.367188 20.355469 12.492188 C 19.765625 11.664062 18.8125 11.199219 17.816406 11.253906 L 11.988281 11.253906 L 5.0625 36.132812 C 1.277344 49.742188 14.675781 48.734375 14.675781 48.734375 C 14.675781 48.734375 26.878906 49.011719 30.894531 34.582031 C 32.070312 30.335938 32.039062 26.832031 30.777344 24.164062 Z M 30.777344 24.164062 "/>
<path style=" stroke:none;fill-rule:nonzero;fill:url(#linear0);" d="M 30.886719 34.535156 C 32.070312 30.320312 32.03125 26.824219 30.769531 24.175781 C 29.464844 21.523438 27.167969 20.253906 23.949219 20.253906 L 19.414062 20.253906 L 16.585938 30.386719 L 19.375 30.386719 C 20.050781 30.269531 20.722656 30.644531 21.011719 31.289062 C 21.3125 32.277344 21.28125 33.335938 20.921875 34.296875 "/>
</g>
</svg>
