<?xml version="1.0" encoding="UTF-8"?>
<svg xmlns="http://www.w3.org/2000/svg" xmlns:xlink="http://www.w3.org/1999/xlink" width="px" height="60px" viewBox="0 0 210 60" version="1.1">
<g id="surface1">
<path style=" stroke:none;fill-rule:nonzero;fill:rgb(20%,33.333333%,53.333333%);fill-opacity:1;" d="M 15.246094 30.058594 L 5.699219 30.058594 C 5.5625 30.058594 5.445312 29.953125 5.445312 29.816406 L 5.445312 23.019531 C 5.445312 22.894531 5.335938 22.78125 5.1875 22.78125 L 4.003906 22.78125 C 3.867188 22.78125 3.75 22.882812 3.75 23.019531 L 3.75 38.84375 C 3.75 38.972656 3.859375 39.085938 4.003906 39.085938 L 5.199219 39.085938 C 5.335938 39.085938 5.453125 38.980469 5.453125 38.84375 L 5.453125 31.800781 C 5.453125 31.671875 5.5625 31.5625 5.707031 31.5625 L 15.253906 31.5625 C 15.390625 31.5625 15.507812 31.664062 15.507812 31.800781 L 15.507812 38.84375 C 15.507812 38.972656 15.617188 39.085938 15.761719 39.085938 L 16.929688 39.085938 C 17.066406 39.085938 17.183594 38.980469 17.183594 38.84375 L 17.183594 23.019531 C 17.183594 22.894531 17.074219 22.78125 16.929688 22.78125 L 15.761719 22.78125 C 15.625 22.78125 15.507812 22.882812 15.507812 23.019531 L 15.507812 29.808594 C 15.507812 29.9375 15.398438 30.046875 15.253906 30.046875 Z M 15.246094 30.058594 "/>
<path style=" stroke:none;fill-rule:nonzero;fill:rgb(20%,33.333333%,53.333333%);fill-opacity:1;" d="M 47.058594 23.449219 C 46.074219 23.003906 44.910156 22.78125 43.550781 22.78125 L 37.796875 22.78125 C 37.660156 22.78125 37.542969 22.882812 37.542969 23.019531 L 37.542969 38.84375 C 37.542969 38.972656 37.652344 39.085938 37.796875 39.085938 L 38.988281 39.085938 C 39.125 39.085938 39.246094 38.980469 39.246094 38.84375 L 39.246094 34.167969 C 39.246094 34.039062 39.355469 33.929688 39.5 33.929688 L 43.5625 33.929688 C 44.917969 33.929688 46.09375 33.707031 47.066406 33.253906 C 48.042969 32.800781 48.796875 32.160156 49.328125 31.332031 C 49.855469 30.5 50.121094 29.511719 50.121094 28.363281 C 50.121094 27.21875 49.855469 26.175781 49.328125 25.347656 C 48.796875 24.515625 48.042969 23.875 47.066406 23.441406 Z M 47.160156 31.363281 C 46.320312 32.074219 45.109375 32.425781 43.496094 32.425781 L 39.480469 32.425781 C 39.34375 32.425781 39.226562 32.324219 39.226562 32.1875 L 39.226562 24.515625 C 39.226562 24.390625 39.335938 24.277344 39.480469 24.277344 L 43.496094 24.277344 C 45.101562 24.277344 46.320312 24.636719 47.160156 25.347656 C 47.996094 26.054688 48.40625 27.074219 48.40625 28.371094 C 48.40625 29.671875 47.988281 30.65625 47.160156 31.363281 Z M 47.160156 31.363281 "/>
<path style=" stroke:none;fill-rule:nonzero;fill:rgb(20%,33.333333%,53.333333%);fill-opacity:1;" d="M 56.183594 31.542969 L 63.980469 31.542969 C 64.117188 31.542969 64.234375 31.441406 64.234375 31.304688 L 64.234375 30.3125 C 64.234375 30.183594 64.125 30.074219 63.980469 30.074219 L 56.183594 30.074219 C 56.046875 30.074219 55.929688 29.972656 55.929688 29.835938 L 55.929688 24.515625 C 55.929688 24.390625 56.039062 24.277344 56.183594 24.277344 L 64.992188 24.277344 C 65.128906 24.277344 65.246094 24.175781 65.246094 24.039062 L 65.246094 23.019531 C 65.246094 22.894531 65.136719 22.78125 64.992188 22.78125 L 54.488281 22.78125 C 54.351562 22.78125 54.234375 22.882812 54.234375 23.019531 L 54.234375 38.84375 C 54.234375 38.972656 54.34375 39.085938 54.488281 39.085938 L 65.335938 39.085938 C 65.472656 39.085938 65.59375 38.980469 65.59375 38.84375 L 65.59375 37.828125 C 65.59375 37.699219 65.484375 37.589844 65.335938 37.589844 L 56.183594 37.589844 C 56.046875 37.589844 55.929688 37.484375 55.929688 37.347656 L 55.929688 31.765625 C 55.929688 31.636719 56.039062 31.527344 56.183594 31.527344 Z M 56.183594 31.542969 "/>
<path style=" stroke:none;fill-rule:nonzero;fill:rgb(20%,33.333333%,53.333333%);fill-opacity:1;" d="M 82.863281 39.09375 L 78.9375 33.492188 C 79.15625 33.425781 79.367188 33.347656 79.566406 33.253906 C 80.539062 32.808594 81.296875 32.175781 81.824219 31.347656 C 82.351562 30.515625 82.617188 29.527344 82.617188 28.378906 C 82.617188 27.234375 82.351562 26.191406 81.824219 25.363281 C 81.296875 24.535156 80.539062 23.890625 79.566406 23.457031 C 78.582031 23.011719 77.417969 22.789062 76.058594 22.789062 L 70.304688 22.789062 C 70.167969 22.789062 70.046875 22.890625 70.046875 23.027344 L 70.046875 38.851562 C 70.046875 38.980469 70.15625 39.09375 70.304688 39.09375 L 71.496094 39.09375 C 71.632812 39.09375 71.75 38.988281 71.75 38.851562 L 71.75 34.160156 C 71.75 34.03125 71.859375 33.917969 72.007812 33.917969 L 76.070312 33.917969 C 76.46875 33.917969 76.84375 33.894531 77.207031 33.851562 C 77.296875 33.84375 77.390625 33.878906 77.445312 33.953125 L 80.949219 38.980469 C 80.996094 39.050781 81.078125 39.09375 81.160156 39.09375 L 82.882812 39.09375 Z M 76.003906 32.457031 L 71.988281 32.457031 C 71.851562 32.457031 71.734375 32.355469 71.734375 32.21875 L 71.734375 24.515625 C 71.734375 24.386719 71.84375 24.277344 71.988281 24.277344 L 76.003906 24.277344 C 77.609375 24.277344 78.828125 24.636719 79.664062 25.34375 C 80.503906 26.054688 80.914062 27.070312 80.914062 28.371094 C 80.914062 29.671875 80.496094 30.664062 79.664062 31.371094 C 78.835938 32.082031 77.617188 32.441406 76.003906 32.441406 Z M 76.003906 32.457031 "/>
<path style=" stroke:none;fill-rule:nonzero;fill:rgb(20%,33.333333%,53.333333%);fill-opacity:1;" d="M 34.527344 22.789062 L 33.296875 22.789062 C 33.207031 22.789062 33.125 22.832031 33.078125 22.910156 L 27.867188 31.570312 C 27.816406 31.664062 27.714844 31.6875 27.613281 31.679688 C 27.515625 31.6875 27.414062 31.65625 27.359375 31.570312 L 22.148438 22.910156 C 22.105469 22.832031 22.023438 22.789062 21.929688 22.789062 L 20.699219 22.789062 C 20.507812 22.789062 20.382812 22.984375 20.484375 23.140625 L 26.65625 33.398438 C 26.65625 33.398438 26.695312 33.476562 26.695312 33.519531 L 26.695312 38.851562 C 26.695312 38.980469 26.804688 39.09375 26.949219 39.09375 L 28.289062 39.09375 C 28.425781 39.09375 28.542969 38.988281 28.542969 38.851562 L 28.542969 33.519531 C 28.542969 33.519531 28.550781 33.441406 28.578125 33.398438 L 34.746094 23.140625 C 34.835938 22.976562 34.71875 22.789062 34.527344 22.789062 Z M 34.527344 22.789062 "/>
<path style=" stroke:none;fill-rule:nonzero;fill:rgb(20%,80%,60%);fill-opacity:1;" d="M 94.054688 39.367188 C 92.816406 39.367188 91.667969 39.160156 90.605469 38.75 C 89.539062 38.339844 88.617188 37.75 87.835938 36.988281 C 87.050781 36.226562 86.449219 35.339844 86.011719 34.3125 C 85.574219 33.289062 85.355469 32.160156 85.355469 30.9375 C 85.355469 29.714844 85.574219 28.585938 86.011719 27.558594 C 86.449219 26.535156 87.0625 25.644531 87.84375 24.882812 C 88.628906 24.121094 89.554688 23.53125 90.621094 23.121094 C 91.6875 22.710938 92.835938 22.507812 94.074219 22.507812 C 95.46875 22.507812 96.722656 22.753906 97.863281 23.242188 C 98.863281 23.679688 99.730469 24.292969 100.449219 25.089844 C 100.605469 25.261719 100.585938 25.515625 100.414062 25.671875 L 98.644531 27.3125 C 98.453125 27.484375 98.164062 27.464844 97.980469 27.285156 C 97.527344 26.816406 97.023438 26.457031 96.476562 26.191406 C 95.796875 25.867188 95.058594 25.703125 94.265625 25.703125 C 93.519531 25.703125 92.824219 25.832031 92.199219 26.089844 C 91.570312 26.347656 91.03125 26.703125 90.566406 27.175781 C 90.101562 27.644531 89.757812 28.191406 89.5 28.824219 C 89.246094 29.464844 89.117188 30.167969 89.117188 30.945312 C 89.117188 31.722656 89.246094 32.425781 89.5 33.066406 C 89.757812 33.707031 90.113281 34.253906 90.566406 34.714844 C 91.023438 35.175781 91.570312 35.542969 92.199219 35.800781 C 92.824219 36.058594 93.507812 36.183594 94.265625 36.183594 C 95.058594 36.183594 95.796875 36.015625 96.476562 35.679688 C 97.023438 35.414062 97.535156 35.039062 97.980469 34.578125 C 98.152344 34.398438 98.453125 34.375 98.644531 34.550781 L 100.414062 36.195312 C 100.578125 36.347656 100.605469 36.613281 100.449219 36.773438 C 99.730469 37.570312 98.875 38.195312 97.871094 38.628906 C 96.742188 39.125 95.46875 39.375 94.066406 39.375 Z M 94.054688 39.367188 "/>
<path style=" stroke:none;fill-rule:nonzero;fill:rgb(20%,80%,60%);fill-opacity:1;" d="M 111.109375 39.367188 C 109.84375 39.367188 108.667969 39.152344 107.601562 38.734375 C 106.535156 38.316406 105.597656 37.726562 104.804688 36.964844 C 104.011719 36.203125 103.394531 35.316406 102.957031 34.289062 C 102.519531 33.261719 102.300781 32.144531 102.300781 30.9375 C 102.300781 29.730469 102.519531 28.585938 102.957031 27.570312 C 103.394531 26.550781 104.003906 25.664062 104.804688 24.902344 C 105.605469 24.140625 106.527344 23.550781 107.59375 23.132812 C 108.660156 22.714844 109.824219 22.5 111.089844 22.5 C 112.355469 22.5 113.523438 22.707031 114.585938 23.117188 C 115.652344 23.527344 116.582031 24.117188 117.375 24.875 C 118.167969 25.636719 118.785156 26.527344 119.222656 27.550781 C 119.660156 28.578125 119.878906 29.707031 119.878906 30.929688 C 119.878906 32.152344 119.660156 33.261719 119.222656 34.296875 C 118.785156 35.332031 118.175781 36.230469 117.375 36.988281 C 116.582031 37.75 115.652344 38.339844 114.585938 38.75 C 113.523438 39.160156 112.367188 39.367188 111.109375 39.367188 Z M 111.082031 36.179688 C 111.800781 36.179688 112.464844 36.050781 113.066406 35.792969 C 113.667969 35.535156 114.207031 35.167969 114.660156 34.699219 C 115.117188 34.230469 115.472656 33.671875 115.726562 33.050781 C 115.980469 32.417969 116.109375 31.714844 116.109375 30.945312 C 116.109375 30.175781 115.980469 29.46875 115.726562 28.835938 C 115.472656 28.203125 115.117188 27.65625 114.660156 27.183594 C 114.207031 26.714844 113.667969 26.347656 113.066406 26.089844 C 112.464844 25.832031 111.800781 25.707031 111.082031 25.707031 C 110.363281 25.707031 109.695312 25.832031 109.085938 26.089844 C 108.476562 26.347656 107.9375 26.714844 107.492188 27.183594 C 107.046875 27.65625 106.691406 28.210938 106.4375 28.835938 C 106.179688 29.457031 106.054688 30.167969 106.054688 30.945312 C 106.054688 31.722656 106.179688 32.425781 106.4375 33.050781 C 106.691406 33.671875 107.039062 34.230469 107.492188 34.699219 C 107.949219 35.167969 108.476562 35.535156 109.085938 35.792969 C 109.695312 36.050781 110.363281 36.179688 111.082031 36.179688 Z M 111.082031 36.179688 "/>
<path style=" stroke:none;fill-rule:nonzero;fill:rgb(20%,80%,60%);fill-opacity:1;" d="M 123.121094 38.664062 L 123.121094 23.21875 C 123.121094 22.976562 123.320312 22.789062 123.574219 22.789062 L 125.972656 22.789062 C 126.117188 22.789062 126.242188 22.847656 126.335938 22.960938 L 135.671875 34.527344 L 134.632812 34.527344 C 134.378906 34.527344 134.175781 34.339844 134.175781 34.097656 L 134.175781 23.21875 C 134.175781 22.976562 134.378906 22.789062 134.632812 22.789062 L 137.390625 22.789062 C 137.648438 22.789062 137.847656 22.976562 137.847656 23.21875 L 137.847656 38.664062 C 137.847656 38.902344 137.648438 39.09375 137.390625 39.09375 L 134.996094 39.09375 C 134.851562 39.09375 134.722656 39.03125 134.632812 38.921875 L 125.296875 27.355469 L 126.335938 27.355469 C 126.589844 27.355469 126.789062 27.542969 126.789062 27.78125 L 126.789062 38.664062 C 126.789062 38.902344 126.589844 39.09375 126.335938 39.09375 L 123.574219 39.09375 C 123.320312 39.09375 123.121094 38.902344 123.121094 38.664062 Z M 123.121094 38.664062 "/>
<path style=" stroke:none;fill-rule:nonzero;fill:rgb(20%,80%,60%);fill-opacity:1;" d="M 142.121094 38.664062 L 142.121094 23.21875 C 142.121094 22.976562 142.320312 22.789062 142.574219 22.789062 L 144.972656 22.789062 C 145.117188 22.789062 145.242188 22.847656 145.335938 22.960938 L 154.671875 34.527344 L 153.632812 34.527344 C 153.378906 34.527344 153.175781 34.339844 153.175781 34.097656 L 153.175781 23.21875 C 153.175781 22.976562 153.378906 22.789062 153.632812 22.789062 L 156.390625 22.789062 C 156.648438 22.789062 156.847656 22.976562 156.847656 23.21875 L 156.847656 38.664062 C 156.847656 38.902344 156.648438 39.09375 156.390625 39.09375 L 153.996094 39.09375 C 153.851562 39.09375 153.722656 39.03125 153.632812 38.921875 L 144.296875 27.355469 L 145.335938 27.355469 C 145.589844 27.355469 145.789062 27.542969 145.789062 27.78125 L 145.789062 38.664062 C 145.789062 38.902344 145.589844 39.09375 145.335938 39.09375 L 142.574219 39.09375 C 142.320312 39.09375 142.121094 38.902344 142.121094 38.664062 Z M 142.121094 38.664062 "/>
<path style=" stroke:none;fill-rule:nonzero;fill:rgb(20%,80%,60%);fill-opacity:1;" d="M 165.265625 36.058594 L 173.097656 36.058594 C 173.351562 36.058594 173.550781 36.246094 173.550781 36.484375 L 173.550781 38.65625 C 173.550781 38.894531 173.351562 39.082031 173.097656 39.082031 L 161.574219 39.082031 C 161.320312 39.082031 161.121094 38.894531 161.121094 38.65625 L 161.121094 23.21875 C 161.121094 22.976562 161.320312 22.789062 161.574219 22.789062 L 172.796875 22.789062 C 173.050781 22.789062 173.25 22.976562 173.25 23.21875 L 173.25 25.386719 C 173.25 25.628906 173.050781 25.816406 172.796875 25.816406 L 165.265625 25.816406 C 165.007812 25.816406 164.808594 26.003906 164.808594 26.242188 L 164.808594 35.636719 C 164.808594 35.878906 165.007812 36.066406 165.265625 36.066406 Z M 164.992188 29.328125 L 171.8125 29.328125 C 172.066406 29.328125 172.269531 29.515625 172.269531 29.757812 L 172.269531 31.859375 C 172.269531 32.097656 172.066406 32.285156 171.8125 32.285156 L 164.992188 32.285156 C 164.734375 32.285156 164.535156 32.097656 164.535156 31.859375 L 164.535156 29.757812 C 164.535156 29.515625 164.734375 29.328125 164.992188 29.328125 Z M 164.992188 29.328125 "/>
<path style=" stroke:none;fill-rule:nonzero;fill:rgb(20%,80%,60%);fill-opacity:1;" d="M 184.644531 39.367188 C 183.40625 39.367188 182.257812 39.160156 181.195312 38.75 C 180.128906 38.339844 179.207031 37.75 178.425781 36.988281 C 177.640625 36.226562 177.039062 35.339844 176.605469 34.3125 C 176.167969 33.289062 175.949219 32.160156 175.949219 30.9375 C 175.949219 29.714844 176.167969 28.585938 176.605469 27.558594 C 177.039062 26.535156 177.652344 25.644531 178.433594 24.882812 C 179.21875 24.121094 180.148438 23.53125 181.210938 23.121094 C 182.277344 22.710938 183.425781 22.507812 184.664062 22.507812 C 186.058594 22.507812 187.316406 22.753906 188.453125 23.242188 C 189.457031 23.679688 190.320312 24.292969 191.039062 25.089844 C 191.195312 25.261719 191.175781 25.515625 191.003906 25.671875 L 189.234375 27.3125 C 189.046875 27.484375 188.753906 27.464844 188.574219 27.285156 C 188.117188 26.816406 187.617188 26.457031 187.070312 26.191406 C 186.386719 25.867188 185.648438 25.703125 184.855469 25.703125 C 184.109375 25.703125 183.417969 25.832031 182.789062 26.089844 C 182.160156 26.347656 181.621094 26.703125 181.15625 27.175781 C 180.691406 27.644531 180.347656 28.191406 180.09375 28.824219 C 179.835938 29.464844 179.710938 30.167969 179.710938 30.945312 C 179.710938 31.722656 179.835938 32.425781 180.09375 33.066406 C 180.347656 33.707031 180.703125 34.253906 181.15625 34.714844 C 181.613281 35.175781 182.160156 35.542969 182.789062 35.800781 C 183.417969 36.058594 184.101562 36.183594 184.855469 36.183594 C 185.648438 36.183594 186.386719 36.015625 187.070312 35.679688 C 187.617188 35.414062 188.125 35.039062 188.574219 34.578125 C 188.746094 34.398438 189.046875 34.375 189.234375 34.550781 L 191.003906 36.195312 C 191.167969 36.347656 191.195312 36.613281 191.039062 36.773438 C 190.320312 37.570312 189.464844 38.195312 188.460938 38.628906 C 187.332031 39.125 186.058594 39.375 184.65625 39.375 Z M 184.644531 39.367188 "/>
<path style=" stroke:none;fill-rule:nonzero;fill:rgb(20%,80%,60%);fill-opacity:1;" d="M 197.394531 38.664062 L 197.394531 26.285156 C 197.394531 26.046875 197.195312 25.859375 196.941406 25.859375 L 192.714844 25.859375 C 192.460938 25.859375 192.257812 25.671875 192.257812 25.429688 L 192.257812 23.21875 C 192.257812 22.976562 192.460938 22.789062 192.714844 22.789062 L 205.792969 22.789062 C 206.050781 22.789062 206.25 22.976562 206.25 23.21875 L 206.25 25.4375 C 206.25 25.679688 206.050781 25.867188 205.792969 25.867188 L 201.566406 25.867188 C 201.3125 25.867188 201.113281 26.054688 201.113281 26.292969 L 201.113281 38.664062 C 201.113281 38.902344 200.910156 39.09375 200.65625 39.09375 L 197.851562 39.09375 C 197.597656 39.09375 197.394531 38.902344 197.394531 38.664062 Z M 197.394531 38.664062 "/>
</g>
</svg>
