<?xml version="1.0" encoding="UTF-8"?>
<svg xmlns="http://www.w3.org/2000/svg" xmlns:xlink="http://www.w3.org/1999/xlink" width="px" height="60px" viewBox="0 0 138 60" version="1.1">
<g id="surface1">
<path style=" stroke:none;fill-rule:nonzero;fill:rgb(0%,0%,0%);fill-opacity:1;" d="M 134.253906 17.164062 L 131.886719 14.847656 L 111.65625 14.847656 L 111.65625 16.390625 L 110.304688 14.847656 L 90.074219 14.847656 L 90.074219 16.304688 L 88.71875 14.761719 L 83.390625 14.761719 L 83.390625 15.621094 L 82.8125 14.847656 L 79.886719 14.847656 L 78.3125 13.125 L 72.984375 13.125 L 72.984375 14.847656 L 68.480469 14.847656 L 68.480469 16.390625 L 67.128906 14.847656 L 61.800781 14.847656 L 61.800781 15.621094 L 61.222656 14.847656 L 58.292969 14.847656 L 56.726562 13.125 L 51.398438 13.125 L 51.398438 14.847656 L 46.898438 14.847656 L 46.898438 16.390625 L 45.484375 14.847656 L 40.15625 14.847656 L 40.15625 18.960938 L 35.976562 14.847656 L 28.855469 14.847656 L 25.253906 18.414062 L 25.253906 19.671875 L 20.359375 14.847656 L 7.328125 14.847656 L 3.730469 18.414062 L 3.730469 26.328125 L 8.316406 30.855469 L 3.730469 30.855469 L 3.730469 36.136719 L 6.097656 38.457031 L 11.183594 38.457031 L 11.183594 44.546875 L 13.550781 46.867188 L 18.878906 46.867188 L 18.878906 38.457031 L 26.335938 38.457031 L 26.335938 33.632812 L 31.226562 38.457031 L 38.351562 38.457031 L 40.164062 36.660156 L 40.164062 44.546875 L 42.53125 46.867188 L 47.859375 46.867188 L 47.859375 45.324219 L 49.273438 46.867188 L 69.503906 46.867188 L 69.503906 43.738281 L 67.605469 40.980469 L 70.15625 40.980469 L 76.125 46.867188 L 87.484375 46.867188 L 91.085938 43.296875 L 91.085938 38.691406 L 87.484375 35.125 L 87.246094 34.886719 L 91.09375 34.886719 L 91.09375 34.113281 L 91.816406 34.886719 L 96.335938 34.886719 L 97.785156 29.683594 L 98.585938 32.570312 L 100.949219 34.886719 L 102.789062 34.886719 L 102.789062 44.554688 L 105.15625 46.875 L 112.6875 46.875 L 112.6875 45.332031 L 114.039062 46.875 L 134.269531 46.875 L 134.269531 42.226562 L 132.695312 40.84375 L 134.269531 40.84375 L 134.269531 31.875 L 133.085938 30.964844 L 134.269531 30.964844 L 134.269531 27.238281 L 133.085938 26.175781 L 134.269531 26.175781 L 134.269531 21.527344 L 133.480469 20.894531 L 134.269531 20.894531 L 134.269531 17.164062 Z M 83.792969 32.804688 L 83.765625 32.804688 L 83.792969 32.78125 Z M 83.792969 32.804688 "/>
<path style=" stroke:none;fill-rule:nonzero;fill:rgb(100%,100%,100%);fill-opacity:1;" d="M 7.621094 15.546875 L 4.4375 18.703125 L 4.4375 26.039062 L 7.628906 29.203125 L 20.070312 29.203125 L 23.261719 26.039062 L 23.261719 18.703125 L 20.070312 15.539062 L 7.621094 15.539062 Z M 19.339844 25.324219 L 8.351562 25.324219 L 8.351562 19.425781 L 19.339844 19.425781 Z M 19.339844 25.324219 "/>
<path style=" stroke:none;fill-rule:nonzero;fill:rgb(100%,100%,100%);fill-opacity:1;" d="M 29.144531 15.546875 L 25.953125 18.710938 L 25.953125 32.292969 L 29.144531 35.453125 L 35.691406 35.453125 L 38.882812 32.292969 L 38.882812 18.703125 L 35.691406 15.539062 L 29.144531 15.539062 Z M 34.957031 31.566406 L 29.867188 31.566406 L 29.867188 19.425781 L 34.957031 19.425781 Z M 34.957031 31.566406 "/>
<path style=" stroke:none;fill-rule:nonzero;fill:rgb(100%,100%,100%);fill-opacity:1;" d="M 57.339844 35.445312 L 60.53125 32.28125 L 60.53125 22.429688 L 57.339844 19.265625 L 50.792969 19.265625 L 47.601562 22.429688 L 47.601562 32.28125 L 50.792969 35.445312 Z M 51.527344 23.15625 L 56.617188 23.15625 L 56.617188 31.566406 L 51.527344 31.566406 Z M 51.527344 23.15625 "/>
<path style=" stroke:none;fill-rule:nonzero;fill:rgb(100%,100%,100%);fill-opacity:1;" d="M 4.4375 35.445312 L 11.890625 35.445312 L 11.890625 43.847656 L 15.808594 43.847656 L 15.808594 35.445312 L 23.253906 35.445312 L 23.253906 31.554688 L 4.4375 31.554688 Z M 4.4375 35.445312 "/>
<path style=" stroke:none;fill-rule:nonzero;fill:rgb(100%,100%,100%);fill-opacity:1;" d="M 60.523438 15.546875 L 56.019531 15.546875 L 56.019531 13.824219 L 52.105469 13.824219 L 52.105469 15.546875 L 47.601562 15.546875 L 47.601562 17.875 L 60.523438 17.875 Z M 60.523438 15.546875 "/>
<path style=" stroke:none;fill-rule:nonzero;fill:rgb(100%,100%,100%);fill-opacity:1;" d="M 44.777344 15.546875 L 40.863281 15.546875 L 40.863281 43.847656 L 44.777344 43.847656 L 44.777344 28.316406 L 46.183594 28.316406 L 46.183594 24.4375 L 44.777344 24.4375 Z M 44.777344 15.546875 "/>
<path style=" stroke:none;fill-rule:nonzero;fill:rgb(100%,100%,100%);fill-opacity:1;" d="M 51.515625 36.457031 L 47.601562 36.457031 L 47.601562 43.847656 L 66.429688 43.847656 L 66.429688 39.96875 L 51.515625 39.96875 Z M 51.515625 36.457031 "/>
<path style=" stroke:none;fill-rule:nonzero;fill:rgb(100%,100%,100%);fill-opacity:1;" d="M 66.429688 15.546875 L 62.515625 15.546875 L 62.515625 35.445312 L 66.429688 35.445312 L 66.429688 28.316406 L 67.929688 28.316406 L 67.929688 24.4375 L 66.429688 24.4375 Z M 66.429688 15.546875 "/>
<path style=" stroke:none;fill-rule:nonzero;fill:rgb(100%,100%,100%);fill-opacity:1;" d="M 78.925781 31.945312 L 82.117188 28.78125 L 82.117188 22.421875 L 78.925781 19.257812 L 72.378906 19.257812 L 69.1875 22.421875 L 69.1875 28.78125 L 72.378906 31.945312 Z M 73.113281 23.144531 L 78.203125 23.144531 L 78.203125 28.0625 L 73.113281 28.0625 Z M 73.113281 23.144531 "/>
<path style=" stroke:none;fill-rule:nonzero;fill:rgb(100%,100%,100%);fill-opacity:1;" d="M 74.046875 33.503906 L 70.855469 36.667969 L 70.855469 40.699219 L 74.046875 43.863281 L 84.824219 43.863281 L 88.015625 40.699219 L 88.015625 36.667969 L 84.824219 33.503906 Z M 84.09375 39.976562 L 74.769531 39.976562 L 74.769531 37.386719 L 84.09375 37.386719 Z M 84.09375 39.976562 "/>
<path style=" stroke:none;fill-rule:nonzero;fill:rgb(100%,100%,100%);fill-opacity:1;" d="M 82.109375 15.546875 L 77.613281 15.546875 L 77.613281 13.824219 L 73.691406 13.824219 L 73.691406 15.546875 L 69.1875 15.546875 L 69.1875 17.875 L 82.109375 17.875 Z M 82.109375 15.546875 "/>
<path style=" stroke:none;fill-rule:nonzero;fill:rgb(100%,100%,100%);fill-opacity:1;" d="M 84.097656 19.265625 L 83.222656 19.265625 L 83.222656 23.15625 L 84.097656 23.15625 L 84.097656 25.414062 L 83.222656 25.414062 L 83.222656 29.296875 L 84.097656 29.296875 L 84.097656 31.859375 L 88.011719 31.859375 L 88.011719 15.460938 L 84.097656 15.460938 Z M 84.097656 19.265625 "/>
<path style=" stroke:none;fill-rule:nonzero;fill:rgb(100%,100%,100%);fill-opacity:1;" d="M 131.171875 25.609375 L 112.355469 25.609375 L 112.355469 27.9375 L 131.171875 27.9375 Z M 131.171875 25.609375 "/>
<path style=" stroke:none;fill-rule:nonzero;fill:rgb(100%,100%,100%);fill-opacity:1;" d="M 112.355469 23.15625 L 131.179688 23.15625 L 131.179688 19.898438 L 116.269531 19.898438 L 116.269531 17.875 L 131.179688 17.875 L 131.179688 15.546875 L 112.355469 15.546875 Z M 112.355469 23.15625 "/>
<path style=" stroke:none;fill-rule:nonzero;fill:rgb(100%,100%,100%);fill-opacity:1;" d="M 112.355469 43.847656 L 131.179688 43.847656 L 131.179688 40.597656 L 116.269531 40.597656 L 116.269531 37.816406 L 131.179688 37.816406 L 131.179688 30.25 L 112.355469 30.25 L 112.355469 33.496094 L 127.273438 33.496094 L 127.273438 35.488281 L 112.355469 35.488281 Z M 112.355469 43.847656 "/>
<path style=" stroke:none;fill-rule:nonzero;fill:rgb(100%,100%,100%);fill-opacity:1;" d="M 101.980469 17.875 L 101.980469 15.546875 L 90.777344 15.546875 L 90.777344 17.875 L 94.242188 17.875 L 90.363281 31.859375 L 93.417969 31.859375 L 96.261719 21.617188 L 99.105469 31.859375 L 102.160156 31.859375 L 98.277344 17.875 Z M 101.980469 17.875 "/>
<path style=" stroke:none;fill-rule:nonzero;fill:rgb(100%,100%,100%);fill-opacity:1;" d="M 109.597656 15.546875 L 107.25 15.546875 L 107.25 43.855469 L 109.597656 43.855469 Z M 109.597656 15.546875 "/>
<path style=" stroke:none;fill-rule:nonzero;fill:rgb(100%,100%,100%);fill-opacity:1;" d="M 103.476562 21.441406 L 101.835938 21.441406 L 101.835938 25.320312 L 103.476562 25.320312 L 103.476562 43.847656 L 105.828125 43.847656 L 105.828125 15.546875 L 103.476562 15.546875 Z M 103.476562 21.441406 "/>
</g>
</svg>
