<?xml version="1.0" encoding="UTF-8"?>
<svg xmlns="http://www.w3.org/2000/svg" xmlns:xlink="http://www.w3.org/1999/xlink" width="px" height="60px" viewBox="0 0 146 60" version="1.1">
<g id="surface1">
<path style=" stroke:none;fill-rule:nonzero;fill:rgb(34.901961%,34.117647%,34.117647%);fill-opacity:1;" d="M 99.3125 21.5625 L 99.3125 26.445312 L 98.046875 26.445312 L 98.046875 21.5625 L 94.773438 21.5625 L 94.773438 21.953125 C 95.101562 21.953125 95.410156 22.523438 95.410156 23.125 L 95.410156 33.628906 L 88.667969 33.628906 L 88.667969 24.234375 L 93.15625 24.234375 L 93.15625 22.011719 L 85.203125 22.011719 L 85.203125 22.410156 C 85.53125 22.410156 85.847656 22.972656 85.847656 23.574219 L 85.847656 35.851562 L 95.410156 35.851562 L 95.410156 39.375 L 98.035156 39.375 L 98.035156 28.660156 L 99.300781 28.660156 L 99.300781 39.375 L 102.121094 39.375 L 102.121094 21.5625 L 99.300781 21.5625 Z M 99.3125 21.5625 "/>
<path style=" stroke:none;fill-rule:nonzero;fill:rgb(34.901961%,34.117647%,34.117647%);fill-opacity:1;" d="M 140.578125 36.257812 L 140.578125 22.03125 L 126.738281 22.03125 L 126.738281 24.253906 L 137.75 24.253906 L 137.75 36.257812 L 135.496094 36.257812 L 135.496094 30.007812 L 132.800781 30.007812 L 132.800781 36.257812 L 131.273438 36.257812 L 131.273438 30.007812 L 128.128906 30.007812 L 128.128906 30.40625 C 128.457031 30.40625 128.761719 30.96875 128.761719 31.570312 L 128.761719 36.269531 L 125.78125 36.269531 L 125.78125 38.492188 L 142.257812 38.492188 L 142.257812 36.269531 L 140.550781 36.269531 Z M 140.578125 36.257812 "/>
<path style=" stroke:none;fill-rule:nonzero;fill:rgb(34.901961%,34.117647%,34.117647%);fill-opacity:1;" d="M 78.789062 21.5625 L 78.789062 39.355469 L 81.617188 39.355469 L 81.617188 21.5625 Z M 78.789062 21.5625 "/>
<path style=" stroke:none;fill-rule:nonzero;fill:rgb(34.901961%,34.117647%,34.117647%);fill-opacity:1;" d="M 74.355469 21.5625 L 74.355469 21.953125 C 74.683594 21.953125 75 22.523438 75 23.125 L 75 26.445312 L 72.1875 26.445312 L 72.1875 28.640625 L 75 28.640625 L 75 39.355469 L 77.636719 39.355469 L 77.636719 21.5625 Z M 74.355469 21.5625 "/>
<path style=" stroke:none;fill-rule:nonzero;fill:rgb(34.901961%,34.117647%,34.117647%);fill-opacity:1;" d="M 69.734375 29.183594 L 69.582031 29.066406 L 69.609375 28.988281 C 70.769531 26.796875 71.335938 24.507812 71.335938 22.003906 L 67.25 22.003906 L 67.25 22.398438 C 67.25 22.398438 68.140625 22.613281 68.140625 24.058594 C 68.140625 24.15625 68.152344 28.96875 63.558594 33.289062 C 63.683594 33.414062 64.765625 34.464844 64.863281 34.550781 C 64.863281 34.550781 66.578125 33.484375 68.382812 30.949219 L 68.4375 30.871094 L 68.515625 30.941406 C 69.226562 31.53125 70.289062 32.414062 72.171875 35.132812 C 72.332031 34.910156 73.636719 33.066406 73.714844 32.949219 C 72.878906 31.851562 71.460938 30.523438 69.714844 29.195312 "/>
<path style=" stroke:none;fill-rule:nonzero;fill:rgb(34.901961%,34.117647%,34.117647%);fill-opacity:1;" d="M 107.183594 35.503906 L 118.972656 35.503906 L 118.972656 39.34375 L 121.792969 39.34375 L 121.792969 33.28125 L 107.183594 33.28125 Z M 107.183594 35.503906 "/>
<path style=" stroke:none;fill-rule:nonzero;fill:rgb(34.901961%,34.117647%,34.117647%);fill-opacity:1;" d="M 121.789062 21.546875 L 118.328125 21.546875 L 118.328125 21.933594 C 118.65625 21.933594 118.972656 22.496094 118.972656 23.097656 L 118.972656 31.757812 L 121.800781 31.757812 L 121.800781 28.621094 L 124.570312 28.621094 L 124.570312 26.429688 L 121.800781 26.429688 L 121.800781 21.546875 Z M 121.789062 21.546875 "/>
<path style=" stroke:none;fill-rule:nonzero;fill:rgb(34.901961%,34.117647%,34.117647%);fill-opacity:1;" d="M 111.125 30.066406 C 109.890625 30.066406 108.902344 28.894531 108.902344 27.449219 C 108.902344 26 109.898438 24.828125 111.125 24.828125 C 112.355469 24.828125 113.351562 26 113.351562 27.449219 C 113.351562 28.894531 112.355469 30.066406 111.125 30.066406 Z M 106.121094 27.59375 C 106.121094 29.980469 108.363281 31.941406 111.125 31.941406 C 113.886719 31.941406 116.132812 29.992188 116.132812 27.59375 C 116.132812 26.300781 115.480469 25.148438 114.433594 24.351562 L 116.71875 24.351562 L 116.71875 22.128906 L 112.765625 22.128906 L 112.765625 20.625 L 109.304688 20.625 L 109.304688 21.011719 C 109.582031 21.011719 109.871094 21.480469 109.917969 22.023438 L 109.917969 22.128906 L 105.71875 22.128906 L 105.71875 24.351562 L 107.808594 24.351562 C 106.773438 25.148438 106.109375 26.300781 106.109375 27.59375 "/>
<path style=" stroke:none;fill-rule:nonzero;fill:rgb(34.901961%,34.117647%,34.117647%);fill-opacity:1;" d="M 50.59375 33.457031 L 47.128906 33.457031 L 47.128906 33.84375 C 47.457031 33.84375 47.773438 34.40625 47.773438 35 L 47.773438 39.21875 L 61.238281 39.21875 L 61.238281 37 L 50.59375 37 L 50.59375 33.445312 Z M 50.59375 33.457031 "/>
<path style=" stroke:none;fill-rule:nonzero;fill:rgb(34.901961%,34.117647%,34.117647%);fill-opacity:1;" d="M 47.753906 26.941406 C 47.753906 25.3125 48.855469 24 50.207031 24 C 51.558594 24 52.671875 25.320312 52.671875 26.941406 C 52.671875 28.5625 51.570312 29.882812 50.207031 29.882812 C 48.84375 29.882812 47.753906 28.5625 47.753906 26.941406 Z M 58.1875 26.019531 L 58.1875 27.5625 L 55.453125 27.5625 C 55.480469 27.359375 55.5 27.15625 55.5 26.949219 C 55.5 26.628906 55.464844 26.320312 55.40625 26.019531 L 58.195312 26.019531 Z M 54.550781 29.785156 L 58.1875 29.785156 L 58.1875 34.414062 L 61.007812 34.414062 L 61.007812 21.5625 L 57.542969 21.5625 L 57.542969 21.953125 C 57.871094 21.953125 58.1875 22.523438 58.1875 23.117188 L 58.1875 23.804688 L 54.300781 23.804688 C 53.332031 22.691406 51.855469 21.980469 50.207031 21.980469 C 47.292969 21.980469 44.921875 24.214844 44.921875 26.949219 C 44.921875 29.6875 47.292969 31.917969 50.207031 31.917969 C 52.011719 31.917969 53.601562 31.074219 54.550781 29.773438 "/>
<path style=" stroke:none;fill-rule:nonzero;fill:rgb(100%,100%,100%);fill-opacity:1;" d="M 3.742188 30 C 3.742188 39.308594 11.292969 46.875 20.585938 46.875 C 29.878906 46.875 37.4375 39.300781 37.4375 30 C 37.4375 20.699219 29.878906 13.125 20.585938 13.125 C 11.292969 13.125 3.742188 20.691406 3.742188 30 Z M 3.742188 30 "/>
<path style=" stroke:none;fill-rule:nonzero;fill:rgb(0%,20%,47.058824%);fill-opacity:1;" d="M 4.242188 30 C 4.242188 20.964844 11.574219 13.621094 20.585938 13.621094 C 29.597656 13.621094 36.929688 20.972656 36.929688 30 C 36.929688 39.027344 29.597656 46.382812 20.585938 46.382812 C 11.574219 46.382812 4.242188 39.027344 4.242188 30 Z M 4.242188 30 "/>
<path style=" stroke:none;fill-rule:nonzero;fill:rgb(100%,100%,100%);fill-opacity:1;" d="M 20.585938 41.929688 C 14.011719 41.929688 8.675781 36.585938 8.675781 30 C 8.675781 23.410156 14.011719 18.066406 20.585938 18.066406 C 27.160156 18.066406 32.503906 23.410156 32.503906 30.007812 C 32.503906 36.601562 27.167969 41.9375 20.585938 41.9375 "/>
<path style=" stroke:none;fill-rule:nonzero;fill:rgb(100%,100%,100%);fill-opacity:1;" d="M 6.8125 33.875 C 6.8125 34.125 7.015625 34.335938 7.265625 34.335938 C 7.519531 34.335938 7.722656 34.125 7.722656 33.875 C 7.722656 33.621094 7.519531 33.417969 7.265625 33.417969 C 7.015625 33.417969 6.8125 33.621094 6.8125 33.875 Z M 6.8125 33.875 "/>
<path style=" stroke:none;fill-rule:nonzero;fill:rgb(100%,100%,100%);fill-opacity:1;" d="M 34.539062 33.9375 C 34.539062 34.199219 34.328125 34.410156 34.074219 34.410156 C 33.820312 34.410156 33.609375 34.199219 33.609375 33.9375 C 33.609375 33.675781 33.816406 33.464844 34.074219 33.464844 C 34.332031 33.464844 34.539062 33.675781 34.539062 33.9375 Z M 34.539062 33.9375 "/>
<path style=" stroke:none;fill-rule:nonzero;fill:rgb(100%,100%,100%);fill-opacity:1;" d="M 8.144531 25.941406 C 7.984375 26.464844 7.429688 26.679688 6.804688 26.484375 C 6.023438 26.238281 6.054688 25.765625 6.128906 25.507812 C 6.199219 25.304688 6.332031 25.132812 6.523438 25.035156 C 6.769531 24.910156 7.089844 24.894531 7.429688 25 C 7.773438 25.105469 7.996094 25.269531 8.101562 25.472656 C 8.199219 25.667969 8.164062 25.851562 8.136719 25.941406 M 7.464844 24.507812 C 7.140625 24.402344 6.839844 24.417969 6.578125 24.558594 C 6.296875 24.707031 6.089844 24.988281 5.96875 25.359375 C 5.855469 25.730469 5.871094 26.078125 6.019531 26.359375 C 6.164062 26.640625 6.433594 26.855469 6.746094 26.960938 C 7.308594 27.136719 8.03125 26.957031 8.292969 26.132812 C 8.402344 25.773438 8.382812 25.429688 8.230469 25.132812 C 8.074219 24.839844 7.800781 24.621094 7.464844 24.515625 "/>
<path style=" stroke:none;fill-rule:nonzero;fill:rgb(100%,100%,100%);fill-opacity:1;" d="M 10.699219 21.511719 L 10.269531 21.105469 L 10.355469 21.019531 L 10.550781 21.148438 C 10.78125 21.265625 10.957031 21.140625 11.042969 21.046875 C 11.21875 20.867188 11.191406 20.65625 11.078125 20.550781 C 10.972656 20.449219 10.839844 20.386719 10.539062 20.4375 L 10.363281 20.464844 C 9.953125 20.527344 9.695312 20.464844 9.5 20.28125 C 9.238281 20.035156 9.265625 19.648438 9.570312 19.324219 C 9.820312 19.058594 9.960938 19.042969 9.960938 19.042969 L 10.332031 19.394531 L 10.242188 19.496094 C 10.242188 19.496094 10.152344 19.382812 10.003906 19.367188 C 9.925781 19.367188 9.808594 19.367188 9.6875 19.496094 C 9.546875 19.640625 9.539062 19.816406 9.667969 19.9375 C 9.75 20.023438 9.855469 20.050781 10.1875 20 L 10.292969 19.988281 C 10.761719 19.917969 11.007812 19.964844 11.226562 20.167969 C 11.324219 20.261719 11.476562 20.464844 11.421875 20.773438 C 11.394531 20.9375 11.308594 21.082031 11.167969 21.230469 C 11.042969 21.363281 10.839844 21.527344 10.707031 21.527344 "/>
<path style=" stroke:none;fill-rule:nonzero;fill:rgb(100%,100%,100%);fill-opacity:1;" d="M 30.902344 22.0625 L 31.386719 21.726562 L 31.457031 21.832031 L 31.289062 21.992188 C 31.121094 22.195312 31.210938 22.394531 31.289062 22.492188 C 31.429688 22.695312 31.640625 22.714844 31.773438 22.632812 C 31.890625 22.546875 31.976562 22.433594 31.996094 22.125 L 32.011719 21.949219 C 32.039062 21.535156 32.144531 21.296875 32.371094 21.140625 C 32.664062 20.9375 33.042969 21.042969 33.289062 21.410156 C 33.492188 21.710938 33.484375 21.851562 33.484375 21.851562 L 33.0625 22.140625 L 32.988281 22.035156 C 32.988281 22.035156 33.113281 21.972656 33.164062 21.824219 C 33.183594 21.753906 33.203125 21.640625 33.097656 21.484375 C 32.980469 21.316406 32.820312 21.269531 32.671875 21.367188 C 32.574219 21.4375 32.515625 21.535156 32.503906 21.867188 L 32.503906 21.972656 C 32.46875 22.449219 32.371094 22.679688 32.125 22.851562 C 32.011719 22.925781 31.78125 23.03125 31.492188 22.914062 C 31.34375 22.851562 31.21875 22.738281 31.097656 22.570312 C 30.992188 22.414062 30.882812 22.1875 30.910156 22.054688 "/>
<path style=" stroke:none;fill-rule:nonzero;fill:rgb(100%,100%,100%);fill-opacity:1;" d="M 12.496094 18.425781 C 12.621094 18.335938 12.65625 18.371094 12.753906 18.503906 L 12.839844 18.441406 L 12.460938 17.929688 L 12.367188 17.992188 C 12.464844 18.125 12.496094 18.167969 12.367188 18.257812 L 12.003906 18.53125 L 11.527344 17.898438 C 11.527344 17.898438 11.8125 17.6875 11.882812 17.632812 C 12.050781 17.507812 12.128906 17.589844 12.222656 17.722656 L 12.3125 17.660156 L 12.023438 17.273438 L 10.804688 18.1875 L 10.867188 18.28125 C 10.949219 18.214844 11.105469 18.082031 11.230469 18.257812 C 11.363281 18.433594 12.25 19.628906 12.25 19.628906 C 12.402344 19.832031 12.328125 19.867188 12.1875 19.972656 L 12.257812 20.066406 L 13.503906 19.128906 L 13.191406 18.707031 L 13.097656 18.773438 C 13.238281 18.960938 13.210938 19.082031 13.085938 19.171875 C 13 19.234375 12.691406 19.46875 12.691406 19.46875 L 12.121094 18.707031 L 12.488281 18.433594 Z M 12.496094 18.425781 "/>
<path style=" stroke:none;fill-rule:nonzero;fill:rgb(100%,100%,100%);fill-opacity:1;" d="M 28.75 18.550781 C 28.882812 18.636719 28.855469 18.6875 28.761719 18.820312 L 28.855469 18.882812 L 29.210938 18.347656 L 29.121094 18.285156 C 29.027344 18.417969 29 18.460938 28.867188 18.375 L 28.488281 18.125 L 28.929688 17.460938 C 28.929688 17.460938 29.226562 17.660156 29.300781 17.714844 C 29.476562 17.835938 29.421875 17.933594 29.332031 18.066406 L 29.421875 18.128906 L 29.6875 17.730469 L 28.417969 16.878906 L 28.355469 16.96875 C 28.441406 17.027344 28.613281 17.125 28.496094 17.316406 C 28.371094 17.496094 27.546875 18.734375 27.546875 18.734375 C 27.40625 18.945312 27.351562 18.882812 27.203125 18.785156 L 27.132812 18.882812 L 28.433594 19.753906 L 28.726562 19.320312 L 28.636719 19.253906 C 28.503906 19.453125 28.382812 19.464844 28.25 19.375 C 28.164062 19.320312 27.84375 19.101562 27.84375 19.101562 L 28.371094 18.3125 L 28.75 18.566406 Z M 28.75 18.550781 "/>
<path style=" stroke:none;fill-rule:nonzero;fill:rgb(100%,100%,100%);fill-opacity:1;" d="M 13.808594 16.578125 C 13.738281 16.445312 13.808594 16.402344 13.96875 16.316406 L 13.917969 16.21875 L 13.054688 16.664062 L 13.105469 16.761719 C 13.105469 16.761719 13.324219 16.605469 13.414062 16.78125 C 13.457031 16.867188 14.25 18.421875 14.25 18.421875 C 14.320312 18.554688 14.25 18.597656 14.089844 18.679688 L 14.136719 18.777344 L 15.0625 18.300781 L 15.015625 18.203125 C 14.875 18.273438 14.726562 18.378906 14.640625 18.214844 C 14.558594 18.054688 13.800781 16.578125 13.800781 16.578125 "/>
<path style=" stroke:none;fill-rule:nonzero;fill:rgb(100%,100%,100%);fill-opacity:1;" d="M 18.804688 16.003906 L 18.613281 15.054688 C 18.585938 14.90625 18.65625 14.882812 18.839844 14.847656 L 18.816406 14.742188 L 17.988281 14.914062 L 18.011719 15.019531 C 18.011719 15.019531 18.261719 14.925781 18.304688 15.125 L 18.5 16.121094 C 18.566406 16.445312 18.605469 16.699219 18.480469 16.886719 C 18.367188 17.058594 18.1875 17.113281 18.117188 17.128906 C 18.003906 17.148438 17.878906 17.15625 17.730469 17.078125 C 17.597656 17.007812 17.457031 16.875 17.359375 16.394531 L 17.148438 15.347656 C 17.121094 15.199219 17.191406 15.179688 17.378906 15.144531 L 17.359375 15.039062 L 16.410156 15.230469 L 16.433594 15.335938 C 16.433594 15.335938 16.683594 15.242188 16.726562 15.441406 L 16.9375 16.5 C 17.015625 16.886719 17.15625 17.132812 17.371094 17.269531 C 17.652344 17.4375 17.96875 17.375 18.101562 17.34375 C 18.277344 17.308594 18.507812 17.238281 18.699219 16.992188 C 18.914062 16.71875 18.882812 16.359375 18.8125 16.007812 "/>
<path style=" stroke:none;fill-rule:nonzero;fill:rgb(100%,100%,100%);fill-opacity:1;" d="M 24.296875 15.417969 C 24.332031 15.269531 24.402344 15.277344 24.585938 15.316406 L 24.613281 15.210938 L 23.667969 14.996094 L 23.644531 15.101562 C 23.644531 15.101562 23.914062 15.121094 23.871094 15.316406 C 23.847656 15.417969 23.457031 17.109375 23.457031 17.109375 C 23.421875 17.257812 23.34375 17.246094 23.160156 17.203125 L 23.132812 17.308594 L 24.152344 17.546875 L 24.179688 17.441406 C 24.023438 17.40625 23.847656 17.386719 23.882812 17.210938 C 23.925781 17.035156 24.296875 15.417969 24.296875 15.417969 Z M 24.296875 15.417969 "/>
<path style=" stroke:none;fill-rule:nonzero;fill:rgb(100%,100%,100%);fill-opacity:1;" d="M 34.179688 23.621094 C 34.320312 23.550781 34.355469 23.621094 34.433594 23.785156 L 34.53125 23.734375 L 34.101562 22.863281 L 34.003906 22.910156 C 34.003906 22.910156 34.160156 23.128906 33.976562 23.222656 C 33.894531 23.261719 32.328125 24.035156 32.328125 24.035156 C 32.1875 24.101562 32.152344 24.035156 32.066406 23.867188 L 31.96875 23.917969 L 32.433594 24.851562 L 32.53125 24.804688 C 32.460938 24.664062 32.363281 24.507812 32.53125 24.429688 C 32.691406 24.351562 34.179688 23.621094 34.179688 23.621094 Z M 34.179688 23.621094 "/>
<path style=" stroke:none;fill-rule:nonzero;fill:rgb(100%,100%,100%);fill-opacity:1;" d="M 34.972656 24.746094 L 34.488281 24.816406 L 34.523438 24.9375 C 34.683594 24.914062 34.796875 24.902344 34.859375 25.105469 C 34.875 25.140625 34.894531 25.21875 34.992188 25.554688 C 34.71875 25.632812 33.175781 26.097656 33.175781 26.097656 C 33.027344 26.136719 33.007812 26.0625 32.953125 25.886719 L 32.847656 25.914062 L 33.140625 26.917969 L 33.246094 26.890625 C 33.203125 26.734375 33.125 26.566406 33.300781 26.519531 C 33.464844 26.46875 34.886719 26.046875 35.121094 25.976562 C 35.21875 26.3125 35.238281 26.382812 35.253906 26.417969 C 35.308594 26.625 35.210938 26.679688 35.0625 26.742188 L 35.097656 26.863281 L 35.539062 26.660156 L 34.972656 24.730469 Z M 34.972656 24.746094 "/>
<path style=" stroke:none;fill-rule:nonzero;fill:rgb(100%,100%,100%);fill-opacity:1;" d="M 31.097656 19.910156 C 30.910156 20.109375 30.742188 20.117188 30.664062 20.109375 C 30.601562 20.101562 30.574219 20.082031 30.488281 19.996094 L 30.332031 19.839844 L 31.058594 19.109375 L 31.160156 19.214844 C 31.28125 19.335938 31.402344 19.609375 31.105469 19.910156 M 31.652344 19.628906 C 31.609375 19.417969 31.472656 19.257812 31.335938 19.125 L 30.683594 18.476562 L 30.609375 18.554688 C 30.609375 18.554688 30.824219 18.714844 30.683594 18.855469 C 30.613281 18.925781 29.394531 20.164062 29.394531 20.164062 C 29.289062 20.269531 29.226562 20.222656 29.09375 20.085938 L 29.015625 20.164062 L 29.757812 20.894531 L 29.835938 20.820312 C 29.722656 20.707031 29.582031 20.59375 29.710938 20.46875 L 30.199219 19.96875 L 30.398438 20.164062 L 30.304688 20.699219 C 30.265625 21 30.242188 21.183594 30.292969 21.332031 C 30.320312 21.421875 30.367188 21.492188 30.488281 21.613281 L 30.714844 21.832031 L 30.78125 21.761719 L 30.734375 21.699219 C 30.707031 21.65625 30.636719 21.558594 30.644531 21.316406 C 30.644531 21.09375 30.679688 20.804688 30.71875 20.4375 L 30.742188 20.292969 C 31.097656 20.328125 31.332031 20.261719 31.511719 20.082031 C 31.675781 19.917969 31.679688 19.707031 31.660156 19.617188 "/>
<path style=" stroke:none;fill-rule:nonzero;fill:rgb(100%,100%,100%);fill-opacity:1;" d="M 6.921875 28.457031 C 6.824219 28.453125 6.734375 28.445312 6.628906 28.386719 C 6.507812 28.324219 5.835938 27.832031 5.714844 27.71875 C 5.640625 27.648438 5.609375 27.613281 5.589844 27.550781 L 5.570312 27.425781 L 5.570312 27.339844 L 5.46875 27.328125 L 5.394531 28.105469 L 5.503906 28.121094 L 5.503906 28.042969 L 5.570312 28.007812 L 5.707031 28.066406 L 6.460938 28.570312 C 6.460938 28.570312 5.625 28.957031 5.546875 28.984375 L 5.457031 29.015625 L 5.429688 28.992188 L 5.429688 28.910156 L 5.324219 28.894531 L 5.246094 29.773438 L 5.351562 29.773438 C 5.351562 29.773438 5.351562 29.660156 5.40625 29.589844 C 5.449219 29.535156 5.535156 29.472656 5.640625 29.40625 C 5.808594 29.316406 6.515625 28.964844 6.566406 28.949219 C 6.65625 28.921875 6.726562 28.894531 6.878906 28.910156 C 6.878906 28.910156 7.195312 28.9375 7.394531 28.957031 C 7.589844 28.972656 7.582031 29.085938 7.570312 29.230469 L 7.675781 29.230469 L 7.765625 28.207031 L 7.667969 28.207031 C 7.652344 28.367188 7.652344 28.535156 7.421875 28.515625 C 7.195312 28.492188 6.914062 28.464844 6.914062 28.464844 "/>
<path style=" stroke:none;fill-rule:nonzero;fill:rgb(100%,100%,100%);fill-opacity:1;" d="M 34.277344 28.945312 C 34.375 28.9375 34.46875 28.925781 34.574219 28.960938 C 34.707031 29 35.464844 29.351562 35.589844 29.445312 C 35.679688 29.5 35.714844 29.527344 35.75 29.585938 L 35.792969 29.703125 L 35.792969 29.789062 L 35.914062 29.773438 L 35.835938 29 L 35.722656 29.015625 L 35.722656 29.09375 L 35.6875 29.140625 C 35.644531 29.140625 35.597656 29.140625 35.535156 29.121094 L 34.699219 28.761719 C 34.699219 28.761719 35.441406 28.226562 35.519531 28.1875 L 35.609375 28.144531 L 35.640625 28.164062 L 35.640625 28.179688 L 35.652344 28.25 L 35.757812 28.234375 L 35.675781 27.355469 L 35.570312 27.371094 C 35.570312 27.371094 35.582031 27.488281 35.546875 27.574219 C 35.519531 27.636719 35.449219 27.714844 35.351562 27.800781 C 35.203125 27.925781 34.574219 28.398438 34.53125 28.417969 C 34.445312 28.46875 34.382812 28.503906 34.230469 28.515625 C 34.230469 28.515625 33.914062 28.542969 33.714844 28.566406 C 33.519531 28.585938 33.507812 28.472656 33.492188 28.328125 L 33.386719 28.339844 L 33.492188 29.375 L 33.589844 29.359375 C 33.574219 29.183594 33.542969 29.03125 33.773438 29.007812 C 33.996094 28.988281 34.277344 28.960938 34.277344 28.960938 "/>
<path style=" stroke:none;fill-rule:nonzero;fill:rgb(100%,100%,100%);fill-opacity:1;" d="M 10.101562 22.363281 L 10.019531 22.496094 L 7.738281 23.011719 L 8.851562 23.699219 C 9.09375 23.847656 9.167969 23.65625 9.253906 23.53125 L 9.351562 23.585938 L 8.886719 24.332031 L 8.789062 24.277344 C 8.859375 24.15625 8.953125 24.042969 8.726562 23.902344 C 8.503906 23.761719 7.015625 22.84375 7.015625 22.84375 L 7.09375 22.714844 C 7.476562 22.632812 9.335938 22.222656 9.402344 22.210938 C 9.402344 22.210938 8.453125 21.617188 8.242188 21.492188 C 8.039062 21.367188 7.949219 21.535156 7.886719 21.640625 L 7.792969 21.582031 L 8.222656 20.894531 L 8.3125 20.957031 C 8.25 21.070312 8.164062 21.167969 8.375 21.296875 C 8.578125 21.421875 10.101562 22.363281 10.101562 22.363281 Z M 10.101562 22.363281 "/>
<path style=" stroke:none;fill-rule:nonzero;fill:rgb(100%,100%,100%);fill-opacity:1;" d="M 22.101562 17.15625 L 21.949219 17.15625 L 20.417969 15.375 L 20.339844 16.683594 C 20.328125 16.957031 20.523438 16.945312 20.675781 16.953125 L 20.675781 17.0625 L 19.792969 17.015625 L 19.792969 16.902344 C 19.941406 16.910156 20.082031 16.9375 20.09375 16.671875 C 20.109375 16.402344 20.214844 14.660156 20.214844 14.660156 L 20.363281 14.660156 C 20.621094 14.96875 21.863281 16.417969 21.898438 16.464844 C 21.898438 16.464844 21.96875 15.355469 21.984375 15.109375 C 21.996094 14.871094 21.808594 14.871094 21.6875 14.855469 L 21.6875 14.742188 L 22.503906 14.792969 L 22.503906 14.90625 C 22.363281 14.898438 22.242188 14.878906 22.226562 15.117188 C 22.214844 15.355469 22.109375 17.148438 22.109375 17.148438 "/>
<path style=" stroke:none;fill-rule:nonzero;fill:rgb(100%,100%,100%);fill-opacity:1;" d="M 27.75 16.5625 L 27.78125 16.449219 L 27.070312 16.140625 L 27.027344 16.246094 L 27.113281 16.28125 L 27.15625 16.34375 L 27.0625 16.476562 L 26.402344 17.140625 L 25.976562 17.5625 C 25.976562 17.496094 26.019531 16.652344 26.039062 16.28125 L 26.054688 15.957031 L 26.074219 15.875 L 26.152344 15.875 L 26.234375 15.902344 L 26.277344 15.796875 L 25.457031 15.4375 L 25.414062 15.535156 C 25.414062 15.535156 25.527344 15.585938 25.570312 15.648438 C 25.605469 15.699219 25.617188 15.796875 25.609375 15.902344 L 25.574219 18.109375 L 25.667969 18.152344 L 26.917969 16.992188 L 27.367188 16.582031 C 27.367188 16.582031 27.511719 16.457031 27.660156 16.519531 L 27.738281 16.554688 Z M 27.75 16.5625 "/>
<path style=" stroke:none;fill-rule:nonzero;fill:rgb(100%,100%,100%);fill-opacity:1;" d="M 21.359375 42.867188 L 21.359375 43.589844 L 21.167969 43.589844 L 21.167969 42.867188 L 20.675781 42.867188 L 20.675781 42.921875 C 20.726562 42.921875 20.769531 43.007812 20.769531 43.097656 L 20.769531 44.667969 L 19.75 44.667969 L 19.75 43.269531 L 20.425781 43.269531 L 20.425781 42.9375 L 19.230469 42.9375 L 19.230469 42.992188 C 19.28125 42.992188 19.328125 43.078125 19.328125 43.167969 L 19.328125 44.996094 L 20.769531 44.996094 L 20.769531 45.523438 L 21.167969 45.523438 L 21.167969 43.929688 L 21.359375 43.929688 L 21.359375 45.523438 L 21.785156 45.523438 L 21.785156 42.875 L 21.359375 42.875 Z M 21.359375 42.867188 "/>
<path style=" stroke:none;fill-rule:nonzero;fill:rgb(100%,100%,100%);fill-opacity:1;" d="M 32.8125 38.867188 C 32.476562 38.585938 31.203125 37.523438 31.183594 37.507812 L 29.851562 39.113281 L 30.101562 39.324219 L 31.164062 38.042969 C 31.164062 38.042969 32.230469 38.929688 32.539062 39.191406 C 32.425781 39.332031 32.335938 39.441406 32.335938 39.441406 L 31.617188 38.84375 L 31.359375 39.15625 L 32.074219 39.753906 L 31.933594 39.921875 L 31.21875 39.324219 L 30.917969 39.6875 L 30.964844 39.722656 C 31 39.6875 31.09375 39.703125 31.164062 39.757812 L 31.703125 40.210938 L 31.402344 40.574219 L 31.652344 40.785156 L 33.238281 38.875 L 32.988281 38.664062 C 32.988281 38.664062 32.917969 38.753906 32.824219 38.867188 "/>
<path style=" stroke:none;fill-rule:nonzero;fill:rgb(100%,100%,100%);fill-opacity:1;" d="M 15.574219 41.867188 L 14.46875 44.28125 L 14.851562 44.457031 L 15.960938 42.042969 L 15.953125 42.042969 Z M 15.574219 41.867188 "/>
<path style=" stroke:none;fill-rule:nonzero;fill:rgb(100%,100%,100%);fill-opacity:1;" d="M 14.984375 41.597656 L 14.964844 41.652344 C 15.007812 41.671875 15.015625 41.773438 14.980469 41.847656 L 14.777344 42.300781 L 14.367188 42.117188 L 14.226562 42.417969 L 14.636719 42.601562 L 13.96875 44.058594 L 14.304688 44.210938 L 15.414062 41.800781 L 14.984375 41.601562 "/>
<path style=" stroke:none;fill-rule:nonzero;fill:rgb(100%,100%,100%);fill-opacity:1;" d="M 13.875 42.339844 L 13.863281 42.3125 L 13.871094 42.3125 C 14.164062 42.078125 14.382812 41.804688 14.542969 41.46875 L 13.980469 41.207031 L 13.960938 41.257812 C 13.960938 41.257812 14.066406 41.339844 13.980469 41.539062 C 13.980469 41.539062 13.679688 42.207031 12.78125 42.5 L 12.878906 42.753906 C 12.878906 42.753906 13.183594 42.71875 13.589844 42.488281 L 13.609375 42.488281 C 13.671875 42.613281 13.765625 42.804688 13.847656 43.289062 L 14.191406 43.09375 C 14.144531 42.886719 14.03125 42.621094 13.875 42.332031 "/>
<path style=" stroke:none;fill-rule:nonzero;fill:rgb(100%,100%,100%);fill-opacity:1;" d="M 26.066406 43.945312 L 27.667969 43.179688 L 27.914062 43.691406 L 28.296875 43.507812 L 27.90625 42.691406 L 25.925781 43.648438 Z M 26.066406 43.945312 "/>
<path style=" stroke:none;fill-rule:nonzero;fill:rgb(100%,100%,100%);fill-opacity:1;" d="M 27.15625 41.109375 L 26.683594 41.335938 L 26.707031 41.386719 C 26.753906 41.363281 26.832031 41.421875 26.867188 41.496094 L 27.429688 42.664062 L 27.808594 42.480469 L 27.597656 42.046875 L 27.976562 41.863281 L 27.851562 41.597656 L 27.476562 41.777344 Z M 27.15625 41.109375 "/>
<path style=" stroke:none;fill-rule:nonzero;fill:rgb(100%,100%,100%);fill-opacity:1;" d="M 26.257812 42.964844 C 26.074219 43.058594 25.851562 42.964844 25.757812 42.777344 C 25.667969 42.578125 25.746094 42.355469 25.925781 42.261719 C 26.109375 42.171875 26.335938 42.261719 26.433594 42.453125 C 26.523438 42.640625 26.445312 42.875 26.265625 42.957031 M 25.414062 42.9375 C 25.578125 43.269531 26.003906 43.394531 26.382812 43.210938 C 26.761719 43.027344 26.929688 42.613281 26.777344 42.285156 C 26.699219 42.113281 26.542969 42.003906 26.363281 41.953125 C 26.523438 41.875 26.644531 41.820312 26.644531 41.8125 L 26.503906 41.511719 L 25.960938 41.769531 L 25.863281 41.566406 L 25.394531 41.792969 L 25.421875 41.847656 C 25.464844 41.828125 25.527344 41.867188 25.570312 41.9375 L 25.570312 41.953125 L 25.007812 42.226562 L 25.148438 42.523438 C 25.148438 42.523438 25.261719 42.472656 25.40625 42.394531 C 25.332031 42.566406 25.332031 42.753906 25.40625 42.921875 "/>
<path style=" stroke:none;fill-rule:nonzero;fill:rgb(100%,100%,100%);fill-opacity:1;" d="M 9.132812 39.050781 L 8.789062 38.65625 L 8.746094 38.691406 C 8.78125 38.726562 8.746094 38.816406 8.683594 38.878906 L 8.207031 39.296875 L 9.539062 40.828125 L 9.792969 40.609375 L 8.742188 39.402344 L 9.140625 39.050781 "/>
<path style=" stroke:none;fill-rule:nonzero;fill:rgb(100%,100%,100%);fill-opacity:1;" d="M 9.5625 38.074219 C 9.738281 37.917969 9.996094 37.925781 10.144531 38.09375 C 10.285156 38.257812 10.261719 38.515625 10.082031 38.671875 C 9.90625 38.824219 9.644531 38.820312 9.5 38.65625 C 9.359375 38.496094 9.386719 38.234375 9.5625 38.082031 M 10.71875 39.191406 L 10.542969 39.339844 C 10.542969 39.339844 10.394531 39.171875 10.277344 39.03125 L 10.339844 38.980469 L 10.4375 38.875 C 10.558594 39.015625 10.710938 39.191406 10.710938 39.191406 M 9.933594 39.148438 C 10.050781 39.289062 10.292969 39.5625 10.292969 39.5625 L 9.773438 40.019531 L 10.050781 40.335938 L 11.492188 39.078125 L 11.148438 38.683594 L 11.105469 38.726562 C 11.140625 38.761719 11.105469 38.855469 11.042969 38.917969 L 10.964844 38.988281 C 10.964844 38.988281 10.640625 38.621094 10.570312 38.539062 C 10.59375 38.328125 10.523438 38.09375 10.367188 37.910156 C 10.082031 37.582031 9.597656 37.523438 9.292969 37.792969 C 8.992188 38.058594 8.980469 38.542969 9.265625 38.875 C 9.441406 39.078125 9.703125 39.183594 9.941406 39.164062 "/>
<path style=" stroke:none;fill-rule:nonzero;fill:rgb(0%,20%,47.058824%);fill-opacity:1;" d="M 20.585938 24.269531 C 19.617188 24.269531 18.839844 25.054688 18.839844 26.019531 C 18.839844 26.984375 19.625 27.769531 20.585938 27.769531 C 21.546875 27.769531 22.339844 26.984375 22.339844 26.019531 C 22.339844 25.054688 21.554688 24.269531 20.585938 24.269531 Z M 20.585938 24.269531 "/>
<path style=" stroke:none;fill-rule:nonzero;fill:rgb(0%,20%,47.058824%);fill-opacity:1;" d="M 16.355469 38.605469 C 17.457031 39.5625 18.839844 40.46875 20.585938 41.277344 C 22.335938 40.46875 23.714844 39.5625 24.816406 38.597656 L 20.585938 34.351562 L 16.355469 38.597656 Z M 16.355469 38.605469 "/>
<path style=" stroke:none;fill-rule:nonzero;fill:rgb(0%,20%,47.058824%);fill-opacity:1;" d="M 20.585938 29.445312 C 18.691406 29.445312 17.160156 27.910156 17.160156 26.019531 C 17.160156 24.128906 18.691406 22.59375 20.585938 22.59375 C 22.480469 22.59375 24.011719 24.128906 24.011719 26.019531 C 24.011719 27.910156 22.480469 29.445312 20.585938 29.445312 Z M 29.199219 28.5 L 29.199219 22.644531 C 29.199219 22.644531 24.214844 22.804688 20.585938 20.007812 C 16.957031 22.800781 11.976562 22.644531 11.976562 22.644531 L 11.976562 28.5 C 11.976562 28.5 11.941406 29.761719 12.160156 31.132812 C 14.882812 30.632812 17.695312 30.363281 20.578125 30.363281 C 23.464844 30.363281 26.277344 30.632812 29 31.132812 C 29.21875 29.753906 29.183594 28.5 29.183594 28.5 "/>
<path style=" stroke:none;fill-rule:nonzero;fill:rgb(0%,20%,47.058824%);fill-opacity:1;" d="M 12.25 31.625 C 12.285156 31.804688 12.324219 31.988281 12.375 32.164062 C 12.78125 33.710938 13.5 35.496094 14.980469 37.21875 L 20.585938 31.589844 L 26.191406 37.21875 C 27.667969 35.496094 28.390625 33.710938 28.796875 32.164062 C 28.847656 31.980469 28.886719 31.800781 28.921875 31.625 C 26.226562 31.125 23.433594 30.863281 20.585938 30.863281 C 17.738281 30.863281 14.949219 31.125 12.25 31.625 Z M 12.25 31.625 "/>
<path style=" stroke:none;fill-rule:nonzero;fill:rgb(100%,100%,100%);fill-opacity:1;" d="M 14.742188 27.390625 L 15.546875 27.390625 L 15.597656 27.34375 L 15.597656 25.691406 L 15.546875 25.640625 L 14.894531 25.640625 C 14.78125 25.640625 14.691406 25.730469 14.691406 25.84375 L 14.691406 27.347656 L 14.742188 27.398438 "/>
<path style=" stroke:none;fill-rule:nonzero;fill:rgb(100%,100%,100%);fill-opacity:1;" d="M 13.625 27.394531 L 14.429688 27.394531 L 14.480469 27.34375 L 14.480469 25.839844 C 14.480469 25.726562 14.390625 25.636719 14.277344 25.636719 L 13.625 25.636719 L 13.574219 25.683594 L 13.574219 27.335938 L 13.625 27.386719 "/>
<path style=" stroke:none;fill-rule:nonzero;fill:rgb(100%,100%,100%);fill-opacity:1;" d="M 15.976562 25.921875 L 15.808594 25.921875 L 15.808594 27.566406 L 14.789062 27.566406 L 14.789062 27.589844 C 14.78125 27.6875 14.691406 27.765625 14.59375 27.765625 C 14.496094 27.765625 14.402344 27.6875 14.398438 27.589844 L 14.398438 27.566406 L 13.378906 27.566406 L 13.378906 25.921875 L 13.210938 25.921875 L 13.160156 25.972656 L 13.160156 27.714844 L 13.210938 27.765625 L 14.226562 27.765625 C 14.296875 27.890625 14.4375 27.980469 14.59375 27.980469 C 14.746094 27.980469 14.886719 27.890625 14.957031 27.765625 L 15.984375 27.765625 L 16.03125 27.714844 L 16.03125 25.972656 L 15.984375 25.921875 "/>
<path style=" stroke:none;fill-rule:nonzero;fill:rgb(100%,100%,100%);fill-opacity:1;" d="M 26.832031 27.210938 L 26.164062 27.210938 L 26.109375 27.265625 L 26.328125 28.65625 C 26.332031 28.714844 26.382812 28.761719 26.445312 28.761719 L 26.558594 28.761719 L 26.671875 28.65625 L 26.886719 27.265625 Z M 26.832031 27.210938 "/>
<path style=" stroke:none;fill-rule:nonzero;fill:rgb(100%,100%,100%);fill-opacity:1;" d="M 26.929688 26.597656 C 27.097656 26.449219 27.5 26.007812 27.457031 25.761719 C 27.414062 25.492188 26.671875 25.113281 26.628906 24.816406 C 26.601562 24.683594 26.65625 24.507812 26.726562 24.367188 L 26.683594 24.367188 C 26.683594 24.367188 26.066406 24.824219 26.058594 25.132812 C 26.058594 25.261719 26.144531 25.394531 26.292969 25.519531 C 26.410156 25.621094 26.570312 25.710938 26.691406 25.835938 C 26.746094 25.894531 26.796875 25.941406 26.832031 26.035156 C 26.894531 26.203125 26.71875 26.46875 26.613281 26.597656 L 26.375 26.597656 C 26.472656 26.476562 26.578125 26.324219 26.621094 26.167969 C 26.71875 25.796875 25.785156 25.695312 25.925781 25.132812 L 25.882812 25.121094 C 25.882812 25.121094 25.511719 25.480469 25.511719 25.726562 C 25.511719 25.9375 25.941406 26.132812 26.136719 26.421875 L 26.136719 26.605469 L 25.757812 26.605469 C 25.757812 26.605469 25.667969 26.589844 25.703125 26.679688 L 25.808594 27.003906 C 25.808594 27.003906 25.820312 27.046875 25.882812 27.046875 L 27.113281 27.046875 C 27.175781 27.046875 27.195312 27.003906 27.195312 27.003906 L 27.300781 26.679688 C 27.328125 26.605469 27.238281 26.609375 27.238281 26.609375 L 26.921875 26.609375 Z M 26.929688 26.597656 "/>
<path style=" stroke:none;fill-rule:nonzero;fill:rgb(100%,100%,100%);fill-opacity:1;" d="M 18.914062 37.664062 C 18.851562 37.707031 18.535156 37.917969 18.53125 37.925781 L 18.5 37.96875 L 18.535156 38.007812 L 18.566406 38.007812 L 18.613281 37.980469 L 18.746094 37.925781 L 18.746094 38.832031 L 18.691406 38.902344 L 18.566406 38.902344 L 18.53125 38.957031 L 18.578125 38.992188 L 19.148438 38.992188 L 19.195312 38.957031 L 19.160156 38.914062 L 19.054688 38.914062 L 19.007812 38.839844 L 19.007812 38.460938 L 19 38.148438 L 19 37.734375 L 19.007812 37.714844 L 18.964844 37.65625 L 18.910156 37.6875 Z M 18.914062 37.664062 "/>
<path style=" stroke:none;fill-rule:nonzero;fill:rgb(100%,100%,100%);fill-opacity:1;" d="M 19.710938 37.929688 C 19.710938 37.84375 19.757812 37.753906 19.890625 37.753906 C 19.96875 37.753906 20.054688 37.808594 20.054688 37.9375 C 20.054688 38.0625 19.976562 38.132812 19.914062 38.160156 C 19.765625 38.078125 19.710938 38.011719 19.710938 37.929688 Z M 19.484375 37.964844 C 19.484375 38.125 19.605469 38.21875 19.710938 38.273438 C 19.527344 38.359375 19.421875 38.492188 19.421875 38.644531 C 19.421875 38.871094 19.597656 39.003906 19.871094 39.003906 C 20.179688 39.003906 20.347656 38.808594 20.347656 38.605469 C 20.347656 38.398438 20.1875 38.292969 20.066406 38.222656 C 20.144531 38.1875 20.292969 38.089844 20.292969 37.914062 C 20.292969 37.738281 20.144531 37.632812 19.917969 37.632812 C 19.605469 37.632812 19.492188 37.832031 19.492188 37.964844 M 19.667969 38.640625 C 19.667969 38.476562 19.773438 38.386719 19.84375 38.335938 C 19.984375 38.421875 20.101562 38.492188 20.101562 38.644531 C 20.101562 38.785156 20.019531 38.878906 19.882812 38.878906 C 19.75 38.878906 19.660156 38.773438 19.660156 38.640625 "/>
<path style=" stroke:none;fill-rule:nonzero;fill:rgb(100%,100%,100%);fill-opacity:1;" d="M 20.875 37.929688 C 20.875 37.84375 20.921875 37.753906 21.058594 37.753906 C 21.140625 37.753906 21.21875 37.808594 21.21875 37.9375 C 21.21875 38.0625 21.148438 38.132812 21.078125 38.160156 C 20.929688 38.078125 20.875 38.011719 20.875 37.929688 Z M 20.648438 37.964844 C 20.648438 38.125 20.769531 38.21875 20.867188 38.273438 C 20.683594 38.359375 20.578125 38.492188 20.578125 38.644531 C 20.578125 38.871094 20.753906 39.003906 21.027344 39.003906 C 21.335938 39.003906 21.5 38.808594 21.5 38.605469 C 21.5 38.398438 21.335938 38.292969 21.21875 38.222656 C 21.296875 38.1875 21.4375 38.089844 21.4375 37.914062 C 21.4375 37.738281 21.289062 37.632812 21.0625 37.632812 C 20.75 37.632812 20.636719 37.832031 20.636719 37.964844 M 20.8125 38.640625 C 20.8125 38.476562 20.917969 38.386719 20.988281 38.335938 C 21.128906 38.421875 21.246094 38.492188 21.246094 38.644531 C 21.246094 38.785156 21.164062 38.878906 21.035156 38.878906 C 20.910156 38.878906 20.8125 38.773438 20.8125 38.640625 Z M 20.8125 38.640625 "/>
<path style=" stroke:none;fill-rule:nonzero;fill:rgb(100%,100%,100%);fill-opacity:1;" d="M 22.453125 37.65625 L 22.347656 37.65625 L 21.933594 37.664062 L 21.878906 37.707031 L 21.835938 38.15625 L 21.882812 38.21875 C 21.996094 38.234375 22.292969 38.332031 22.292969 38.601562 C 22.292969 38.8125 22.152344 38.886719 22.039062 38.886719 C 21.898438 38.886719 21.835938 38.816406 21.835938 38.683594 L 21.800781 38.632812 L 21.757812 38.683594 L 21.757812 38.902344 L 21.800781 38.992188 C 21.84375 39.015625 21.90625 39.023438 21.96875 39.023438 C 22.367188 39.023438 22.550781 38.761719 22.550781 38.523438 C 22.550781 38.234375 22.269531 38.078125 21.996094 38.03125 L 22.019531 37.859375 L 22.304688 37.859375 C 22.425781 37.859375 22.425781 37.898438 22.425781 37.929688 L 22.46875 37.972656 L 22.507812 37.9375 L 22.53125 37.714844 L 22.488281 37.65625 Z M 22.453125 37.65625 "/>
<path style=" stroke:none;fill-rule:nonzero;fill:rgb(100%,100%,100%);fill-opacity:1;" d="M 14.980469 37.222656 C 15.378906 37.691406 15.835938 38.15625 16.355469 38.605469 L 20.585938 34.359375 L 24.816406 38.605469 C 25.335938 38.148438 25.792969 37.683594 26.191406 37.222656 L 20.585938 31.589844 Z M 14.980469 37.222656 "/>
<path style=" stroke:none;fill-rule:nonzero;fill:rgb(100%,100%,100%);fill-opacity:1;" d="M 20.585938 30.367188 C 17.703125 30.367188 14.886719 30.632812 12.164062 31.132812 C 12.191406 31.292969 12.222656 31.457031 12.257812 31.625 C 14.957031 31.125 17.738281 30.867188 20.59375 30.867188 C 23.449219 30.867188 26.230469 31.125 28.929688 31.625 C 28.964844 31.457031 28.992188 31.292969 29.019531 31.132812 C 26.292969 30.632812 23.484375 30.367188 20.601562 30.367188 "/>
<path style=" stroke:none;fill-rule:nonzero;fill:rgb(100%,100%,100%);fill-opacity:1;" d="M 20.585938 27.777344 C 19.617188 27.777344 18.839844 26.992188 18.839844 26.027344 C 18.839844 25.066406 19.625 24.277344 20.585938 24.277344 C 21.546875 24.277344 22.339844 25.066406 22.339844 26.027344 C 22.339844 26.992188 21.554688 27.777344 20.585938 27.777344 Z M 24.011719 26.019531 C 24.011719 24.128906 22.480469 22.597656 20.585938 22.597656 C 18.691406 22.597656 17.160156 24.128906 17.160156 26.019531 C 17.160156 27.914062 18.691406 29.445312 20.585938 29.445312 C 22.480469 29.445312 24.011719 27.914062 24.011719 26.019531 Z M 24.011719 26.019531 "/>
</g>
</svg>
