<?xml version="1.0" encoding="UTF-8"?>
<svg xmlns="http://www.w3.org/2000/svg" xmlns:xlink="http://www.w3.org/1999/xlink" width="px" height="60px" viewBox="0 0 180 60" version="1.1">
<g id="surface1">
<path style=" stroke:none;fill-rule:nonzero;fill:rgb(100%,59.215686%,0%);fill-opacity:1;" d="M 57.03125 21.636719 C 50.875 19.132812 44.660156 19.394531 43.085938 22.328125 C 41.496094 25.292969 43.808594 32.296875 48.179688 38.117188 C 52.550781 43.929688 58.734375 43.742188 62.144531 37.398438 C 65.5 31.066406 63.160156 24.140625 57.019531 21.644531 "/>
<path style=" stroke:none;fill-rule:nonzero;fill:rgb(0%,43.137255%,80.392157%);fill-opacity:1;" d="M 25.738281 23.667969 C 31.195312 27.523438 37.308594 28.683594 39.476562 26.191406 C 41.660156 23.667969 40.910156 16.308594 37.890625 9.632812 C 34.878906 2.96875 28.8125 1.730469 24.125 7.140625 C 19.492188 12.539062 20.289062 19.824219 25.738281 23.667969 Z M 25.738281 23.667969 "/>
<path style=" stroke:none;fill-rule:nonzero;fill:rgb(93.72549%,8.235294%,11.764706%);fill-opacity:1;" d="M 45.304688 43.957031 C 44.4375 37.179688 41.179688 31.695312 37.933594 31.703125 C 34.660156 31.703125 29.863281 37.207031 27.082031 43.984375 C 24.296875 50.765625 27.460938 56.257812 34.488281 56.25 C 41.472656 56.203125 46.1875 50.71875 45.304688 43.957031 Z M 45.304688 43.957031 "/>
<path style=" stroke:none;fill-rule:nonzero;fill:rgb(0%,0%,0%);fill-opacity:1;" d="M 20.390625 26.339844 C 19.273438 26.339844 18.53125 27.054688 18.53125 28.105469 L 18.53125 29.164062 L 21.179688 29.164062 C 21.179688 29.164062 21.269531 38.183594 21.167969 39.128906 C 21.070312 40.078125 20.832031 41.617188 19.199219 42.421875 C 17.785156 43.117188 17.757812 43.773438 17.667969 44.363281 C 17.550781 45.121094 17.6875 45.214844 18.222656 45.085938 C 20.324219 44.550781 22.554688 43.679688 23.691406 41.53125 C 24.304688 40.367188 24.550781 39.101562 24.550781 37.179688 L 24.550781 29.15625 C 25.675781 29.144531 26.484375 28.40625 26.484375 27.390625 L 26.484375 26.332031 L 20.398438 26.332031 Z M 20.390625 26.339844 "/>
<path style=" stroke:none;fill-rule:nonzero;fill:rgb(0%,0%,0%);fill-opacity:1;" d="M 17.441406 38.5 C 17.441406 38.5 15.320312 41.652344 11.203125 41.652344 C 7.085938 41.652344 3.75 38.285156 3.75 33.824219 C 3.75 29.359375 6.949219 25.890625 11.203125 25.890625 C 15.457031 25.890625 17.386719 29.03125 17.386719 29.03125 C 17.386719 29.03125 16.253906 30.289062 15.164062 30.289062 C 14.640625 30.289062 14.242188 30.035156 13.777344 29.746094 C 13.160156 29.351562 12.472656 28.910156 11.195312 28.910156 C 8.773438 28.910156 6.816406 31.113281 6.816406 33.824219 C 6.816406 36.53125 8.78125 38.632812 11.195312 38.632812 C 12.628906 38.632812 13.308594 38.210938 13.898438 37.835938 C 14.324219 37.5625 14.722656 37.320312 15.292969 37.320312 C 16.515625 37.320312 17.433594 38.511719 17.433594 38.511719 Z M 17.441406 38.5 "/>
<path style=" stroke:none;fill-rule:nonzero;fill:rgb(0%,0%,0%);fill-opacity:1;" d="M 122.40625 30.589844 L 122.40625 27.449219 C 122.40625 26.949219 122.523438 26.566406 122.761719 26.292969 C 122.996094 26.023438 123.332031 25.882812 123.777344 25.882812 L 124.746094 25.882812 L 124.746094 40.078125 C 124.746094 40.582031 124.628906 40.96875 124.394531 41.238281 C 124.15625 41.511719 123.820312 41.644531 123.394531 41.644531 L 122.40625 41.644531 L 122.40625 36.9375 C 121.773438 37.066406 121.019531 37.171875 120.160156 37.238281 C 119.296875 37.3125 118.28125 37.339844 117.085938 37.339844 L 114.472656 37.339844 L 114.472656 28.09375 C 114.472656 27.605469 114.582031 27.214844 114.808594 26.941406 C 115.035156 26.667969 115.363281 26.527344 115.816406 26.527344 L 116.785156 26.527344 L 116.785156 35.773438 L 118.851562 35.773438 C 119.296875 35.773438 119.832031 35.746094 120.464844 35.6875 C 121.09375 35.632812 121.734375 35.558594 122.398438 35.453125 L 122.398438 30.570312 Z M 128.210938 40.078125 C 128.210938 40.582031 128.09375 40.96875 127.867188 41.238281 C 127.640625 41.511719 127.3125 41.644531 126.886719 41.644531 L 125.871094 41.644531 L 125.871094 27.449219 C 125.871094 26.949219 125.988281 26.566406 126.222656 26.292969 C 126.460938 26.023438 126.796875 25.882812 127.230469 25.882812 L 128.203125 25.882812 L 128.203125 40.078125 Z M 128.210938 40.078125 "/>
<path style=" stroke:none;fill-rule:nonzero;fill:rgb(0%,0%,0%);fill-opacity:1;" d="M 133.984375 34.621094 L 143.308594 34.621094 L 143.308594 35.398438 C 143.308594 35.585938 143.269531 35.734375 143.191406 35.847656 C 143.109375 35.960938 143.035156 36.042969 142.945312 36.101562 C 142.84375 36.167969 142.753906 36.203125 142.664062 36.222656 C 142.582031 36.230469 142.519531 36.242188 142.480469 36.242188 L 131.574219 36.242188 L 131.574219 28.375 C 131.574219 27.851562 131.773438 27.398438 132.164062 27.023438 C 132.554688 26.660156 133.023438 26.472656 133.578125 26.472656 L 143.289062 26.472656 L 143.289062 27.230469 C 143.289062 27.429688 143.253906 27.585938 143.179688 27.699219 C 143.109375 27.8125 143.027344 27.898438 142.925781 27.953125 C 142.835938 28.007812 142.753906 28.039062 142.664062 28.054688 C 142.582031 28.066406 142.519531 28.074219 142.480469 28.074219 L 133.976562 28.074219 L 133.976562 30.570312 L 143.164062 30.570312 L 143.164062 31.347656 C 143.164062 31.554688 143.125 31.703125 143.054688 31.804688 C 142.980469 31.910156 142.898438 31.992188 142.800781 32.050781 C 142.71875 32.105469 142.628906 32.132812 142.535156 32.152344 C 142.445312 32.164062 142.390625 32.171875 142.355469 32.171875 L 133.96875 32.171875 L 133.96875 34.628906 Z M 133.984375 34.621094 "/>
<path style=" stroke:none;fill-rule:nonzero;fill:rgb(0%,0%,0%);fill-opacity:1;" d="M 159.332031 34.789062 C 159.332031 35.292969 159.210938 35.679688 158.976562 35.949219 C 158.742188 36.222656 158.40625 36.355469 157.980469 36.355469 L 156.992188 36.355469 L 156.992188 35.847656 L 153.746094 35.847656 L 153.746094 35.089844 C 153.746094 34.910156 153.78125 34.769531 153.835938 34.65625 C 153.898438 34.542969 153.972656 34.46875 154.0625 34.421875 C 154.164062 34.367188 154.242188 34.328125 154.335938 34.320312 C 154.417969 34.300781 154.480469 34.292969 154.523438 34.292969 L 156.992188 34.292969 L 156.992188 33.4375 C 156.285156 33.605469 155.496094 33.738281 154.625 33.839844 C 153.761719 33.945312 152.882812 34.011719 151.996094 34.046875 L 151.996094 34.769531 C 151.996094 35.277344 151.878906 35.660156 151.640625 35.933594 C 151.40625 36.203125 151.078125 36.335938 150.671875 36.335938 L 149.65625 36.335938 L 149.65625 34.066406 L 145.105469 34.066406 L 145.105469 33.34375 C 145.105469 33.167969 145.140625 33.027344 145.203125 32.914062 C 145.265625 32.800781 145.339844 32.726562 145.429688 32.667969 C 145.511719 32.605469 145.601562 32.558594 145.683594 32.546875 C 145.765625 32.527344 145.839844 32.519531 145.894531 32.519531 L 150.824219 32.519531 C 151.769531 32.519531 152.792969 32.480469 153.910156 32.40625 C 155.015625 32.332031 156.046875 32.210938 157 32.042969 L 157 27.464844 C 157 26.96875 157.109375 26.585938 157.335938 26.3125 C 157.5625 26.039062 157.890625 25.898438 158.34375 25.898438 L 159.339844 25.898438 L 159.339844 34.777344 Z M 155.484375 28.816406 C 155.484375 29.292969 155.367188 29.742188 155.125 30.164062 C 154.886719 30.578125 154.5625 30.945312 154.164062 31.253906 C 153.746094 31.574219 153.273438 31.816406 152.71875 31.996094 C 152.175781 32.171875 151.597656 32.257812 150.980469 32.257812 C 150.363281 32.257812 149.773438 32.171875 149.230469 31.996094 C 148.683594 31.816406 148.214844 31.574219 147.796875 31.253906 C 147.398438 30.945312 147.082031 30.585938 146.84375 30.164062 C 146.609375 29.753906 146.492188 29.304688 146.492188 28.816406 C 146.492188 28.328125 146.609375 27.898438 146.84375 27.484375 C 147.082031 27.070312 147.398438 26.707031 147.796875 26.398438 C 148.214844 26.078125 148.683594 25.824219 149.230469 25.648438 C 149.773438 25.46875 150.355469 25.375 150.980469 25.375 C 151.605469 25.375 152.175781 25.46875 152.71875 25.648438 C 153.265625 25.824219 153.746094 26.078125 154.164062 26.398438 C 154.5625 26.707031 154.886719 27.0625 155.125 27.484375 C 155.359375 27.898438 155.484375 28.347656 155.484375 28.816406 Z M 159.320312 40.085938 C 159.320312 40.59375 159.203125 40.976562 158.96875 41.25 C 158.730469 41.519531 158.398438 41.652344 157.96875 41.652344 L 156.980469 41.652344 L 156.980469 38.332031 L 147.5625 38.332031 L 147.5625 37.589844 C 147.5625 37.402344 147.597656 37.253906 147.660156 37.152344 C 147.722656 37.039062 147.796875 36.953125 147.878906 36.90625 C 147.976562 36.851562 148.070312 36.8125 148.152344 36.804688 C 148.230469 36.785156 148.296875 36.777344 148.339844 36.777344 L 159.3125 36.777344 L 159.3125 40.09375 Z M 153.164062 28.816406 C 153.164062 28.289062 152.945312 27.839844 152.53125 27.457031 C 152.105469 27.082031 151.597656 26.882812 150.988281 26.882812 C 150.6875 26.882812 150.40625 26.941406 150.144531 27.042969 C 149.882812 27.148438 149.648438 27.289062 149.464844 27.464844 C 149.265625 27.644531 149.113281 27.839844 148.992188 28.074219 C 148.886719 28.308594 148.820312 28.554688 148.820312 28.816406 C 148.820312 29.078125 148.875 29.339844 148.992188 29.585938 C 149.101562 29.820312 149.257812 30.023438 149.464844 30.203125 C 149.65625 30.382812 149.882812 30.511719 150.144531 30.617188 C 150.40625 30.71875 150.6875 30.765625 150.988281 30.765625 C 151.597656 30.765625 152.105469 30.578125 152.53125 30.203125 C 152.957031 29.828125 153.164062 29.367188 153.164062 28.824219 Z M 153.164062 28.816406 "/>
<path style=" stroke:none;fill-rule:nonzero;fill:rgb(0%,0%,0%);fill-opacity:1;" d="M 76.070312 32.445312 C 78.140625 32.042969 79.679688 30.53125 79.679688 28.730469 C 79.679688 26.621094 77.566406 24.90625 74.964844 24.90625 C 72.363281 24.90625 70.242188 26.621094 70.242188 28.730469 C 70.242188 30.53125 71.773438 32.042969 73.851562 32.445312 L 73.851562 33.0625 L 68.28125 33.0625 C 68.121094 33.0625 67.503906 33.121094 67.503906 33.878906 L 67.503906 34.628906 L 81.648438 34.628906 C 81.8125 34.628906 82.429688 34.574219 82.429688 33.8125 L 82.429688 33.0625 L 76.082031 33.0625 L 76.082031 32.445312 Z M 72.570312 28.730469 C 72.570312 27.417969 73.640625 26.351562 74.957031 26.351562 C 76.269531 26.351562 77.339844 27.417969 77.339844 28.730469 C 77.339844 30.042969 76.269531 31.105469 74.957031 31.105469 C 73.640625 31.105469 72.570312 30.042969 72.570312 28.730469 Z M 72.570312 28.730469 "/>
<path style=" stroke:none;fill-rule:nonzero;fill:rgb(0%,0%,0%);fill-opacity:1;" d="M 98.507812 38.90625 L 98.507812 39.65625 L 112.871094 39.65625 C 113.023438 39.65625 113.648438 39.597656 113.648438 38.839844 L 113.648438 38.089844 L 99.285156 38.089844 C 99.121094 38.089844 98.507812 38.144531 98.507812 38.90625 Z M 98.507812 38.90625 "/>
<path style=" stroke:none;fill-rule:nonzero;fill:rgb(0%,0%,0%);fill-opacity:1;" d="M 111.753906 33.746094 L 111.753906 26.441406 L 110.753906 26.441406 C 109.886719 26.441406 109.414062 26.996094 109.414062 28.007812 L 109.414062 29.375 L 102.738281 29.375 L 102.738281 26.441406 L 101.742188 26.441406 C 100.871094 26.441406 100.390625 26.996094 100.390625 28.007812 L 100.390625 35.59375 L 109.785156 35.59375 C 110.863281 35.59375 111.742188 34.769531 111.742188 33.753906 Z M 109.414062 34.027344 L 102.738281 34.027344 L 102.738281 30.941406 L 109.414062 30.941406 Z M 109.414062 34.027344 "/>
<path style=" stroke:none;fill-rule:nonzero;fill:rgb(0%,0%,0%);fill-opacity:1;" d="M 71.585938 39.316406 L 78.976562 39.316406 C 79.828125 39.316406 80.515625 38.679688 80.515625 37.890625 L 80.515625 35.417969 L 70.015625 35.417969 C 69.851562 35.417969 69.238281 35.472656 69.238281 36.230469 L 69.238281 36.980469 L 78.167969 36.980469 L 78.167969 37.761719 L 70.578125 37.761719 C 69.707031 37.761719 69.226562 38.324219 69.226562 39.324219 L 69.226562 41.671875 L 79.871094 41.671875 C 80.035156 41.671875 80.652344 41.613281 80.652344 40.855469 L 80.652344 40.105469 L 71.566406 40.105469 L 71.566406 39.316406 Z M 71.585938 39.316406 "/>
<path style=" stroke:none;fill-rule:nonzero;fill:rgb(0%,0%,0%);fill-opacity:1;" d="M 94.472656 27.484375 L 94.472656 35.472656 C 92.683594 35.980469 90.363281 36.140625 89.328125 36.140625 L 86.507812 36.140625 L 86.507812 32.660156 L 90.726562 32.660156 C 91.597656 32.660156 92.066406 32.109375 92.066406 31.097656 L 92.066406 26.511719 L 84.960938 26.511719 C 84.796875 26.511719 84.179688 26.566406 84.179688 27.328125 L 84.179688 28.078125 L 89.738281 28.078125 L 89.738281 31.105469 L 85.519531 31.105469 C 84.652344 31.105469 84.171875 31.660156 84.179688 32.671875 L 84.179688 37.714844 L 87.550781 37.714844 C 91.097656 37.714844 93.109375 37.265625 94.480469 36.785156 L 94.480469 41.671875 L 95.476562 41.671875 C 96.347656 41.671875 96.820312 41.117188 96.820312 40.105469 L 96.820312 25.929688 L 95.832031 25.929688 C 94.960938 25.929688 94.480469 26.484375 94.480469 27.496094 Z M 94.472656 27.484375 "/>
<path style=" stroke:none;fill-rule:nonzero;fill:rgb(0%,0%,0%);fill-opacity:1;" d="M 122.40625 32.183594 L 119.097656 32.183594 L 119.097656 31.460938 C 119.097656 31.261719 119.125 31.113281 119.1875 31.007812 C 119.253906 30.90625 119.324219 30.820312 119.414062 30.773438 C 119.496094 30.71875 119.585938 30.691406 119.667969 30.679688 C 119.75 30.671875 119.824219 30.664062 119.878906 30.664062 L 122.40625 30.664062 L 122.40625 32.191406 Z M 122.40625 32.183594 "/>
<path style=" stroke:none;fill-rule:nonzero;fill:rgb(0%,0%,0%);fill-opacity:1;" d="M 161.886719 37.84375 C 161.722656 37.84375 161.105469 37.902344 161.105469 38.660156 L 161.105469 39.410156 L 175.46875 39.410156 C 175.632812 39.410156 176.25 39.355469 176.25 38.59375 L 176.25 37.84375 Z M 161.886719 37.84375 "/>
<path style=" stroke:none;fill-rule:nonzero;fill:rgb(0%,0%,0%);fill-opacity:1;" d="M 170.003906 26.210938 L 170.003906 27.757812 C 170.003906 28.695312 169.984375 32.199219 175.625 34.058594 L 175.007812 34.816406 C 175.007812 34.816406 174.609375 35.359375 173.828125 35.15625 C 172.605469 34.742188 170.148438 33.65625 168.734375 31.394531 C 167.320312 33.65625 164.863281 34.734375 163.636719 35.15625 C 162.859375 35.359375 162.460938 34.816406 162.460938 34.816406 L 161.84375 34.058594 C 167.15625 32.3125 167.4375 29.089844 167.457031 27.945312 L 167.457031 27.777344 C 167.457031 26.761719 167.9375 26.210938 168.804688 26.210938 Z M 170.003906 26.210938 "/>
<path style=" stroke:none;fill-rule:nonzero;fill:rgb(0%,0%,0%);fill-opacity:1;" d="M 130.757812 37.84375 C 130.597656 37.84375 129.980469 37.902344 129.980469 38.660156 L 129.980469 39.410156 L 144.34375 39.410156 C 144.503906 39.410156 145.121094 39.355469 145.121094 38.59375 L 145.121094 37.84375 Z M 130.757812 37.84375 "/>
</g>
</svg>
