<?xml version="1.0" encoding="UTF-8"?>
<svg xmlns="http://www.w3.org/2000/svg" xmlns:xlink="http://www.w3.org/1999/xlink" width="px" height="60px" viewBox="0 0 120 60" version="1.1">
<g id="surface1">
<path style=" stroke:none;fill-rule:nonzero;fill:rgb(0%,31.372549%,65.490196%);fill-opacity:1;" d="M 99.804688 11.78125 C 77.882812 9.585938 45.875 14.335938 23.558594 23.371094 L 22.234375 23.945312 C 22.628906 23.945312 22.914062 23.945312 22.914062 23.945312 C 26.632812 24.054688 26.382812 26.359375 26.382812 26.359375 L 26.382812 27.761719 L 23.414062 27.761719 L 23.414062 26.789062 C 23.414062 26.105469 22.59375 26.070312 22.59375 26.070312 C 21.949219 26.070312 21.804688 26.5 21.804688 26.5 C 21.449219 27.148438 22.054688 27.726562 22.054688 27.726562 C 22.378906 28.085938 23.914062 28.769531 23.914062 28.769531 C 24.417969 28.949219 25.203125 29.453125 25.203125 29.453125 C 26.703125 30.351562 26.5625 32.082031 26.5625 32.082031 L 26.5625 33.230469 C 26.382812 36.039062 22.519531 35.96875 22.519531 35.96875 C 18.480469 35.96875 18.550781 33.304688 18.550781 33.304688 L 18.550781 31.902344 L 21.699219 31.902344 L 21.699219 32.871094 C 21.699219 33.699219 22.484375 33.734375 22.484375 33.734375 C 23.34375 33.734375 23.414062 32.945312 23.414062 32.945312 C 23.523438 32.117188 22.628906 31.613281 22.628906 31.613281 C 21.734375 31.144531 20.269531 30.351562 20.269531 30.351562 C 19.550781 29.886719 19.265625 29.453125 19.265625 29.453125 C 18.730469 28.804688 18.765625 27.761719 18.765625 27.761719 L 18.765625 26.863281 C 18.765625 25.636719 19.085938 25.277344 19.085938 25.277344 C -2.726562 35.535156 -0.261719 46.226562 20.089844 48.203125 C 42.332031 50.363281 75.878906 46.082031 98.445312 35.929688 C 98.375 35.929688 98.300781 35.929688 98.230469 35.929688 C 98.230469 35.929688 94.402344 36.253906 94.332031 33.160156 L 94.332031 27.1875 C 94.332031 27.1875 93.867188 23.875 98.125 23.875 C 98.125 23.875 100.914062 23.765625 101.628906 25.457031 C 101.628906 25.457031 101.984375 25.890625 101.878906 27.761719 L 98.910156 27.761719 L 98.910156 26.824219 C 98.910156 26.824219 98.910156 26.070312 98.125 26.070312 C 98.125 26.070312 97.300781 26.070312 97.300781 26.753906 L 97.300781 32.945312 C 97.300781 32.945312 97.300781 33.773438 98.160156 33.773438 C 98.160156 33.773438 98.910156 33.773438 98.910156 32.871094 L 98.910156 31.074219 L 98.085938 31.074219 L 98.085938 29.417969 L 101.914062 29.417969 L 101.914062 32.945312 C 101.914062 32.945312 101.914062 33.699219 101.59375 34.132812 C 101.59375 34.132812 101.378906 34.457031 101.234375 34.636719 L 102.484375 34.023438 C 122.476562 23.730469 119.972656 13.867188 99.625 11.816406 Z M 35.214844 35.644531 L 34.070312 26.863281 L 33.820312 26.863281 L 32.675781 35.644531 L 29.53125 35.644531 L 31.460938 24.34375 L 36.433594 24.34375 L 38.363281 35.644531 Z M 51.132812 35.644531 L 51.058594 27.113281 L 50.84375 27.113281 L 49.308594 35.644531 L 46.230469 35.644531 L 44.695312 27.113281 L 44.480469 27.113281 L 44.480469 35.644531 L 41.511719 35.644531 L 41.761719 24.34375 L 46.695312 24.34375 L 47.625 30.53125 L 47.839844 30.53125 L 48.84375 24.34375 L 53.742188 24.34375 L 54.0625 35.644531 Z M 65.363281 32.152344 L 65.363281 33.304688 C 65.1875 36.113281 61.324219 36.039062 61.324219 36.039062 C 57.28125 36.039062 57.355469 33.375 57.355469 33.375 L 57.355469 31.972656 L 60.5 31.972656 L 60.5 32.945312 C 60.5 33.773438 61.289062 33.808594 61.289062 33.808594 C 62.144531 33.808594 62.21875 33.015625 62.21875 33.015625 C 62.324219 32.1875 61.429688 31.683594 61.429688 31.683594 C 60.535156 31.214844 59.070312 30.425781 59.070312 30.425781 C 58.355469 29.957031 58.070312 29.523438 58.070312 29.523438 C 57.53125 28.878906 57.566406 27.832031 57.566406 27.832031 L 57.566406 26.933594 C 57.566406 25.710938 57.890625 25.351562 57.890625 25.351562 C 58.710938 23.765625 61.644531 23.945312 61.644531 23.945312 C 65.363281 24.054688 65.113281 26.359375 65.113281 26.359375 L 65.113281 27.761719 L 62.144531 27.761719 L 62.144531 26.789062 C 62.144531 26.105469 61.324219 26.070312 61.324219 26.070312 C 60.679688 26.070312 60.535156 26.5 60.535156 26.5 C 60.179688 27.148438 60.785156 27.726562 60.785156 27.726562 C 61.074219 28.085938 62.648438 28.769531 62.648438 28.769531 C 63.148438 28.949219 63.933594 29.453125 63.933594 29.453125 C 65.4375 30.351562 65.292969 32.082031 65.292969 32.082031 Z M 76.953125 32.90625 C 76.953125 36.003906 73.054688 35.96875 73.054688 35.96875 C 68.546875 35.96875 68.871094 32.765625 68.871094 32.765625 L 68.871094 24.269531 L 72.089844 24.269531 L 72.089844 32.835938 C 72.089844 33.808594 73.019531 33.734375 73.019531 33.734375 C 73.875 33.734375 73.839844 32.800781 73.839844 32.800781 L 73.839844 24.269531 L 76.988281 24.269531 L 76.988281 32.90625 Z M 90.46875 35.644531 L 86.964844 35.644531 L 83.855469 28.734375 L 83.710938 28.734375 L 83.890625 35.644531 L 80.957031 35.644531 L 80.957031 24.34375 L 84.570312 24.34375 L 87.574219 31.214844 L 87.714844 31.214844 L 87.5 24.34375 L 90.46875 24.34375 Z M 90.46875 35.644531 "/>
</g>
</svg>
