<svg width="500" height="393" viewBox="0 0 500 393" fill="none" xmlns="http://www.w3.org/2000/svg">
<g clip-path="url(#clip0_5918_10960)">
<g filter="url(#filter0_d_5918_10960)">
<rect x="32" y="68" width="436" height="116" rx="20" fill="white"/>
<g filter="url(#filter1_d_5918_10960)">
<circle cx="76" cy="108" r="20" fill="#F7FAFC"/>
<circle cx="76" cy="108" r="21.5" stroke="white" stroke-width="3"/>
</g>
<rect x="56" y="88" width="40" height="40" rx="20" fill="#D0F0F9"/>
<path d="M75.9979 127.999C80.7622 127.999 85.1336 126.335 88.5622 123.557C86.055 119.214 81.3693 116.285 75.9979 116.285C70.6265 116.285 65.9407 119.214 63.4336 123.557C66.8693 126.335 71.2407 127.999 75.9979 127.999Z" fill="#15C27E"/>
<path d="M78.9206 110.557V116.535C78.9206 118.185 77.5849 119.521 75.9349 119.521C74.2849 119.521 72.9492 118.185 72.9492 116.535V110.557H78.9278H78.9206Z" fill="#FFB1A6"/>
<path d="M72.9414 110.558V115.244C76.0843 116.072 78.92 113.436 78.92 113.436V110.551H72.9414V110.558Z" fill="#F98C80"/>
<path d="M82.5521 109.12H69.3164V104.12C69.3164 100.463 72.2807 97.5059 75.9378 97.5059C79.595 97.5059 82.5593 100.47 82.5593 104.12V109.12H82.5521Z" fill="#43312E"/>
<path d="M75.9283 114.314C72.7426 114.314 70.1641 111.736 70.1641 108.55V105.579C70.1641 102.393 72.7426 99.8145 75.9283 99.8145C79.1141 99.8145 81.6926 102.393 81.6926 105.579V108.55C81.6926 111.736 79.1141 114.314 75.9283 114.314Z" fill="#FFB1A6"/>
<path d="M69.2557 110.193C70.3958 110.193 71.32 109.269 71.32 108.129C71.32 106.989 70.3958 106.064 69.2557 106.064C68.1156 106.064 67.1914 106.989 67.1914 108.129C67.1914 109.269 68.1156 110.193 69.2557 110.193Z" fill="#FFB1A6"/>
<path d="M82.744 110.193C83.884 110.193 84.8083 109.269 84.8083 108.129C84.8083 106.989 83.884 106.064 82.744 106.064C81.6039 106.064 80.6797 106.989 80.6797 108.129C80.6797 109.269 81.6039 110.193 82.744 110.193Z" fill="#FFB1A6"/>
<path d="M77.2002 109.429C77.1574 109.386 77.086 109.393 77.0502 109.429C76.686 109.801 76.2574 109.986 75.8502 109.979C75.4717 109.965 75.1145 109.779 74.8145 109.429C74.7788 109.386 74.7145 109.379 74.6645 109.408C74.6217 109.443 74.6074 109.501 74.636 109.551C74.886 109.965 75.286 110.236 75.7502 110.293C75.8074 110.293 75.8574 110.301 75.9074 110.301C76.3002 110.301 76.6788 110.136 76.9645 109.836L77.2002 109.572C77.2431 109.529 77.236 109.458 77.1931 109.422L77.2002 109.429Z" fill="#F98C80"/>
<path d="M68.8855 109.163C68.8855 109.163 68.9141 109.071 68.8855 109.035C68.5855 108.742 68.4355 108.392 68.4355 108.063C68.4426 107.756 68.5998 107.463 68.8783 107.221C68.9141 107.192 68.9212 107.135 68.8926 107.099C68.8641 107.063 68.8141 107.049 68.7712 107.071C68.4283 107.271 68.2141 107.599 68.1712 107.978C68.1712 108.021 68.1641 108.063 68.1641 108.106C68.1641 108.428 68.2998 108.735 68.5426 108.971L68.7569 109.163C68.7926 109.192 68.8498 109.192 68.8783 109.163H68.8855Z" fill="#F98C80"/>
<path d="M83.1458 107.085C83.1458 107.085 83.1172 107.177 83.1458 107.213C83.4458 107.506 83.5958 107.856 83.5958 108.185C83.5886 108.492 83.4315 108.785 83.1529 109.027C83.1172 109.056 83.11 109.113 83.1386 109.149C83.1672 109.185 83.2172 109.199 83.26 109.177C83.6029 108.977 83.8172 108.649 83.86 108.27C83.86 108.227 83.8672 108.185 83.8672 108.142C83.8672 107.82 83.7315 107.513 83.4886 107.277L83.2743 107.085C83.2386 107.056 83.1815 107.056 83.1529 107.085L83.1458 107.085Z" fill="#F98C80"/>
<path d="M75.7502 107.158C75.7073 107.122 75.6502 107.122 75.6145 107.158C75.5716 107.193 75.5645 107.243 75.5859 107.293C75.6145 107.351 75.6502 107.415 75.6931 107.486C75.8359 107.736 76.0431 108.115 75.9573 108.293C75.9216 108.365 75.8288 108.408 75.6788 108.422C75.6216 108.422 75.5788 108.472 75.5788 108.529C75.5788 108.586 75.6216 108.629 75.6788 108.636C75.7216 108.636 75.7573 108.636 75.7931 108.636C76.0931 108.636 76.2145 108.501 76.2645 108.379C76.4216 108.001 76.0288 107.365 75.7573 107.151L75.7502 107.158Z" fill="#F98C80"/>
<path d="M74.3951 107.521C74.5529 107.521 74.6808 107.349 74.6808 107.136C74.6808 106.923 74.5529 106.75 74.3951 106.75C74.2373 106.75 74.1094 106.923 74.1094 107.136C74.1094 107.349 74.2373 107.521 74.3951 107.521Z" fill="#43312E"/>
<path d="M77.4693 107.521C77.6271 107.521 77.755 107.349 77.755 107.136C77.755 106.923 77.6271 106.75 77.4693 106.75C77.3115 106.75 77.1836 106.923 77.1836 107.136C77.1836 107.349 77.3115 107.521 77.4693 107.521Z" fill="#43312E"/>
<path d="M80.5004 98.5282C80.3933 98.5282 80.2933 98.5067 80.179 98.5067C80.179 98.5067 80.2861 95.7496 76.0075 95.7496C76.0075 95.7496 73.9004 95.6424 71.9861 96.3782C71.4575 96.6067 71.0147 96.8924 70.6575 97.2067C70.6575 97.2067 70.6075 97.2567 70.579 97.2782C70.4861 97.3639 70.4004 97.4424 70.3147 97.5282C70.0433 97.7996 69.8218 98.0782 69.6361 98.3282C69.629 98.3424 69.6147 98.3567 69.6075 98.371C69.5575 98.4353 69.5218 98.4996 69.4861 98.5639C68.5218 100.157 68.5861 102.414 68.5933 102.65C68.7575 104.371 69.2718 106.064 69.2718 106.064C69.3218 106.064 69.3718 106.064 69.4218 106.071C69.779 106.114 70.179 106.271 70.179 106.271C70.179 106.271 71.3075 104.264 71.0433 102.785C71.0433 102.785 72.3004 103.814 74.929 102.435C74.929 102.435 79.6004 99.3853 80.929 103.314C80.929 103.314 81.4361 104.635 81.7147 106.35C81.7147 106.35 82.1861 106.071 82.5718 106.071C82.5718 106.071 83.3932 103.464 83.329 101.421C83.0861 99.0639 81.2647 98.6067 80.5147 98.521L80.5004 98.5282Z" fill="#43312E"/>
<path d="M78.6288 105.901C78.6411 105.768 78.2624 105.624 77.7832 105.58C77.3039 105.536 76.9055 105.609 76.8932 105.743C76.881 105.876 77.2596 106.02 77.7389 106.064C78.2182 106.108 78.6166 106.035 78.6288 105.901Z" fill="#43312E"/>
<path d="M74.1269 106.061C74.6062 106.017 74.9848 105.873 74.9726 105.739C74.9604 105.606 74.5619 105.533 74.0826 105.577C73.6034 105.621 73.2248 105.765 73.237 105.898C73.2492 106.032 73.6476 106.104 74.1269 106.061Z" fill="#43312E"/>
<path d="M72.3665 108.378C72.9227 108.378 73.3737 108.158 73.3737 107.885C73.3737 107.613 72.9227 107.393 72.3665 107.393C71.8103 107.393 71.3594 107.613 71.3594 107.885C71.3594 108.158 71.8103 108.378 72.3665 108.378Z" fill="#FF8383"/>
<path d="M79.4876 108.378C80.0438 108.378 80.4948 108.158 80.4948 107.885C80.4948 107.613 80.0438 107.393 79.4876 107.393C78.9314 107.393 78.4805 107.613 78.4805 107.885C78.4805 108.158 78.9314 108.378 79.4876 108.378Z" fill="#FF8383"/>
<path d="M129.575 96.1293H128.024C127.964 95.7978 127.853 95.5062 127.691 95.2543C127.529 95.0024 127.33 94.7886 127.094 94.6129C126.859 94.4373 126.596 94.3047 126.304 94.2152C126.016 94.1257 125.709 94.081 125.384 94.081C124.798 94.081 124.272 94.2285 123.808 94.5234C123.348 94.8184 122.983 95.2509 122.714 95.821C122.449 96.3911 122.317 97.0871 122.317 97.9091C122.317 98.7377 122.449 99.437 122.714 100.007C122.983 100.577 123.349 101.008 123.813 101.3C124.277 101.591 124.799 101.737 125.379 101.737C125.701 101.737 126.006 101.694 126.294 101.608C126.586 101.518 126.849 101.388 127.085 101.215C127.32 101.043 127.519 100.832 127.681 100.584C127.847 100.332 127.961 100.044 128.024 99.7188L129.575 99.7237C129.492 100.224 129.332 100.685 129.093 101.106C128.858 101.523 128.554 101.885 128.183 102.19C127.815 102.491 127.394 102.725 126.92 102.891C126.446 103.056 125.929 103.139 125.369 103.139C124.488 103.139 123.702 102.93 123.013 102.513C122.323 102.092 121.78 101.49 121.382 100.708C120.988 99.9259 120.79 98.9929 120.79 97.9091C120.79 96.822 120.989 95.889 121.387 95.1101C121.785 94.3279 122.328 93.728 123.018 93.3104C123.707 92.8894 124.491 92.679 125.369 92.679C125.91 92.679 126.413 92.7569 126.881 92.9126C127.351 93.0651 127.774 93.2905 128.148 93.5888C128.523 93.8838 128.833 94.245 129.078 94.6726C129.323 95.0968 129.489 95.5824 129.575 96.1293ZM140.258 97.9091C140.258 98.9962 140.059 99.9309 139.661 100.713C139.264 101.492 138.718 102.092 138.026 102.513C137.336 102.93 136.552 103.139 135.674 103.139C134.793 103.139 134.005 102.93 133.313 102.513C132.623 102.092 132.08 101.49 131.682 100.708C131.284 99.9259 131.085 98.9929 131.085 97.9091C131.085 96.822 131.284 95.889 131.682 95.1101C132.08 94.3279 132.623 93.728 133.313 93.3104C134.005 92.8894 134.793 92.679 135.674 92.679C136.552 92.679 137.336 92.8894 138.026 93.3104C138.718 93.728 139.264 94.3279 139.661 95.1101C140.059 95.889 140.258 96.822 140.258 97.9091ZM138.737 97.9091C138.737 97.0805 138.602 96.3828 138.334 95.8161C138.069 95.246 137.704 94.8151 137.24 94.5234C136.78 94.2285 136.258 94.081 135.674 94.081C135.088 94.081 134.564 94.2285 134.103 94.5234C133.642 94.8151 133.278 95.246 133.009 95.8161C132.744 96.3828 132.612 97.0805 132.612 97.9091C132.612 98.7377 132.744 99.437 133.009 100.007C133.278 100.574 133.642 101.005 134.103 101.3C134.564 101.591 135.088 101.737 135.674 101.737C136.258 101.737 136.78 101.591 137.24 101.3C137.704 101.005 138.069 100.574 138.334 100.007C138.602 99.437 138.737 98.7377 138.737 97.9091ZM145.469 103H142.173V92.8182H145.574C146.571 92.8182 147.428 93.022 148.144 93.4297C148.86 93.834 149.409 94.4157 149.79 95.1747C150.174 95.9304 150.366 96.8369 150.366 97.8942C150.366 98.9548 150.173 99.8662 149.785 100.629C149.4 101.391 148.844 101.978 148.114 102.388C147.385 102.796 146.504 103 145.469 103ZM143.71 101.658H145.385C146.161 101.658 146.805 101.512 147.319 101.22C147.833 100.925 148.217 100.499 148.472 99.9425C148.728 99.3823 148.855 98.6996 148.855 97.8942C148.855 97.0954 148.728 96.4176 148.472 95.8608C148.22 95.304 147.844 94.8814 147.344 94.593C146.843 94.3047 146.222 94.1605 145.479 94.1605H143.71V101.658ZM152.277 103V92.8182H158.66V94.1406H153.813V97.2429H158.327V98.5604H153.813V101.678H158.72V103H152.277ZM166.266 95.4929C166.213 95.0223 165.994 94.6577 165.609 94.3991C165.225 94.1373 164.741 94.0064 164.158 94.0064C163.74 94.0064 163.379 94.0727 163.074 94.2053C162.769 94.3345 162.532 94.5135 162.363 94.7422C162.197 94.9676 162.114 95.2244 162.114 95.5128C162.114 95.7547 162.171 95.9635 162.283 96.1392C162.399 96.3149 162.55 96.4624 162.736 96.5817C162.925 96.6977 163.127 96.7955 163.342 96.875C163.558 96.9512 163.765 97.0142 163.964 97.0639L164.958 97.3224C165.283 97.402 165.616 97.5097 165.957 97.6456C166.299 97.7815 166.615 97.9605 166.907 98.1825C167.199 98.4046 167.434 98.6797 167.613 99.0078C167.795 99.3359 167.886 99.7287 167.886 100.186C167.886 100.763 167.737 101.275 167.439 101.722C167.144 102.17 166.715 102.523 166.151 102.781C165.591 103.04 164.913 103.169 164.118 103.169C163.356 103.169 162.696 103.048 162.139 102.806C161.582 102.564 161.147 102.221 160.832 101.777C160.517 101.33 160.343 100.799 160.31 100.186H161.851C161.881 100.554 162 100.861 162.209 101.106C162.421 101.348 162.691 101.528 163.019 101.648C163.351 101.764 163.714 101.822 164.108 101.822C164.542 101.822 164.928 101.754 165.266 101.618C165.608 101.479 165.876 101.286 166.072 101.041C166.267 100.793 166.365 100.503 166.365 100.171C166.365 99.8696 166.279 99.6226 166.107 99.4304C165.938 99.2382 165.707 99.0791 165.415 98.9531C165.127 98.8272 164.801 98.7161 164.436 98.62L163.233 98.2919C162.418 98.0698 161.771 97.7434 161.294 97.3125C160.82 96.8816 160.583 96.3116 160.583 95.6023C160.583 95.0156 160.742 94.5036 161.06 94.0661C161.379 93.6286 161.809 93.2888 162.353 93.0469C162.897 92.8016 163.51 92.679 164.192 92.679C164.882 92.679 165.49 92.8 166.017 93.0419C166.547 93.2839 166.965 93.617 167.27 94.0412C167.575 94.4621 167.734 94.946 167.747 95.4929H166.266Z" fill="#212121"/>
<path d="M128.832 113.076H129.792V123.936H128.832V113.076ZM127.08 117.444H129.168V118.26H127.08V117.444ZM124.284 114.48H125.232C125.232 115.176 125.164 115.856 125.028 116.52C124.892 117.184 124.668 117.824 124.356 118.44C124.052 119.048 123.64 119.62 123.12 120.156C122.6 120.684 121.952 121.168 121.176 121.608L120.6 120.9C121.512 120.388 122.236 119.808 122.772 119.16C123.308 118.512 123.692 117.812 123.924 117.06C124.164 116.3 124.284 115.5 124.284 114.66V114.48ZM121.02 114.48H124.608V115.296H121.02V114.48ZM126.432 113.364H127.368V123.396H126.432V113.364ZM132.083 113.532H133.067V115.08H136.127V113.532H137.111V118.26H132.083V113.532ZM133.067 115.86V117.456H136.127V115.86H133.067ZM139.067 113.076H140.063V118.68H139.067V113.076ZM139.619 115.416H141.659V116.232H139.619V115.416ZM133.163 119.196H140.063V121.836H134.171V123.456H133.199V121.092H139.079V119.988H133.163V119.196ZM133.199 123.012H140.447V123.816H133.199V123.012Z" fill="#4D525C"/>
<path d="M151 113V125" stroke="#E6EBF0"/>
<path d="M160.128 113.64H161.124V115.296H164.052V113.64H165.036V118.608H160.128V113.64ZM161.124 116.088V117.792H164.052V116.088H161.124ZM164.76 115.74H167.82V116.568H164.76V115.74ZM167.532 113.076H168.528V119.004H167.532V113.076ZM161.58 119.532H162.564V120.84H167.532V119.532H168.516V123.78H161.58V119.532ZM162.564 121.632V122.964H167.532V121.632H162.564ZM178.535 113.088H179.531V121.008H178.535V113.088ZM172.559 122.88H179.867V123.696H172.559V122.88ZM172.559 120.204H173.555V123.156H172.559V120.204ZM173.711 113.844C174.255 113.844 174.739 113.956 175.163 114.18C175.587 114.404 175.923 114.72 176.171 115.128C176.419 115.528 176.543 115.988 176.543 116.508C176.543 117.028 176.419 117.492 176.171 117.9C175.923 118.3 175.587 118.616 175.163 118.848C174.739 119.072 174.255 119.184 173.711 119.184C173.175 119.184 172.691 119.072 172.259 118.848C171.835 118.616 171.499 118.3 171.251 117.9C171.003 117.492 170.879 117.028 170.879 116.508C170.879 115.988 171.003 115.528 171.251 115.128C171.499 114.72 171.835 114.404 172.259 114.18C172.691 113.956 173.175 113.844 173.711 113.844ZM173.711 114.708C173.359 114.708 173.043 114.784 172.763 114.936C172.483 115.088 172.259 115.3 172.091 115.572C171.931 115.844 171.851 116.156 171.851 116.508C171.851 116.868 171.931 117.184 172.091 117.456C172.259 117.72 172.483 117.928 172.763 118.08C173.043 118.232 173.359 118.308 173.711 118.308C174.063 118.308 174.379 118.232 174.659 118.08C174.947 117.928 175.171 117.72 175.331 117.456C175.491 117.184 175.571 116.868 175.571 116.508C175.571 116.156 175.491 115.844 175.331 115.572C175.171 115.3 174.947 115.088 174.659 114.936C174.379 114.784 174.063 114.708 173.711 114.708ZM187.705 114.012H188.521V115.956C188.521 116.556 188.445 117.144 188.293 117.72C188.149 118.296 187.941 118.836 187.669 119.34C187.397 119.844 187.077 120.292 186.709 120.684C186.341 121.076 185.941 121.388 185.509 121.62L184.897 120.816C185.297 120.616 185.665 120.348 186.001 120.012C186.345 119.668 186.645 119.276 186.901 118.836C187.157 118.396 187.353 117.932 187.489 117.444C187.633 116.948 187.705 116.452 187.705 115.956V114.012ZM187.885 114.012H188.689V115.956C188.689 116.436 188.757 116.912 188.893 117.384C189.037 117.856 189.237 118.3 189.493 118.716C189.749 119.132 190.041 119.504 190.369 119.832C190.705 120.16 191.065 120.42 191.449 120.612L190.837 121.404C190.413 121.188 190.021 120.892 189.661 120.516C189.309 120.14 188.997 119.712 188.725 119.232C188.461 118.744 188.253 118.224 188.101 117.672C187.957 117.112 187.885 116.54 187.885 115.956V114.012ZM192.397 113.076H193.393V123.936H192.397V113.076ZM193.165 117.468H195.169V118.32H193.165V117.468ZM201.54 115.668H204.456V116.484H201.54V115.668ZM199.056 113.58C199.592 113.58 200.068 113.688 200.484 113.904C200.908 114.112 201.24 114.404 201.48 114.78C201.72 115.156 201.84 115.592 201.84 116.088C201.84 116.584 201.72 117.024 201.48 117.408C201.24 117.784 200.908 118.08 200.484 118.296C200.068 118.504 199.592 118.608 199.056 118.608C198.512 118.608 198.028 118.504 197.604 118.296C197.188 118.08 196.86 117.784 196.62 117.408C196.38 117.024 196.26 116.584 196.26 116.088C196.26 115.592 196.38 115.156 196.62 114.78C196.86 114.404 197.188 114.112 197.604 113.904C198.028 113.688 198.512 113.58 199.056 113.58ZM199.056 114.42C198.696 114.42 198.376 114.492 198.096 114.636C197.824 114.772 197.608 114.968 197.448 115.224C197.288 115.472 197.208 115.76 197.208 116.088C197.208 116.416 197.288 116.708 197.448 116.964C197.608 117.212 197.824 117.408 198.096 117.552C198.376 117.696 198.696 117.768 199.056 117.768C199.408 117.768 199.72 117.696 199.992 117.552C200.272 117.408 200.492 117.212 200.652 116.964C200.812 116.708 200.892 116.416 200.892 116.088C200.892 115.76 200.812 115.472 200.652 115.224C200.492 114.968 200.272 114.772 199.992 114.636C199.72 114.492 199.408 114.42 199.056 114.42ZM204.024 113.076H205.02V118.908H204.024V113.076ZM198.072 119.448H199.056V120.804H204.024V119.448H205.02V123.792H198.072V119.448ZM199.056 121.596V122.976H204.024V121.596H199.056ZM209.807 114.636H210.611V116.388C210.611 116.956 210.531 117.52 210.371 118.08C210.211 118.632 209.987 119.156 209.699 119.652C209.419 120.14 209.095 120.576 208.727 120.96C208.359 121.336 207.963 121.632 207.539 121.848L206.951 121.056C207.343 120.864 207.707 120.604 208.043 120.276C208.387 119.94 208.691 119.56 208.955 119.136C209.219 118.704 209.427 118.256 209.579 117.792C209.731 117.32 209.807 116.852 209.807 116.388V114.636ZM209.999 114.636H210.791V116.388C210.791 116.82 210.859 117.256 210.995 117.696C211.139 118.136 211.339 118.556 211.595 118.956C211.851 119.356 212.147 119.716 212.483 120.036C212.827 120.348 213.191 120.6 213.575 120.792L213.011 121.584C212.587 121.368 212.191 121.08 211.823 120.72C211.455 120.352 211.135 119.936 210.863 119.472C210.591 119.008 210.379 118.512 210.227 117.984C210.075 117.456 209.999 116.924 209.999 116.388V114.636ZM207.335 114.192H213.191V115.02H207.335V114.192ZM214.475 113.076H215.471V123.936H214.475V113.076ZM215.243 117.456H217.247V118.296H215.243V117.456Z" fill="#4D525C"/>
<rect x="120" y="140" width="39" height="20" rx="5.42272" fill="#E8FAFF"/>
<path d="M128.304 145.273H129.872V151.409C129.869 151.972 129.75 152.456 129.514 152.862C129.278 153.266 128.949 153.577 128.526 153.795C128.105 154.011 127.615 154.119 127.055 154.119C126.544 154.119 126.084 154.028 125.675 153.847C125.268 153.662 124.946 153.389 124.707 153.028C124.469 152.668 124.349 152.219 124.349 151.682H125.922C125.925 151.918 125.976 152.121 126.075 152.291C126.178 152.462 126.318 152.592 126.497 152.683C126.676 152.774 126.882 152.82 127.115 152.82C127.368 152.82 127.582 152.767 127.759 152.662C127.935 152.554 128.068 152.395 128.159 152.185C128.253 151.974 128.301 151.716 128.304 151.409V145.273ZM132.708 154H131.021L134.093 145.273H136.045L139.121 154H137.434L135.103 147.062H135.035L132.708 154ZM132.763 150.578H137.366V151.848H132.763V150.578ZM140.442 145.273L142.714 152.142H142.803L145.07 145.273H146.809L143.732 154H141.781L138.708 145.273H140.442ZM148.06 154H146.372L149.445 145.273H151.396L154.473 154H152.786L150.455 147.062H150.386L148.06 154ZM148.115 150.578H152.717V151.848H148.115V150.578Z" fill="#0098C8"/>
<rect x="167" y="140" width="33" height="20" rx="5.42272" fill="#E8FAFF"/>
<path d="M179.331 148.217H177.737C177.692 147.956 177.608 147.724 177.486 147.523C177.364 147.318 177.212 147.145 177.03 147.003C176.848 146.861 176.641 146.754 176.408 146.683C176.178 146.609 175.929 146.572 175.662 146.572C175.188 146.572 174.767 146.692 174.401 146.93C174.034 147.166 173.747 147.513 173.54 147.97C173.332 148.425 173.229 148.98 173.229 149.636C173.229 150.304 173.332 150.866 173.54 151.324C173.75 151.778 174.037 152.122 174.401 152.355C174.767 152.585 175.186 152.7 175.658 152.7C175.919 152.7 176.163 152.666 176.391 152.598C176.621 152.527 176.827 152.423 177.009 152.287C177.193 152.151 177.348 151.983 177.473 151.784C177.601 151.585 177.689 151.358 177.737 151.102L179.331 151.111C179.271 151.526 179.142 151.915 178.943 152.278C178.747 152.642 178.49 152.963 178.172 153.241C177.854 153.517 177.482 153.733 177.055 153.889C176.629 154.043 176.156 154.119 175.636 154.119C174.869 154.119 174.185 153.942 173.582 153.587C172.98 153.232 172.506 152.719 172.159 152.048C171.813 151.378 171.639 150.574 171.639 149.636C171.639 148.696 171.814 147.892 172.163 147.224C172.513 146.554 172.989 146.041 173.591 145.686C174.193 145.331 174.875 145.153 175.636 145.153C176.122 145.153 176.574 145.222 176.991 145.358C177.409 145.494 177.781 145.695 178.108 145.959C178.435 146.22 178.703 146.541 178.913 146.922C179.126 147.3 179.266 147.732 179.331 148.217ZM185.522 147.672C185.482 147.3 185.314 147.01 185.019 146.803C184.726 146.595 184.346 146.491 183.877 146.491C183.547 146.491 183.265 146.541 183.029 146.641C182.793 146.74 182.613 146.875 182.488 147.045C182.363 147.216 182.299 147.411 182.296 147.629C182.296 147.811 182.337 147.969 182.419 148.102C182.505 148.236 182.62 148.349 182.765 148.443C182.909 148.534 183.07 148.611 183.246 148.673C183.422 148.736 183.6 148.788 183.779 148.831L184.597 149.036C184.926 149.112 185.243 149.216 185.547 149.347C185.854 149.477 186.128 149.642 186.37 149.841C186.614 150.04 186.807 150.28 186.949 150.561C187.091 150.842 187.162 151.172 187.162 151.55C187.162 152.061 187.032 152.511 186.77 152.901C186.509 153.287 186.131 153.589 185.637 153.808C185.145 154.024 184.55 154.132 183.851 154.132C183.172 154.132 182.583 154.027 182.083 153.817C181.586 153.607 181.196 153.3 180.915 152.896C180.637 152.493 180.486 152.001 180.463 151.422H182.019C182.042 151.726 182.135 151.979 182.3 152.18C182.465 152.382 182.679 152.533 182.944 152.632C183.211 152.732 183.509 152.781 183.838 152.781C184.182 152.781 184.483 152.73 184.742 152.628C185.003 152.523 185.208 152.378 185.355 152.193C185.503 152.006 185.578 151.787 185.581 151.537C185.578 151.31 185.512 151.122 185.381 150.974C185.25 150.824 185.067 150.699 184.831 150.599C184.598 150.497 184.326 150.406 184.013 150.327L183.02 150.071C182.301 149.886 181.733 149.607 181.316 149.232C180.901 148.854 180.694 148.352 180.694 147.727C180.694 147.213 180.833 146.763 181.111 146.376C181.392 145.99 181.775 145.69 182.257 145.477C182.74 145.261 183.287 145.153 183.898 145.153C184.517 145.153 185.06 145.261 185.526 145.477C185.995 145.69 186.363 145.987 186.63 146.368C186.897 146.746 187.034 147.18 187.043 147.672H185.522ZM193.315 147.672C193.275 147.3 193.107 147.01 192.812 146.803C192.519 146.595 192.138 146.491 191.67 146.491C191.34 146.491 191.058 146.541 190.822 146.641C190.586 146.74 190.406 146.875 190.281 147.045C190.156 147.216 190.092 147.411 190.089 147.629C190.089 147.811 190.13 147.969 190.212 148.102C190.298 148.236 190.413 148.349 190.558 148.443C190.702 148.534 190.863 148.611 191.039 148.673C191.215 148.736 191.393 148.788 191.572 148.831L192.39 149.036C192.719 149.112 193.036 149.216 193.34 149.347C193.647 149.477 193.921 149.642 194.163 149.841C194.407 150.04 194.6 150.28 194.742 150.561C194.884 150.842 194.955 151.172 194.955 151.55C194.955 152.061 194.825 152.511 194.563 152.901C194.302 153.287 193.924 153.589 193.43 153.808C192.938 154.024 192.343 154.132 191.644 154.132C190.965 154.132 190.376 154.027 189.876 153.817C189.379 153.607 188.989 153.3 188.708 152.896C188.43 152.493 188.279 152.001 188.256 151.422H189.812C189.835 151.726 189.928 151.979 190.093 152.18C190.258 152.382 190.472 152.533 190.737 152.632C191.004 152.732 191.302 152.781 191.631 152.781C191.975 152.781 192.276 152.73 192.535 152.628C192.796 152.523 193.001 152.378 193.148 152.193C193.296 152.006 193.371 151.787 193.374 151.537C193.371 151.31 193.305 151.122 193.174 150.974C193.043 150.824 192.86 150.699 192.624 150.599C192.391 150.497 192.119 150.406 191.806 150.327L190.813 150.071C190.094 149.886 189.526 149.607 189.109 149.232C188.694 148.854 188.487 148.352 188.487 147.727C188.487 147.213 188.626 146.763 188.904 146.376C189.185 145.99 189.567 145.69 190.05 145.477C190.533 145.261 191.08 145.153 191.691 145.153C192.31 145.153 192.853 145.261 193.319 145.477C193.788 145.69 194.156 145.987 194.423 146.368C194.69 146.746 194.827 147.18 194.836 147.672H193.315Z" fill="#0098C8"/>
<rect x="208" y="140" width="29" height="20" rx="5.42272" fill="#E8FAFF"/>
<path d="M212.793 154V147.455H214.335V154H212.793ZM213.568 146.526C213.324 146.526 213.114 146.445 212.938 146.283C212.761 146.118 212.673 145.92 212.673 145.69C212.673 145.457 212.761 145.26 212.938 145.098C213.114 144.933 213.324 144.851 213.568 144.851C213.815 144.851 214.026 144.933 214.199 145.098C214.375 145.26 214.463 145.457 214.463 145.69C214.463 145.92 214.375 146.118 214.199 146.283C214.026 146.445 213.815 146.526 213.568 146.526ZM223.788 149.636C223.788 150.577 223.612 151.382 223.26 152.053C222.91 152.72 222.433 153.232 221.828 153.587C221.225 153.942 220.542 154.119 219.778 154.119C219.014 154.119 218.329 153.942 217.724 153.587C217.122 153.229 216.645 152.716 216.292 152.048C215.943 151.378 215.768 150.574 215.768 149.636C215.768 148.696 215.943 147.892 216.292 147.224C216.645 146.554 217.122 146.041 217.724 145.686C218.329 145.331 219.014 145.153 219.778 145.153C220.542 145.153 221.225 145.331 221.828 145.686C222.433 146.041 222.91 146.554 223.26 147.224C223.612 147.892 223.788 148.696 223.788 149.636ZM222.199 149.636C222.199 148.974 222.095 148.416 221.887 147.962C221.683 147.504 221.399 147.159 221.035 146.926C220.672 146.69 220.252 146.572 219.778 146.572C219.304 146.572 218.885 146.69 218.521 146.926C218.157 147.159 217.872 147.504 217.664 147.962C217.46 148.416 217.358 148.974 217.358 149.636C217.358 150.298 217.46 150.858 217.664 151.315C217.872 151.77 218.157 152.115 218.521 152.351C218.885 152.584 219.304 152.7 219.778 152.7C220.252 152.7 220.672 152.584 221.035 152.351C221.399 152.115 221.683 151.77 221.887 151.315C222.095 150.858 222.199 150.298 222.199 149.636ZM230.026 147.672C229.986 147.3 229.818 147.01 229.523 146.803C229.23 146.595 228.849 146.491 228.381 146.491C228.051 146.491 227.768 146.541 227.533 146.641C227.297 146.74 227.116 146.875 226.991 147.045C226.866 147.216 226.803 147.411 226.8 147.629C226.8 147.811 226.841 147.969 226.923 148.102C227.009 148.236 227.124 148.349 227.268 148.443C227.413 148.534 227.574 148.611 227.75 148.673C227.926 148.736 228.104 148.788 228.283 148.831L229.101 149.036C229.43 149.112 229.747 149.216 230.051 149.347C230.358 149.477 230.632 149.642 230.874 149.841C231.118 150.04 231.311 150.28 231.453 150.561C231.595 150.842 231.666 151.172 231.666 151.55C231.666 152.061 231.536 152.511 231.274 152.901C231.013 153.287 230.635 153.589 230.141 153.808C229.649 154.024 229.054 154.132 228.355 154.132C227.676 154.132 227.087 154.027 226.587 153.817C226.089 153.607 225.7 153.3 225.419 152.896C225.141 152.493 224.99 152.001 224.967 151.422H226.523C226.545 151.726 226.639 151.979 226.804 152.18C226.969 152.382 227.183 152.533 227.447 152.632C227.714 152.732 228.013 152.781 228.342 152.781C228.686 152.781 228.987 152.73 229.246 152.628C229.507 152.523 229.712 152.378 229.859 152.193C230.007 152.006 230.082 151.787 230.085 151.537C230.082 151.31 230.016 151.122 229.885 150.974C229.754 150.824 229.571 150.699 229.335 150.599C229.102 150.497 228.83 150.406 228.517 150.327L227.524 150.071C226.805 149.886 226.237 149.607 225.82 149.232C225.405 148.854 225.197 148.352 225.197 147.727C225.197 147.213 225.337 146.763 225.615 146.376C225.896 145.99 226.278 145.69 226.761 145.477C227.244 145.261 227.791 145.153 228.402 145.153C229.021 145.153 229.564 145.261 230.03 145.477C230.499 145.69 230.866 145.987 231.134 146.368C231.401 146.746 231.538 147.18 231.547 147.672H230.026Z" fill="#0098C8"/>
<path opacity="0.6" d="M289 68V184" stroke="#E6EBF0"/>
<path d="M325.5 96.853C325.494 97.1927 325.356 97.4682 325.098 97.6863C324.432 98.2493 323.77 98.8172 323.099 99.3739C322.865 99.5675 322.789 99.7827 322.866 100.08C323.084 100.931 323.287 101.786 323.494 102.64C323.604 103.091 323.447 103.519 323.08 103.786C322.712 104.053 322.254 104.072 321.863 103.831C321.021 103.311 320.181 102.791 319.341 102.268C319.272 102.224 319.225 102.227 319.157 102.27C318.321 102.791 317.484 103.311 316.645 103.827C316.022 104.21 315.223 103.911 315.017 103.221C314.956 103.015 314.964 102.81 315.015 102.603C315.226 101.746 315.433 100.889 315.645 100.033C315.709 99.7767 315.641 99.5761 315.44 99.4069C314.763 98.8394 314.09 98.268 313.416 97.6975C313.072 97.4066 312.929 97.0383 313.033 96.5978C313.135 96.1654 313.409 95.8741 313.848 95.7837C314.111 95.7293 314.386 95.7262 314.656 95.7058C315.357 95.6521 316.058 95.6037 316.759 95.5482C316.991 95.53 317.136 95.3909 317.222 95.1797C317.559 94.3489 317.897 93.5178 318.239 92.6885C318.505 92.0423 319.271 91.8023 319.85 92.1794C320.04 92.3033 320.174 92.474 320.26 92.6832C320.596 93.5066 320.936 94.3291 321.268 95.1542C321.37 95.4054 321.538 95.5386 321.812 95.5568C322.583 95.6085 323.354 95.6681 324.124 95.7267C324.299 95.7399 324.478 95.7438 324.648 95.7808C325.157 95.8906 325.5 96.3322 325.499 96.853H325.5Z" fill="#FFC61C"/>
<path d="M334.766 101.011V99.7685L339.165 92.8182H340.145V94.6477H339.523L336.376 99.6293V99.7088H342.407V101.011H334.766ZM339.593 103V100.634L339.603 100.067V92.8182H341.06V103H339.593ZM344.756 103.094C344.484 103.094 344.251 102.998 344.055 102.806C343.859 102.611 343.762 102.375 343.762 102.1C343.762 101.828 343.859 101.596 344.055 101.404C344.251 101.209 344.484 101.111 344.756 101.111C345.028 101.111 345.261 101.209 345.457 101.404C345.653 101.596 345.75 101.828 345.75 102.1C345.75 102.282 345.704 102.45 345.611 102.602C345.522 102.751 345.402 102.871 345.253 102.96C345.104 103.05 344.938 103.094 344.756 103.094ZM350.82 103.139C350.108 103.139 349.478 103.017 348.931 102.771C348.387 102.526 347.961 102.188 347.653 101.757C347.345 101.326 347.193 100.836 347.196 100.286C347.193 99.8546 347.28 99.4586 347.459 99.0973C347.642 98.7327 347.889 98.4295 348.2 98.1875C348.512 97.9422 348.86 97.7865 349.244 97.7202V97.6605C348.737 97.5379 348.331 97.2661 348.026 96.8452C347.721 96.4242 347.57 95.9403 347.574 95.3935C347.57 94.8731 347.708 94.4091 347.986 94.0014C348.268 93.5904 348.654 93.2673 349.145 93.032C349.635 92.7966 350.194 92.679 350.82 92.679C351.44 92.679 351.993 92.7983 352.481 93.0369C352.971 93.2723 353.357 93.5954 353.639 94.0064C353.921 94.4141 354.063 94.8764 354.067 95.3935C354.063 95.9403 353.907 96.4242 353.599 96.8452C353.291 97.2661 352.89 97.5379 352.396 97.6605V97.7202C352.777 97.7865 353.12 97.9422 353.425 98.1875C353.733 98.4295 353.979 98.7327 354.161 99.0973C354.347 99.4586 354.441 99.8546 354.444 100.286C354.441 100.836 354.285 101.326 353.977 101.757C353.669 102.188 353.241 102.526 352.694 102.771C352.151 103.017 351.526 103.139 350.82 103.139ZM350.82 101.881C351.241 101.881 351.606 101.812 351.914 101.673C352.222 101.53 352.461 101.333 352.63 101.081C352.799 100.826 352.885 100.527 352.888 100.186C352.885 99.8314 352.792 99.5182 352.61 99.2464C352.431 98.9747 352.187 98.7609 351.879 98.6051C351.571 98.4493 351.218 98.3714 350.82 98.3714C350.419 98.3714 350.063 98.4493 349.751 98.6051C349.44 98.7609 349.194 98.9747 349.015 99.2464C348.836 99.5182 348.749 99.8314 348.752 100.186C348.749 100.527 348.83 100.826 348.996 101.081C349.165 101.333 349.405 101.53 349.716 101.673C350.028 101.812 350.396 101.881 350.82 101.881ZM350.82 97.1435C351.158 97.1435 351.458 97.0755 351.72 96.9396C351.982 96.8037 352.187 96.6148 352.336 96.3729C352.489 96.1309 352.567 95.8475 352.57 95.5227C352.567 95.2045 352.491 94.9261 352.341 94.6875C352.196 94.4489 351.992 94.2649 351.73 94.1357C351.468 94.0031 351.165 93.9368 350.82 93.9368C350.469 93.9368 350.161 94.0031 349.895 94.1357C349.634 94.2649 349.43 94.4489 349.284 94.6875C349.138 94.9261 349.067 95.2045 349.07 95.5227C349.067 95.8475 349.14 96.1309 349.289 96.3729C349.438 96.6148 349.644 96.8037 349.905 96.9396C350.171 97.0755 350.475 97.1435 350.82 97.1435ZM362.694 94.586H365.508V95.552H362.694V94.586ZM365.2 91.422H366.362V98.828H365.2V91.422ZM358.144 99.458H366.362V103.924H358.144V99.458ZM365.228 100.382H359.292V102.972H365.228V100.382ZM359.166 92.626H360.118V93.648C360.118 94.4133 359.969 95.1367 359.67 95.818C359.381 96.49 358.97 97.078 358.438 97.582C357.906 98.0767 357.29 98.4547 356.59 98.716L355.988 97.792C356.455 97.624 356.879 97.4 357.262 97.12C357.654 96.84 357.995 96.518 358.284 96.154C358.573 95.7807 358.793 95.384 358.942 94.964C359.091 94.5347 359.166 94.096 359.166 93.648V92.626ZM359.39 92.626H360.342V93.648C360.342 94.1893 360.468 94.7167 360.72 95.23C360.972 95.734 361.331 96.1867 361.798 96.588C362.265 96.98 362.801 97.288 363.408 97.512L362.82 98.436C362.129 98.184 361.527 97.82 361.014 97.344C360.501 96.8587 360.099 96.2987 359.81 95.664C359.53 95.02 359.39 94.348 359.39 93.648V92.626ZM356.352 92.234H363.114V93.186H356.352V92.234Z" fill="#212121"/>
<path d="M317.812 127.088H320.212V127.904H317.812V127.088ZM317.728 129.812H320.188V130.628H317.728V129.812ZM321.868 124.076H322.828V134.936H321.868V124.076ZM319.684 124.364H320.632V134.384H319.684V124.364ZM317.272 125.456H318.232C318.232 126.4 318.096 127.308 317.824 128.18C317.552 129.044 317.116 129.852 316.516 130.604C315.924 131.348 315.144 132.012 314.176 132.596L313.588 131.876C314.436 131.364 315.132 130.788 315.676 130.148C316.22 129.5 316.62 128.8 316.876 128.048C317.14 127.288 317.272 126.484 317.272 125.636V125.456ZM314.068 125.456H317.656V126.272H314.068V125.456ZM332.763 125.732H334.635V126.56H332.763V125.732ZM332.763 128.048H334.635V128.888H332.763V128.048ZM332.067 124.076H333.063V130.52H332.067V124.076ZM326.007 131.036H333.063V134.936H332.067V131.852H326.007V131.036ZM327.663 124.724C328.215 124.724 328.703 124.836 329.127 125.06C329.551 125.276 329.883 125.576 330.123 125.96C330.371 126.344 330.495 126.788 330.495 127.292C330.495 127.804 330.371 128.252 330.123 128.636C329.883 129.02 329.551 129.32 329.127 129.536C328.703 129.752 328.215 129.86 327.663 129.86C327.127 129.86 326.643 129.752 326.211 129.536C325.787 129.32 325.451 129.02 325.203 128.636C324.955 128.252 324.831 127.804 324.831 127.292C324.831 126.788 324.955 126.344 325.203 125.96C325.451 125.576 325.787 125.276 326.211 125.06C326.643 124.836 327.127 124.724 327.663 124.724ZM327.663 125.576C327.311 125.576 326.995 125.648 326.715 125.792C326.435 125.936 326.211 126.14 326.043 126.404C325.883 126.66 325.803 126.956 325.803 127.292C325.803 127.636 325.883 127.94 326.043 128.204C326.211 128.46 326.435 128.66 326.715 128.804C326.995 128.948 327.311 129.02 327.663 129.02C328.023 129.02 328.343 128.948 328.623 128.804C328.903 128.66 329.123 128.46 329.283 128.204C329.451 127.94 329.535 127.636 329.535 127.292C329.535 126.956 329.451 126.66 329.283 126.404C329.123 126.14 328.903 125.936 328.623 125.792C328.343 125.648 328.023 125.576 327.663 125.576ZM343.106 124.088H344.102V132.224H343.106V124.088ZM343.79 127.652H345.698V128.48H343.79V127.652ZM335.702 125.408H342.11V126.212H335.702V125.408ZM338.906 126.8C339.418 126.8 339.87 126.888 340.262 127.064C340.654 127.232 340.958 127.468 341.174 127.772C341.39 128.068 341.498 128.42 341.498 128.828C341.498 129.236 341.39 129.592 341.174 129.896C340.958 130.192 340.654 130.424 340.262 130.592C339.87 130.76 339.418 130.844 338.906 130.844C338.394 130.844 337.942 130.76 337.55 130.592C337.158 130.424 336.85 130.192 336.626 129.896C336.41 129.592 336.302 129.236 336.302 128.828C336.302 128.42 336.41 128.068 336.626 127.772C336.85 127.468 337.158 127.232 337.55 127.064C337.942 126.888 338.394 126.8 338.906 126.8ZM338.906 127.58C338.418 127.58 338.022 127.696 337.718 127.928C337.414 128.152 337.262 128.452 337.262 128.828C337.262 129.204 337.414 129.504 337.718 129.728C338.022 129.952 338.418 130.064 338.906 130.064C339.402 130.064 339.798 129.952 340.094 129.728C340.398 129.504 340.55 129.204 340.55 128.828C340.55 128.452 340.398 128.152 340.094 127.928C339.798 127.696 339.402 127.58 338.906 127.58ZM338.414 124.088H339.41V125.816H338.414V124.088ZM337.346 133.88H344.582V134.696H337.346V133.88ZM337.346 131.576H338.33V134.216H337.346V131.576ZM350.092 132.704H359.932V133.544H350.092V132.704ZM350.956 125.168H359.008V125.984H350.956V125.168ZM350.98 129.74H358.984V130.556H350.98V129.74ZM352.636 125.912H353.632V129.836H352.636V125.912ZM356.332 125.912H357.316V129.836H356.332V125.912ZM361.131 132.764H370.971V133.592H361.131V132.764ZM365.535 130.448H366.519V133.112H365.535V130.448ZM362.331 124.88H369.747V128.168H363.339V130.34H362.355V127.376H368.763V125.696H362.331V124.88ZM362.355 129.92H369.999V130.736H362.355V129.92ZM376.646 126.872H378.626V127.688H376.646V126.872ZM378.266 124.316H379.214V130.616H378.266V124.316ZM374.414 125.504H375.206V126.392C375.206 126.952 375.11 127.5 374.918 128.036C374.734 128.572 374.454 129.052 374.078 129.476C373.71 129.892 373.262 130.22 372.734 130.46L372.206 129.68C372.678 129.48 373.078 129.204 373.406 128.852C373.734 128.5 373.982 128.112 374.15 127.688C374.326 127.256 374.414 126.824 374.414 126.392V125.504ZM374.594 125.504H375.374V126.392C375.374 126.784 375.458 127.18 375.626 127.58C375.794 127.972 376.034 128.332 376.346 128.66C376.666 128.98 377.05 129.236 377.498 129.428L376.982 130.196C376.462 129.98 376.022 129.672 375.662 129.272C375.31 128.872 375.042 128.424 374.858 127.928C374.682 127.424 374.594 126.912 374.594 126.392V125.504ZM372.422 124.964H377.246V125.78H372.422V124.964ZM380.366 124.076H381.314V130.712H380.366V124.076ZM374.042 131.192H381.314V134.936H380.33V132.008H374.042V131.192ZM384.469 129.932H391.921V130.736H384.469V129.932ZM383.209 132.704H393.049V133.532H383.209V132.704ZM384.469 125.012H391.813V125.828H385.477V130.172H384.469V125.012ZM385.165 127.424H391.573V128.228H385.165V127.424Z" fill="#4D525C"/>
<path d="M418.566 132.21V131.341L422.401 125.273H423.032V126.619H422.606L419.708 131.205V131.273H424.873V132.21H418.566ZM422.674 134V131.946V131.541V125.273H423.68V134H422.674ZM429.265 134.119C428.68 134.119 428.163 134.016 427.714 133.808C427.268 133.598 426.92 133.31 426.67 132.943C426.42 132.574 426.297 132.153 426.299 131.682C426.297 131.312 426.369 130.972 426.517 130.659C426.664 130.344 426.866 130.081 427.122 129.871C427.38 129.658 427.669 129.523 427.987 129.466V129.415C427.569 129.307 427.237 129.072 426.99 128.712C426.743 128.348 426.62 127.935 426.623 127.472C426.62 127.028 426.733 126.632 426.96 126.283C427.187 125.933 427.5 125.658 427.897 125.456C428.298 125.254 428.754 125.153 429.265 125.153C429.771 125.153 430.223 125.254 430.62 125.456C431.018 125.658 431.331 125.933 431.558 126.283C431.788 126.632 431.904 127.028 431.907 127.472C431.904 127.935 431.778 128.348 431.528 128.712C431.281 129.072 430.953 129.307 430.544 129.415V129.466C430.859 129.523 431.143 129.658 431.396 129.871C431.649 130.081 431.85 130.344 432.001 130.659C432.152 130.972 432.228 131.312 432.231 131.682C432.228 132.153 432.1 132.574 431.848 132.943C431.598 133.31 431.25 133.598 430.804 133.808C430.36 134.016 429.848 134.119 429.265 134.119ZM429.265 133.182C429.66 133.182 430.001 133.118 430.288 132.99C430.575 132.862 430.797 132.682 430.953 132.449C431.109 132.216 431.189 131.943 431.191 131.631C431.189 131.301 431.103 131.01 430.936 130.757C430.768 130.504 430.539 130.305 430.25 130.161C429.963 130.016 429.635 129.943 429.265 129.943C428.893 129.943 428.561 130.016 428.268 130.161C427.978 130.305 427.75 130.504 427.582 130.757C427.417 131.01 427.336 131.301 427.339 131.631C427.336 131.943 427.412 132.216 427.565 132.449C427.721 132.682 427.944 132.862 428.234 132.99C428.524 133.118 428.868 133.182 429.265 133.182ZM429.265 129.04C429.578 129.04 429.855 128.977 430.096 128.852C430.341 128.727 430.532 128.553 430.672 128.328C430.811 128.104 430.882 127.841 430.885 127.54C430.882 127.244 430.812 126.987 430.676 126.768C430.539 126.547 430.35 126.376 430.109 126.257C429.868 126.135 429.586 126.074 429.265 126.074C428.939 126.074 428.653 126.135 428.409 126.257C428.164 126.376 427.975 126.547 427.842 126.768C427.708 126.987 427.643 127.244 427.646 127.54C427.643 127.841 427.71 128.104 427.846 128.328C427.985 128.553 428.177 128.727 428.422 128.852C428.666 128.977 428.947 129.04 429.265 129.04ZM441.493 124.088H442.489V132.104H441.493V124.088ZM439.141 127.424H441.685V128.252H439.141V127.424ZM438.133 124.916H439.189C439.189 125.852 438.981 126.708 438.565 127.484C438.149 128.252 437.565 128.92 436.813 129.488C436.061 130.056 435.173 130.512 434.149 130.856L433.729 130.052C434.609 129.756 435.381 129.376 436.045 128.912C436.709 128.448 437.221 127.912 437.581 127.304C437.949 126.696 438.133 126.036 438.133 125.324V124.916ZM434.269 124.916H438.781V125.744H434.269V124.916ZM435.625 133.88H442.765V134.696H435.625V133.88ZM435.625 131.288H436.633V134.288H435.625V131.288Z" fill="#4D525C"/>
<path d="M313.6 156.752H323.44V157.592H313.6V156.752ZM317.992 153.944H318.976V157.124H317.992V153.944ZM314.464 149.12H322.516V149.936H314.464V149.12ZM314.488 153.488H322.492V154.28H314.488V153.488ZM316.144 149.768H317.14V153.62H316.144V149.768ZM319.84 149.768H320.824V153.62H319.84V149.768ZM325.899 153.932H333.351V154.736H325.899V153.932ZM324.639 156.704H334.479V157.532H324.639V156.704ZM325.899 149.012H333.243V149.828H326.907V154.172H325.899V149.012ZM326.595 151.424H333.003V152.228H326.595V151.424ZM336.59 148.364H344.546V149.132H336.59V148.364ZM336.626 151.196H344.51V151.964H336.626V151.196ZM338.222 148.652H339.218V151.712H338.222V148.652ZM341.918 148.652H342.914V151.712H341.918V148.652ZM335.678 153.008H345.482V153.8H335.678V153.008ZM340.07 151.76H341.066V153.428H340.07V151.76ZM336.866 154.652H344.222V157.004H337.862V158.36H336.89V156.296H343.25V155.384H336.866V154.652ZM336.89 158.048H344.546V158.816H336.89V158.048ZM354.625 148.076H355.609V158.948H354.625V148.076ZM347.341 155.492H348.241C348.857 155.492 349.449 155.484 350.017 155.468C350.593 155.444 351.173 155.404 351.757 155.348C352.349 155.292 352.965 155.212 353.605 155.108L353.701 155.924C352.725 156.084 351.805 156.192 350.941 156.248C350.077 156.296 349.177 156.32 348.241 156.32H347.341V155.492ZM347.317 149.084H352.333V152.96H348.349V155.804H347.341V152.156H351.325V149.9H347.317V149.084ZM362.16 154.208H363.144V156.908H362.16V154.208ZM362.652 148.784C363.42 148.784 364.1 148.904 364.692 149.144C365.284 149.376 365.748 149.704 366.084 150.128C366.428 150.552 366.6 151.052 366.6 151.628C366.6 152.204 366.428 152.708 366.084 153.14C365.748 153.564 365.284 153.892 364.692 154.124C364.1 154.356 363.42 154.472 362.652 154.472C361.892 154.472 361.212 154.356 360.612 154.124C360.02 153.892 359.556 153.564 359.22 153.14C358.884 152.708 358.716 152.204 358.716 151.628C358.716 151.052 358.884 150.552 359.22 150.128C359.556 149.704 360.02 149.376 360.612 149.144C361.212 148.904 361.892 148.784 362.652 148.784ZM362.652 149.588C362.076 149.588 361.564 149.672 361.116 149.84C360.668 150.008 360.316 150.248 360.06 150.56C359.804 150.864 359.676 151.22 359.676 151.628C359.676 152.036 359.804 152.396 360.06 152.708C360.316 153.02 360.668 153.26 361.116 153.428C361.564 153.596 362.076 153.68 362.652 153.68C363.228 153.68 363.74 153.596 364.188 153.428C364.636 153.26 364.988 153.02 365.244 152.708C365.508 152.396 365.64 152.036 365.64 151.628C365.64 151.22 365.508 150.864 365.244 150.56C364.988 150.248 364.636 150.008 364.188 149.84C363.74 149.672 363.228 149.588 362.652 149.588ZM357.756 156.716H367.596V157.544H357.756V156.716Z" fill="#4D525C"/>
<path d="M421.765 158.119C421.18 158.119 420.663 158.016 420.214 157.808C419.768 157.598 419.42 157.31 419.17 156.943C418.92 156.574 418.797 156.153 418.799 155.682C418.797 155.312 418.869 154.972 419.017 154.659C419.164 154.344 419.366 154.081 419.622 153.871C419.88 153.658 420.169 153.523 420.487 153.466V153.415C420.069 153.307 419.737 153.072 419.49 152.712C419.243 152.348 419.12 151.935 419.123 151.472C419.12 151.028 419.233 150.632 419.46 150.283C419.687 149.933 420 149.658 420.397 149.456C420.798 149.254 421.254 149.153 421.765 149.153C422.271 149.153 422.723 149.254 423.12 149.456C423.518 149.658 423.831 149.933 424.058 150.283C424.288 150.632 424.404 151.028 424.407 151.472C424.404 151.935 424.278 152.348 424.028 152.712C423.781 153.072 423.453 153.307 423.044 153.415V153.466C423.359 153.523 423.643 153.658 423.896 153.871C424.149 154.081 424.35 154.344 424.501 154.659C424.652 154.972 424.728 155.312 424.731 155.682C424.728 156.153 424.6 156.574 424.348 156.943C424.098 157.31 423.75 157.598 423.304 157.808C422.86 158.016 422.348 158.119 421.765 158.119ZM421.765 157.182C422.16 157.182 422.501 157.118 422.788 156.99C423.075 156.862 423.297 156.682 423.453 156.449C423.609 156.216 423.689 155.943 423.691 155.631C423.689 155.301 423.603 155.01 423.436 154.757C423.268 154.504 423.039 154.305 422.75 154.161C422.463 154.016 422.135 153.943 421.765 153.943C421.393 153.943 421.061 154.016 420.768 154.161C420.478 154.305 420.25 154.504 420.082 154.757C419.917 155.01 419.836 155.301 419.839 155.631C419.836 155.943 419.912 156.216 420.065 156.449C420.221 156.682 420.444 156.862 420.734 156.99C421.024 157.118 421.368 157.182 421.765 157.182ZM421.765 153.04C422.078 153.04 422.355 152.977 422.596 152.852C422.841 152.727 423.032 152.553 423.172 152.328C423.311 152.104 423.382 151.841 423.385 151.54C423.382 151.244 423.312 150.987 423.176 150.768C423.039 150.547 422.85 150.376 422.609 150.257C422.368 150.135 422.086 150.074 421.765 150.074C421.439 150.074 421.153 150.135 420.909 150.257C420.664 150.376 420.475 150.547 420.342 150.768C420.208 150.987 420.143 151.244 420.146 151.54C420.143 151.841 420.21 152.104 420.346 152.328C420.485 152.553 420.677 152.727 420.922 152.852C421.166 152.977 421.447 153.04 421.765 153.04ZM429.211 158.119C428.569 158.119 428.022 157.945 427.57 157.595C427.119 157.243 426.773 156.733 426.535 156.065C426.296 155.395 426.177 154.585 426.177 153.636C426.177 152.693 426.296 151.888 426.535 151.22C426.776 150.55 427.123 150.038 427.575 149.686C428.029 149.331 428.575 149.153 429.211 149.153C429.847 149.153 430.391 149.331 430.843 149.686C431.298 150.038 431.644 150.55 431.883 151.22C432.124 151.888 432.245 152.693 432.245 153.636C432.245 154.585 432.126 155.395 431.887 156.065C431.648 156.733 431.303 157.243 430.852 157.595C430.4 157.945 429.853 158.119 429.211 158.119ZM429.211 157.182C429.847 157.182 430.342 156.875 430.694 156.261C431.046 155.648 431.222 154.773 431.222 153.636C431.222 152.881 431.141 152.237 430.979 151.706C430.82 151.175 430.59 150.77 430.289 150.491C429.991 150.213 429.631 150.074 429.211 150.074C428.58 150.074 428.087 150.385 427.732 151.007C427.377 151.626 427.2 152.503 427.2 153.636C427.2 154.392 427.279 155.034 427.438 155.562C427.597 156.091 427.826 156.493 428.124 156.768C428.425 157.044 428.788 157.182 429.211 157.182ZM441.493 148.088H442.489V156.104H441.493V148.088ZM439.141 151.424H441.685V152.252H439.141V151.424ZM438.133 148.916H439.189C439.189 149.852 438.981 150.708 438.565 151.484C438.149 152.252 437.565 152.92 436.813 153.488C436.061 154.056 435.173 154.512 434.149 154.856L433.729 154.052C434.609 153.756 435.381 153.376 436.045 152.912C436.709 152.448 437.221 151.912 437.581 151.304C437.949 150.696 438.133 150.036 438.133 149.324V148.916ZM434.269 148.916H438.781V149.744H434.269V148.916ZM435.625 157.88H442.765V158.696H435.625V157.88ZM435.625 155.288H436.633V158.288H435.625V155.288Z" fill="#4D525C"/>
</g>
<g filter="url(#filter2_d_5918_10960)">
<rect x="32" y="208" width="436" height="116" rx="20" fill="white"/>
<g filter="url(#filter3_d_5918_10960)">
<circle cx="76" cy="248" r="20" fill="#F7FAFC"/>
<circle cx="76" cy="248" r="21.5" stroke="white" stroke-width="3"/>
</g>
<g clip-path="url(#clip1_5918_10960)">
<rect x="56" y="228" width="40" height="40" rx="20" fill="#D0F0F9"/>
<path d="M76.0018 268.001C80.7661 268.001 85.1375 266.337 88.5661 263.559C86.0589 259.216 81.3732 256.287 76.0018 256.287C70.6304 256.287 65.9446 259.216 63.4375 263.559C66.8732 266.337 71.2446 268.001 76.0018 268.001Z" fill="#1E2B48"/>
<path d="M78.9206 250.559V256.537C78.9206 258.187 77.5849 259.523 75.9349 259.523C74.2849 259.523 72.9492 258.187 72.9492 256.537V250.559H78.9278H78.9206Z" fill="#FFB1A6"/>
<path d="M72.9414 250.558V255.244C76.0843 256.072 78.92 253.436 78.92 253.436V250.551H72.9414V250.558Z" fill="#F98C80"/>
<path d="M82.5521 249.122H69.3164V244.122C69.3164 240.465 72.2807 237.508 75.9378 237.508C79.595 237.508 82.5593 240.472 82.5593 244.122V249.122H82.5521Z" fill="#43312E"/>
<path d="M75.9283 254.279C72.7426 254.279 70.1641 251.701 70.1641 248.515V245.544C70.1641 242.358 72.7426 239.779 75.9283 239.779C79.1141 239.779 81.6926 242.358 81.6926 245.544V248.515C81.6926 251.701 79.1141 254.279 75.9283 254.279Z" fill="#FFB1A6"/>
<path d="M69.2557 250.193C70.3958 250.193 71.32 249.269 71.32 248.129C71.32 246.989 70.3958 246.064 69.2557 246.064C68.1156 246.064 67.1914 246.989 67.1914 248.129C67.1914 249.269 68.1156 250.193 69.2557 250.193Z" fill="#FFB1A6"/>
<path d="M82.744 250.193C83.884 250.193 84.8083 249.269 84.8083 248.129C84.8083 246.989 83.884 246.064 82.744 246.064C81.6039 246.064 80.6797 246.989 80.6797 248.129C80.6797 249.269 81.6039 250.193 82.744 250.193Z" fill="#FFB1A6"/>
<path d="M81.316 240.273C81.316 240.273 82.1875 238.53 79.2303 235.709C77.2803 233.852 74.566 233.38 72.766 233.516C70.6589 233.666 70.0517 235.437 72.616 236.166C70.6017 236.502 68.5875 237.509 67.7303 239.459C66.816 241.537 68.0374 242.294 69.7303 241.823C68.8017 243.316 69.016 244.98 69.866 245.373C70.9446 245.873 73.0375 244.702 73.5875 243.973C73.3446 246.016 75.5017 246.587 77.0875 244.702C78.5589 242.966 81.316 240.273 81.316 240.273Z" fill="#43312E"/>
<path d="M77.2002 249.429C77.1574 249.386 77.086 249.393 77.0502 249.429C76.686 249.801 76.2574 249.986 75.8502 249.979C75.4717 249.965 75.1145 249.779 74.8145 249.429C74.7788 249.386 74.7145 249.379 74.6645 249.408C74.6217 249.443 74.6074 249.501 74.636 249.551C74.886 249.965 75.286 250.236 75.7502 250.293C75.8074 250.293 75.8574 250.301 75.9074 250.301C76.3002 250.301 76.6788 250.136 76.9645 249.836L77.2002 249.572C77.2431 249.529 77.236 249.458 77.1931 249.422L77.2002 249.429Z" fill="#F98C80"/>
<path d="M68.8855 249.165C68.8855 249.165 68.9141 249.073 68.8855 249.037C68.5855 248.744 68.4355 248.394 68.4355 248.065C68.4426 247.758 68.5998 247.465 68.8783 247.223C68.9141 247.194 68.9212 247.137 68.8926 247.101C68.8641 247.065 68.8141 247.051 68.7712 247.073C68.4283 247.273 68.2141 247.601 68.1712 247.98C68.1712 248.023 68.1641 248.065 68.1641 248.108C68.1641 248.43 68.2998 248.737 68.5426 248.973L68.7569 249.165C68.7926 249.194 68.8498 249.194 68.8783 249.165H68.8855Z" fill="#F98C80"/>
<path d="M82.9701 249.165C82.9701 249.165 82.9415 249.073 82.9701 249.037C83.2701 248.744 83.4201 248.394 83.4201 248.065C83.4129 247.758 83.2558 247.465 82.9772 247.223C82.9415 247.194 82.9344 247.137 82.9629 247.101C82.9915 247.065 83.0415 247.051 83.0844 247.073C83.4272 247.273 83.6415 247.601 83.6844 247.98C83.6844 248.023 83.6915 248.065 83.6915 248.108C83.6915 248.43 83.5558 248.737 83.3129 248.973L83.0987 249.165C83.0629 249.194 83.0058 249.194 82.9772 249.165H82.9701Z" fill="#F98C80"/>
<path d="M75.7502 247.158C75.7073 247.122 75.6502 247.122 75.6145 247.158C75.5716 247.193 75.5645 247.243 75.5859 247.293C75.6145 247.351 75.6502 247.415 75.6931 247.486C75.8359 247.736 76.0431 248.115 75.9573 248.293C75.9216 248.365 75.8288 248.408 75.6788 248.422C75.6216 248.422 75.5788 248.472 75.5788 248.529C75.5788 248.586 75.6216 248.629 75.6788 248.636C75.7216 248.636 75.7573 248.636 75.7931 248.636C76.0931 248.636 76.2145 248.501 76.2645 248.379C76.4216 248.001 76.0288 247.365 75.7573 247.151L75.7502 247.158Z" fill="#F98C80"/>
<path d="M74.3951 247.521C74.5529 247.521 74.6808 247.349 74.6808 247.136C74.6808 246.923 74.5529 246.75 74.3951 246.75C74.2373 246.75 74.1094 246.923 74.1094 247.136C74.1094 247.349 74.2373 247.521 74.3951 247.521Z" fill="#43312E"/>
<path d="M77.4732 247.521C77.631 247.521 77.7589 247.349 77.7589 247.136C77.7589 246.923 77.631 246.75 77.4732 246.75C77.3154 246.75 77.1875 246.923 77.1875 247.136C77.1875 247.349 77.3154 247.521 77.4732 247.521Z" fill="#43312E"/>
<path d="M78.6288 245.903C78.6411 245.77 78.2624 245.626 77.7832 245.582C77.3039 245.538 76.9055 245.611 76.8932 245.744C76.881 245.878 77.2596 246.022 77.7389 246.066C78.2182 246.11 78.6166 246.037 78.6288 245.903Z" fill="#43312E"/>
<path d="M74.1269 246.061C74.6062 246.017 74.9848 245.873 74.9726 245.739C74.9604 245.606 74.5619 245.533 74.0826 245.577C73.6034 245.621 73.2248 245.765 73.237 245.898C73.2492 246.032 73.6476 246.104 74.1269 246.061Z" fill="#43312E"/>
<path d="M72.3704 248.378C72.9267 248.378 73.3776 248.158 73.3776 247.885C73.3776 247.613 72.9267 247.393 72.3704 247.393C71.8142 247.393 71.3633 247.613 71.3633 247.885C71.3633 248.158 71.8142 248.378 72.3704 248.378Z" fill="#FF8383"/>
<path d="M79.4915 248.378C80.0477 248.378 80.4987 248.158 80.4987 247.885C80.4987 247.613 80.0477 247.393 79.4915 247.393C78.9353 247.393 78.4844 247.613 78.4844 247.885C78.4844 248.158 78.9353 248.378 79.4915 248.378Z" fill="#FF8383"/>
</g>
<path d="M121.119 243V232.818H124.847C125.57 232.818 126.168 232.937 126.642 233.176C127.116 233.411 127.471 233.731 127.706 234.136C127.941 234.537 128.059 234.989 128.059 235.493C128.059 235.917 127.981 236.275 127.825 236.567C127.67 236.855 127.461 237.087 127.199 237.263C126.94 237.435 126.655 237.561 126.344 237.641V237.74C126.682 237.757 127.012 237.866 127.333 238.068C127.658 238.267 127.926 238.55 128.138 238.918C128.351 239.286 128.457 239.734 128.457 240.261C128.457 240.781 128.334 241.248 128.089 241.663C127.847 242.074 127.472 242.4 126.965 242.642C126.458 242.881 125.81 243 125.021 243H121.119ZM122.655 241.683H124.872C125.608 241.683 126.135 241.54 126.453 241.255C126.771 240.97 126.93 240.614 126.93 240.186C126.93 239.865 126.849 239.57 126.687 239.301C126.524 239.033 126.292 238.819 125.991 238.66C125.692 238.501 125.338 238.421 124.927 238.421H122.655V241.683ZM122.655 237.223H124.713C125.058 237.223 125.368 237.157 125.643 237.024C125.921 236.892 126.142 236.706 126.304 236.467C126.47 236.225 126.553 235.94 126.553 235.612C126.553 235.191 126.405 234.838 126.11 234.553C125.815 234.268 125.363 234.126 124.753 234.126H122.655V237.223ZM136.826 232.818H138.368V239.515C138.368 240.228 138.2 240.859 137.865 241.409C137.531 241.956 137.06 242.387 136.453 242.702C135.847 243.013 135.136 243.169 134.321 243.169C133.509 243.169 132.799 243.013 132.193 242.702C131.586 242.387 131.116 241.956 130.781 241.409C130.446 240.859 130.279 240.228 130.279 239.515V232.818H131.815V239.391C131.815 239.851 131.916 240.261 132.118 240.619C132.324 240.977 132.614 241.258 132.988 241.464C133.363 241.666 133.807 241.767 134.321 241.767C134.838 241.767 135.283 241.666 135.658 241.464C136.036 241.258 136.324 240.977 136.523 240.619C136.725 240.261 136.826 239.851 136.826 239.391V232.818ZM142.137 232.818V243H140.601V232.818H142.137ZM144.374 243V232.818H145.911V241.678H150.524V243H144.374ZM155.573 243H152.277V232.818H155.677C156.675 232.818 157.532 233.022 158.248 233.43C158.964 233.834 159.512 234.416 159.893 235.175C160.278 235.93 160.47 236.837 160.47 237.894C160.47 238.955 160.276 239.866 159.888 240.629C159.504 241.391 158.947 241.978 158.218 242.388C157.489 242.796 156.607 243 155.573 243ZM153.813 241.658H155.488C156.264 241.658 156.909 241.512 157.422 241.22C157.936 240.925 158.321 240.499 158.576 239.942C158.831 239.382 158.959 238.7 158.959 237.894C158.959 237.095 158.831 236.418 158.576 235.861C158.324 235.304 157.948 234.881 157.447 234.593C156.947 234.305 156.325 234.161 155.583 234.161H153.813V241.658Z" fill="#212121"/>
<path d="M128.832 253.076H129.792V263.936H128.832V253.076ZM127.08 257.444H129.168V258.26H127.08V257.444ZM124.284 254.48H125.232C125.232 255.176 125.164 255.856 125.028 256.52C124.892 257.184 124.668 257.824 124.356 258.44C124.052 259.048 123.64 259.62 123.12 260.156C122.6 260.684 121.952 261.168 121.176 261.608L120.6 260.9C121.512 260.388 122.236 259.808 122.772 259.16C123.308 258.512 123.692 257.812 123.924 257.06C124.164 256.3 124.284 255.5 124.284 254.66V254.48ZM121.02 254.48H124.608V255.296H121.02V254.48ZM126.432 253.364H127.368V263.396H126.432V253.364ZM132.083 253.532H133.067V255.08H136.127V253.532H137.111V258.26H132.083V253.532ZM133.067 255.86V257.456H136.127V255.86H133.067ZM139.067 253.076H140.063V258.68H139.067V253.076ZM139.619 255.416H141.659V256.232H139.619V255.416ZM133.163 259.196H140.063V261.836H134.171V263.456H133.199V261.092H139.079V259.988H133.163V259.196ZM133.199 263.012H140.447V263.816H133.199V263.012Z" fill="#4D525C"/>
<path d="M151 253V265" stroke="#E6EBF0"/>
<path d="M160.128 253.64H161.124V255.296H164.052V253.64H165.036V258.608H160.128V253.64ZM161.124 256.088V257.792H164.052V256.088H161.124ZM164.76 255.74H167.82V256.568H164.76V255.74ZM167.532 253.076H168.528V259.004H167.532V253.076ZM161.58 259.532H162.564V260.84H167.532V259.532H168.516V263.78H161.58V259.532ZM162.564 261.632V262.964H167.532V261.632H162.564ZM178.535 253.088H179.531V261.008H178.535V253.088ZM172.559 262.88H179.867V263.696H172.559V262.88ZM172.559 260.204H173.555V263.156H172.559V260.204ZM173.711 253.844C174.255 253.844 174.739 253.956 175.163 254.18C175.587 254.404 175.923 254.72 176.171 255.128C176.419 255.528 176.543 255.988 176.543 256.508C176.543 257.028 176.419 257.492 176.171 257.9C175.923 258.3 175.587 258.616 175.163 258.848C174.739 259.072 174.255 259.184 173.711 259.184C173.175 259.184 172.691 259.072 172.259 258.848C171.835 258.616 171.499 258.3 171.251 257.9C171.003 257.492 170.879 257.028 170.879 256.508C170.879 255.988 171.003 255.528 171.251 255.128C171.499 254.72 171.835 254.404 172.259 254.18C172.691 253.956 173.175 253.844 173.711 253.844ZM173.711 254.708C173.359 254.708 173.043 254.784 172.763 254.936C172.483 255.088 172.259 255.3 172.091 255.572C171.931 255.844 171.851 256.156 171.851 256.508C171.851 256.868 171.931 257.184 172.091 257.456C172.259 257.72 172.483 257.928 172.763 258.08C173.043 258.232 173.359 258.308 173.711 258.308C174.063 258.308 174.379 258.232 174.659 258.08C174.947 257.928 175.171 257.72 175.331 257.456C175.491 257.184 175.571 256.868 175.571 256.508C175.571 256.156 175.491 255.844 175.331 255.572C175.171 255.3 174.947 255.088 174.659 254.936C174.379 254.784 174.063 254.708 173.711 254.708ZM187.705 254.012H188.521V255.956C188.521 256.556 188.445 257.144 188.293 257.72C188.149 258.296 187.941 258.836 187.669 259.34C187.397 259.844 187.077 260.292 186.709 260.684C186.341 261.076 185.941 261.388 185.509 261.62L184.897 260.816C185.297 260.616 185.665 260.348 186.001 260.012C186.345 259.668 186.645 259.276 186.901 258.836C187.157 258.396 187.353 257.932 187.489 257.444C187.633 256.948 187.705 256.452 187.705 255.956V254.012ZM187.885 254.012H188.689V255.956C188.689 256.436 188.757 256.912 188.893 257.384C189.037 257.856 189.237 258.3 189.493 258.716C189.749 259.132 190.041 259.504 190.369 259.832C190.705 260.16 191.065 260.42 191.449 260.612L190.837 261.404C190.413 261.188 190.021 260.892 189.661 260.516C189.309 260.14 188.997 259.712 188.725 259.232C188.461 258.744 188.253 258.224 188.101 257.672C187.957 257.112 187.885 256.54 187.885 255.956V254.012ZM192.397 253.076H193.393V263.936H192.397V253.076ZM193.165 257.468H195.169V258.32H193.165V257.468ZM201.54 255.668H204.456V256.484H201.54V255.668ZM199.056 253.58C199.592 253.58 200.068 253.688 200.484 253.904C200.908 254.112 201.24 254.404 201.48 254.78C201.72 255.156 201.84 255.592 201.84 256.088C201.84 256.584 201.72 257.024 201.48 257.408C201.24 257.784 200.908 258.08 200.484 258.296C200.068 258.504 199.592 258.608 199.056 258.608C198.512 258.608 198.028 258.504 197.604 258.296C197.188 258.08 196.86 257.784 196.62 257.408C196.38 257.024 196.26 256.584 196.26 256.088C196.26 255.592 196.38 255.156 196.62 254.78C196.86 254.404 197.188 254.112 197.604 253.904C198.028 253.688 198.512 253.58 199.056 253.58ZM199.056 254.42C198.696 254.42 198.376 254.492 198.096 254.636C197.824 254.772 197.608 254.968 197.448 255.224C197.288 255.472 197.208 255.76 197.208 256.088C197.208 256.416 197.288 256.708 197.448 256.964C197.608 257.212 197.824 257.408 198.096 257.552C198.376 257.696 198.696 257.768 199.056 257.768C199.408 257.768 199.72 257.696 199.992 257.552C200.272 257.408 200.492 257.212 200.652 256.964C200.812 256.708 200.892 256.416 200.892 256.088C200.892 255.76 200.812 255.472 200.652 255.224C200.492 254.968 200.272 254.772 199.992 254.636C199.72 254.492 199.408 254.42 199.056 254.42ZM204.024 253.076H205.02V258.908H204.024V253.076ZM198.072 259.448H199.056V260.804H204.024V259.448H205.02V263.792H198.072V259.448ZM199.056 261.596V262.976H204.024V261.596H199.056ZM209.807 254.636H210.611V256.388C210.611 256.956 210.531 257.52 210.371 258.08C210.211 258.632 209.987 259.156 209.699 259.652C209.419 260.14 209.095 260.576 208.727 260.96C208.359 261.336 207.963 261.632 207.539 261.848L206.951 261.056C207.343 260.864 207.707 260.604 208.043 260.276C208.387 259.94 208.691 259.56 208.955 259.136C209.219 258.704 209.427 258.256 209.579 257.792C209.731 257.32 209.807 256.852 209.807 256.388V254.636ZM209.999 254.636H210.791V256.388C210.791 256.82 210.859 257.256 210.995 257.696C211.139 258.136 211.339 258.556 211.595 258.956C211.851 259.356 212.147 259.716 212.483 260.036C212.827 260.348 213.191 260.6 213.575 260.792L213.011 261.584C212.587 261.368 212.191 261.08 211.823 260.72C211.455 260.352 211.135 259.936 210.863 259.472C210.591 259.008 210.379 258.512 210.227 257.984C210.075 257.456 209.999 256.924 209.999 256.388V254.636ZM207.335 254.192H213.191V255.02H207.335V254.192ZM214.475 253.076H215.471V263.936H214.475V253.076ZM215.243 257.456H217.247V258.296H215.243V257.456Z" fill="#4D525C"/>
<rect x="120" y="280" width="33" height="20" rx="5.42272" fill="#E8FAFF"/>
<path d="M132.331 288.217H130.737C130.692 287.956 130.608 287.724 130.486 287.523C130.364 287.318 130.212 287.145 130.03 287.003C129.848 286.861 129.641 286.754 129.408 286.683C129.178 286.609 128.929 286.572 128.662 286.572C128.188 286.572 127.767 286.692 127.401 286.93C127.034 287.166 126.747 287.513 126.54 287.97C126.332 288.425 126.229 288.98 126.229 289.636C126.229 290.304 126.332 290.866 126.54 291.324C126.75 291.778 127.037 292.122 127.401 292.355C127.767 292.585 128.186 292.7 128.658 292.7C128.919 292.7 129.163 292.666 129.391 292.598C129.621 292.527 129.827 292.423 130.009 292.287C130.193 292.151 130.348 291.983 130.473 291.784C130.601 291.585 130.689 291.358 130.737 291.102L132.331 291.111C132.271 291.526 132.142 291.915 131.943 292.278C131.747 292.642 131.49 292.963 131.172 293.241C130.854 293.517 130.482 293.733 130.055 293.889C129.629 294.043 129.156 294.119 128.636 294.119C127.869 294.119 127.185 293.942 126.582 293.587C125.98 293.232 125.506 292.719 125.159 292.048C124.813 291.378 124.639 290.574 124.639 289.636C124.639 288.696 124.814 287.892 125.163 287.224C125.513 286.554 125.989 286.041 126.591 285.686C127.193 285.331 127.875 285.153 128.636 285.153C129.122 285.153 129.574 285.222 129.991 285.358C130.409 285.494 130.781 285.695 131.108 285.959C131.435 286.22 131.703 286.541 131.913 286.922C132.126 287.3 132.266 287.732 132.331 288.217ZM138.522 287.672C138.482 287.3 138.314 287.01 138.019 286.803C137.726 286.595 137.346 286.491 136.877 286.491C136.547 286.491 136.265 286.541 136.029 286.641C135.793 286.74 135.613 286.875 135.488 287.045C135.363 287.216 135.299 287.411 135.296 287.629C135.296 287.811 135.337 287.969 135.419 288.102C135.505 288.236 135.62 288.349 135.765 288.443C135.909 288.534 136.07 288.611 136.246 288.673C136.422 288.736 136.6 288.788 136.779 288.831L137.597 289.036C137.926 289.112 138.243 289.216 138.547 289.347C138.854 289.477 139.128 289.642 139.37 289.841C139.614 290.04 139.807 290.28 139.949 290.561C140.091 290.842 140.162 291.172 140.162 291.55C140.162 292.061 140.032 292.511 139.77 292.901C139.509 293.287 139.131 293.589 138.637 293.808C138.145 294.024 137.55 294.132 136.851 294.132C136.172 294.132 135.583 294.027 135.083 293.817C134.586 293.607 134.196 293.3 133.915 292.896C133.637 292.493 133.486 292.001 133.463 291.422H135.019C135.042 291.726 135.135 291.979 135.3 292.18C135.465 292.382 135.679 292.533 135.944 292.632C136.211 292.732 136.509 292.781 136.838 292.781C137.182 292.781 137.483 292.73 137.742 292.628C138.003 292.523 138.208 292.378 138.355 292.193C138.503 292.006 138.578 291.787 138.581 291.537C138.578 291.31 138.512 291.122 138.381 290.974C138.25 290.824 138.067 290.699 137.831 290.599C137.598 290.497 137.326 290.406 137.013 290.327L136.02 290.071C135.301 289.886 134.733 289.607 134.316 289.232C133.901 288.854 133.694 288.352 133.694 287.727C133.694 287.213 133.833 286.763 134.111 286.376C134.392 285.99 134.775 285.69 135.257 285.477C135.74 285.261 136.287 285.153 136.898 285.153C137.517 285.153 138.06 285.261 138.526 285.477C138.995 285.69 139.363 285.987 139.63 286.368C139.897 286.746 140.034 287.18 140.043 287.672H138.522ZM146.315 287.672C146.275 287.3 146.107 287.01 145.812 286.803C145.519 286.595 145.138 286.491 144.67 286.491C144.34 286.491 144.058 286.541 143.822 286.641C143.586 286.74 143.406 286.875 143.281 287.045C143.156 287.216 143.092 287.411 143.089 287.629C143.089 287.811 143.13 287.969 143.212 288.102C143.298 288.236 143.413 288.349 143.558 288.443C143.702 288.534 143.863 288.611 144.039 288.673C144.215 288.736 144.393 288.788 144.572 288.831L145.39 289.036C145.719 289.112 146.036 289.216 146.34 289.347C146.647 289.477 146.921 289.642 147.163 289.841C147.407 290.04 147.6 290.28 147.742 290.561C147.884 290.842 147.955 291.172 147.955 291.55C147.955 292.061 147.825 292.511 147.563 292.901C147.302 293.287 146.924 293.589 146.43 293.808C145.938 294.024 145.343 294.132 144.644 294.132C143.965 294.132 143.376 294.027 142.876 293.817C142.379 293.607 141.989 293.3 141.708 292.896C141.43 292.493 141.279 292.001 141.256 291.422H142.812C142.835 291.726 142.928 291.979 143.093 292.18C143.258 292.382 143.472 292.533 143.737 292.632C144.004 292.732 144.302 292.781 144.631 292.781C144.975 292.781 145.276 292.73 145.535 292.628C145.796 292.523 146.001 292.378 146.148 292.193C146.296 292.006 146.371 291.787 146.374 291.537C146.371 291.31 146.305 291.122 146.174 290.974C146.043 290.824 145.86 290.699 145.624 290.599C145.391 290.497 145.119 290.406 144.806 290.327L143.813 290.071C143.094 289.886 142.526 289.607 142.109 289.232C141.694 288.854 141.487 288.352 141.487 287.727C141.487 287.213 141.626 286.763 141.904 286.376C142.185 285.99 142.567 285.69 143.05 285.477C143.533 285.261 144.08 285.153 144.691 285.153C145.31 285.153 145.853 285.261 146.319 285.477C146.788 285.69 147.156 285.987 147.423 286.368C147.69 286.746 147.827 287.18 147.836 287.672H146.315Z" fill="#0098C8"/>
<rect x="161" y="280" width="34" height="20" rx="5.42272" fill="#E8FAFF"/>
<path d="M173.331 288.217H171.737C171.692 287.956 171.608 287.724 171.486 287.523C171.364 287.318 171.212 287.145 171.03 287.003C170.848 286.861 170.641 286.754 170.408 286.683C170.178 286.609 169.929 286.572 169.662 286.572C169.188 286.572 168.767 286.692 168.401 286.93C168.034 287.166 167.747 287.513 167.54 287.97C167.332 288.425 167.229 288.98 167.229 289.636C167.229 290.304 167.332 290.866 167.54 291.324C167.75 291.778 168.037 292.122 168.401 292.355C168.767 292.585 169.186 292.7 169.658 292.7C169.919 292.7 170.163 292.666 170.391 292.598C170.621 292.527 170.827 292.423 171.009 292.287C171.193 292.151 171.348 291.983 171.473 291.784C171.601 291.585 171.689 291.358 171.737 291.102L173.331 291.111C173.271 291.526 173.142 291.915 172.943 292.278C172.747 292.642 172.49 292.963 172.172 293.241C171.854 293.517 171.482 293.733 171.055 293.889C170.629 294.043 170.156 294.119 169.636 294.119C168.869 294.119 168.185 293.942 167.582 293.587C166.98 293.232 166.506 292.719 166.159 292.048C165.813 291.378 165.639 290.574 165.639 289.636C165.639 288.696 165.814 287.892 166.163 287.224C166.513 286.554 166.989 286.041 167.591 285.686C168.193 285.331 168.875 285.153 169.636 285.153C170.122 285.153 170.574 285.222 170.991 285.358C171.409 285.494 171.781 285.695 172.108 285.959C172.435 286.22 172.703 286.541 172.913 286.922C173.126 287.3 173.266 287.732 173.331 288.217ZM177.284 292.602V286.705H178.623V292.602H177.284ZM175.005 290.322V288.984H180.902V290.322H175.005ZM185.359 292.602V286.705H186.697V292.602H185.359ZM183.079 290.322V288.984H188.977V290.322H183.079Z" fill="#0098C8"/>
<path opacity="0.6" d="M289 208V324" stroke="#E6EBF0"/>
<path d="M325.5 236.853C325.494 237.193 325.356 237.468 325.098 237.686C324.432 238.249 323.77 238.817 323.099 239.374C322.865 239.567 322.789 239.783 322.866 240.08C323.084 240.931 323.287 241.786 323.494 242.64C323.604 243.091 323.447 243.519 323.08 243.786C322.712 244.053 322.254 244.072 321.863 243.831C321.021 243.311 320.181 242.791 319.341 242.268C319.272 242.224 319.225 242.227 319.157 242.27C318.321 242.791 317.484 243.311 316.645 243.827C316.022 244.21 315.223 243.911 315.017 243.221C314.956 243.015 314.964 242.81 315.015 242.603C315.226 241.746 315.433 240.889 315.645 240.033C315.709 239.777 315.641 239.576 315.44 239.407C314.763 238.839 314.09 238.268 313.416 237.697C313.072 237.407 312.929 237.038 313.033 236.598C313.135 236.165 313.409 235.874 313.848 235.784C314.111 235.729 314.386 235.726 314.656 235.706C315.357 235.652 316.058 235.604 316.759 235.548C316.991 235.53 317.136 235.391 317.222 235.18C317.559 234.349 317.897 233.518 318.239 232.689C318.505 232.042 319.271 231.802 319.85 232.179C320.04 232.303 320.174 232.474 320.26 232.683C320.596 233.507 320.936 234.329 321.268 235.154C321.37 235.405 321.538 235.539 321.812 235.557C322.583 235.609 323.354 235.668 324.124 235.727C324.299 235.74 324.478 235.744 324.648 235.781C325.157 235.891 325.5 236.332 325.499 236.853H325.5Z" fill="#FFC61C"/>
<path d="M334.766 241.011V239.768L339.165 232.818H340.145V234.648H339.523L336.376 239.629V239.709H342.407V241.011H334.766ZM339.593 243V240.634L339.603 240.067V232.818H341.06V243H339.593ZM344.756 243.094C344.484 243.094 344.251 242.998 344.055 242.806C343.859 242.611 343.762 242.375 343.762 242.1C343.762 241.828 343.859 241.596 344.055 241.404C344.251 241.209 344.484 241.111 344.756 241.111C345.028 241.111 345.261 241.209 345.457 241.404C345.653 241.596 345.75 241.828 345.75 242.1C345.75 242.282 345.704 242.45 345.611 242.602C345.522 242.751 345.402 242.871 345.253 242.96C345.104 243.05 344.938 243.094 344.756 243.094ZM350.918 243.139C350.295 243.139 349.735 243.02 349.238 242.781C348.744 242.539 348.35 242.208 348.055 241.787C347.76 241.366 347.602 240.885 347.582 240.345H349.074C349.11 240.783 349.304 241.142 349.656 241.424C350.007 241.706 350.428 241.847 350.918 241.847C351.309 241.847 351.656 241.757 351.957 241.578C352.262 241.396 352.501 241.146 352.673 240.827C352.849 240.509 352.937 240.146 352.937 239.739C352.937 239.324 352.847 238.955 352.668 238.63C352.489 238.305 352.242 238.05 351.928 237.864C351.616 237.679 351.258 237.584 350.854 237.581C350.545 237.581 350.236 237.634 349.924 237.74C349.612 237.846 349.361 237.985 349.168 238.158L347.761 237.949L348.333 232.818H353.931V234.136H349.611L349.288 236.984H349.347C349.546 236.792 349.81 236.631 350.138 236.502C350.469 236.373 350.824 236.308 351.202 236.308C351.821 236.308 352.373 236.456 352.857 236.751C353.344 237.046 353.727 237.448 354.006 237.959C354.287 238.466 354.427 239.049 354.423 239.709C354.427 240.368 354.277 240.957 353.976 241.474C353.678 241.991 353.263 242.398 352.733 242.697C352.206 242.992 351.601 243.139 350.918 243.139ZM362.708 234.586H365.522V235.552H362.708V234.586ZM365.214 231.422H366.376V238.828H365.214V231.422ZM358.158 239.458H366.376V243.924H358.158V239.458ZM365.242 240.382H359.306V242.972H365.242V240.382ZM359.18 232.626H360.132V233.648C360.132 234.413 359.982 235.137 359.684 235.818C359.394 236.49 358.984 237.078 358.452 237.582C357.92 238.077 357.304 238.455 356.604 238.716L356.002 237.792C356.468 237.624 356.893 237.4 357.276 237.12C357.668 236.84 358.008 236.518 358.298 236.154C358.587 235.781 358.806 235.384 358.956 234.964C359.105 234.535 359.18 234.096 359.18 233.648V232.626ZM359.404 232.626H360.356V233.648C360.356 234.189 360.482 234.717 360.734 235.23C360.986 235.734 361.345 236.187 361.812 236.588C362.278 236.98 362.815 237.288 363.422 237.512L362.834 238.436C362.143 238.184 361.541 237.82 361.028 237.344C360.514 236.859 360.113 236.299 359.824 235.664C359.544 235.02 359.404 234.348 359.404 233.648V232.626ZM356.366 232.234H363.128V233.186H356.366V232.234Z" fill="#212121"/>
<path d="M317.812 267.088H320.212V267.904H317.812V267.088ZM317.728 269.812H320.188V270.628H317.728V269.812ZM321.868 264.076H322.828V274.936H321.868V264.076ZM319.684 264.364H320.632V274.384H319.684V264.364ZM317.272 265.456H318.232C318.232 266.4 318.096 267.308 317.824 268.18C317.552 269.044 317.116 269.852 316.516 270.604C315.924 271.348 315.144 272.012 314.176 272.596L313.588 271.876C314.436 271.364 315.132 270.788 315.676 270.148C316.22 269.5 316.62 268.8 316.876 268.048C317.14 267.288 317.272 266.484 317.272 265.636V265.456ZM314.068 265.456H317.656V266.272H314.068V265.456ZM332.763 265.732H334.635V266.56H332.763V265.732ZM332.763 268.048H334.635V268.888H332.763V268.048ZM332.067 264.076H333.063V270.52H332.067V264.076ZM326.007 271.036H333.063V274.936H332.067V271.852H326.007V271.036ZM327.663 264.724C328.215 264.724 328.703 264.836 329.127 265.06C329.551 265.276 329.883 265.576 330.123 265.96C330.371 266.344 330.495 266.788 330.495 267.292C330.495 267.804 330.371 268.252 330.123 268.636C329.883 269.02 329.551 269.32 329.127 269.536C328.703 269.752 328.215 269.86 327.663 269.86C327.127 269.86 326.643 269.752 326.211 269.536C325.787 269.32 325.451 269.02 325.203 268.636C324.955 268.252 324.831 267.804 324.831 267.292C324.831 266.788 324.955 266.344 325.203 265.96C325.451 265.576 325.787 265.276 326.211 265.06C326.643 264.836 327.127 264.724 327.663 264.724ZM327.663 265.576C327.311 265.576 326.995 265.648 326.715 265.792C326.435 265.936 326.211 266.14 326.043 266.404C325.883 266.66 325.803 266.956 325.803 267.292C325.803 267.636 325.883 267.94 326.043 268.204C326.211 268.46 326.435 268.66 326.715 268.804C326.995 268.948 327.311 269.02 327.663 269.02C328.023 269.02 328.343 268.948 328.623 268.804C328.903 268.66 329.123 268.46 329.283 268.204C329.451 267.94 329.535 267.636 329.535 267.292C329.535 266.956 329.451 266.66 329.283 266.404C329.123 266.14 328.903 265.936 328.623 265.792C328.343 265.648 328.023 265.576 327.663 265.576ZM343.106 264.088H344.102V272.224H343.106V264.088ZM343.79 267.652H345.698V268.48H343.79V267.652ZM335.702 265.408H342.11V266.212H335.702V265.408ZM338.906 266.8C339.418 266.8 339.87 266.888 340.262 267.064C340.654 267.232 340.958 267.468 341.174 267.772C341.39 268.068 341.498 268.42 341.498 268.828C341.498 269.236 341.39 269.592 341.174 269.896C340.958 270.192 340.654 270.424 340.262 270.592C339.87 270.76 339.418 270.844 338.906 270.844C338.394 270.844 337.942 270.76 337.55 270.592C337.158 270.424 336.85 270.192 336.626 269.896C336.41 269.592 336.302 269.236 336.302 268.828C336.302 268.42 336.41 268.068 336.626 267.772C336.85 267.468 337.158 267.232 337.55 267.064C337.942 266.888 338.394 266.8 338.906 266.8ZM338.906 267.58C338.418 267.58 338.022 267.696 337.718 267.928C337.414 268.152 337.262 268.452 337.262 268.828C337.262 269.204 337.414 269.504 337.718 269.728C338.022 269.952 338.418 270.064 338.906 270.064C339.402 270.064 339.798 269.952 340.094 269.728C340.398 269.504 340.55 269.204 340.55 268.828C340.55 268.452 340.398 268.152 340.094 267.928C339.798 267.696 339.402 267.58 338.906 267.58ZM338.414 264.088H339.41V265.816H338.414V264.088ZM337.346 273.88H344.582V274.696H337.346V273.88ZM337.346 271.576H338.33V274.216H337.346V271.576ZM350.092 272.704H359.932V273.544H350.092V272.704ZM350.956 265.168H359.008V265.984H350.956V265.168ZM350.98 269.74H358.984V270.556H350.98V269.74ZM352.636 265.912H353.632V269.836H352.636V265.912ZM356.332 265.912H357.316V269.836H356.332V265.912ZM361.131 272.764H370.971V273.592H361.131V272.764ZM365.535 270.448H366.519V273.112H365.535V270.448ZM362.331 264.88H369.747V268.168H363.339V270.34H362.355V267.376H368.763V265.696H362.331V264.88ZM362.355 269.92H369.999V270.736H362.355V269.92ZM376.646 266.872H378.626V267.688H376.646V266.872ZM378.266 264.316H379.214V270.616H378.266V264.316ZM374.414 265.504H375.206V266.392C375.206 266.952 375.11 267.5 374.918 268.036C374.734 268.572 374.454 269.052 374.078 269.476C373.71 269.892 373.262 270.22 372.734 270.46L372.206 269.68C372.678 269.48 373.078 269.204 373.406 268.852C373.734 268.5 373.982 268.112 374.15 267.688C374.326 267.256 374.414 266.824 374.414 266.392V265.504ZM374.594 265.504H375.374V266.392C375.374 266.784 375.458 267.18 375.626 267.58C375.794 267.972 376.034 268.332 376.346 268.66C376.666 268.98 377.05 269.236 377.498 269.428L376.982 270.196C376.462 269.98 376.022 269.672 375.662 269.272C375.31 268.872 375.042 268.424 374.858 267.928C374.682 267.424 374.594 266.912 374.594 266.392V265.504ZM372.422 264.964H377.246V265.78H372.422V264.964ZM380.366 264.076H381.314V270.712H380.366V264.076ZM374.042 271.192H381.314V274.936H380.33V272.008H374.042V271.192ZM384.469 269.932H391.921V270.736H384.469V269.932ZM383.209 272.704H393.049V273.532H383.209V272.704ZM384.469 265.012H391.813V265.828H385.477V270.172H384.469V265.012ZM385.165 267.424H391.573V268.228H385.165V267.424Z" fill="#4D525C"/>
<path d="M419.099 274V273.233L421.979 270.08C422.317 269.71 422.596 269.389 422.815 269.116C423.033 268.841 423.195 268.582 423.3 268.341C423.408 268.097 423.462 267.841 423.462 267.574C423.462 267.267 423.388 267.001 423.241 266.777C423.096 266.553 422.897 266.379 422.644 266.257C422.391 266.135 422.107 266.074 421.792 266.074C421.457 266.074 421.164 266.143 420.914 266.283C420.667 266.419 420.475 266.611 420.339 266.858C420.205 267.105 420.138 267.395 420.138 267.727H419.133C419.133 267.216 419.251 266.767 419.487 266.381C419.722 265.994 420.043 265.693 420.45 265.477C420.859 265.261 421.317 265.153 421.826 265.153C422.337 265.153 422.79 265.261 423.185 265.477C423.58 265.693 423.89 265.984 424.114 266.351C424.339 266.717 424.451 267.125 424.451 267.574C424.451 267.895 424.393 268.209 424.276 268.516C424.163 268.82 423.964 269.159 423.68 269.534C423.398 269.906 423.008 270.361 422.508 270.898L420.548 272.994V273.062H424.604V274H419.099ZM429.211 274.119C428.569 274.119 428.022 273.945 427.57 273.595C427.119 273.243 426.773 272.733 426.535 272.065C426.296 271.395 426.177 270.585 426.177 269.636C426.177 268.693 426.296 267.888 426.535 267.22C426.776 266.55 427.123 266.038 427.575 265.686C428.029 265.331 428.575 265.153 429.211 265.153C429.847 265.153 430.391 265.331 430.843 265.686C431.298 266.038 431.644 266.55 431.883 267.22C432.124 267.888 432.245 268.693 432.245 269.636C432.245 270.585 432.126 271.395 431.887 272.065C431.648 272.733 431.303 273.243 430.852 273.595C430.4 273.945 429.853 274.119 429.211 274.119ZM429.211 273.182C429.847 273.182 430.342 272.875 430.694 272.261C431.046 271.648 431.222 270.773 431.222 269.636C431.222 268.881 431.141 268.237 430.979 267.706C430.82 267.175 430.59 266.77 430.289 266.491C429.991 266.213 429.631 266.074 429.211 266.074C428.58 266.074 428.087 266.385 427.732 267.007C427.377 267.626 427.2 268.503 427.2 269.636C427.2 270.392 427.279 271.034 427.438 271.562C427.597 272.091 427.826 272.493 428.124 272.768C428.425 273.044 428.788 273.182 429.211 273.182ZM441.493 264.088H442.489V272.104H441.493V264.088ZM439.141 267.424H441.685V268.252H439.141V267.424ZM438.133 264.916H439.189C439.189 265.852 438.981 266.708 438.565 267.484C438.149 268.252 437.565 268.92 436.813 269.488C436.061 270.056 435.173 270.512 434.149 270.856L433.729 270.052C434.609 269.756 435.381 269.376 436.045 268.912C436.709 268.448 437.221 267.912 437.581 267.304C437.949 266.696 438.133 266.036 438.133 265.324V264.916ZM434.269 264.916H438.781V265.744H434.269V264.916ZM435.625 273.88H442.765V274.696H435.625V273.88ZM435.625 271.288H436.633V274.288H435.625V271.288Z" fill="#4D525C"/>
<path d="M313.6 296.752H323.44V297.592H313.6V296.752ZM317.992 293.944H318.976V297.124H317.992V293.944ZM314.464 289.12H322.516V289.936H314.464V289.12ZM314.488 293.488H322.492V294.28H314.488V293.488ZM316.144 289.768H317.14V293.62H316.144V289.768ZM319.84 289.768H320.824V293.62H319.84V289.768ZM325.899 293.932H333.351V294.736H325.899V293.932ZM324.639 296.704H334.479V297.532H324.639V296.704ZM325.899 289.012H333.243V289.828H326.907V294.172H325.899V289.012ZM326.595 291.424H333.003V292.228H326.595V291.424ZM336.59 288.364H344.546V289.132H336.59V288.364ZM336.626 291.196H344.51V291.964H336.626V291.196ZM338.222 288.652H339.218V291.712H338.222V288.652ZM341.918 288.652H342.914V291.712H341.918V288.652ZM335.678 293.008H345.482V293.8H335.678V293.008ZM340.07 291.76H341.066V293.428H340.07V291.76ZM336.866 294.652H344.222V297.004H337.862V298.36H336.89V296.296H343.25V295.384H336.866V294.652ZM336.89 298.048H344.546V298.816H336.89V298.048ZM354.625 288.076H355.609V298.948H354.625V288.076ZM347.341 295.492H348.241C348.857 295.492 349.449 295.484 350.017 295.468C350.593 295.444 351.173 295.404 351.757 295.348C352.349 295.292 352.965 295.212 353.605 295.108L353.701 295.924C352.725 296.084 351.805 296.192 350.941 296.248C350.077 296.296 349.177 296.32 348.241 296.32H347.341V295.492ZM347.317 289.084H352.333V292.96H348.349V295.804H347.341V292.156H351.325V289.9H347.317V289.084ZM362.16 294.208H363.144V296.908H362.16V294.208ZM362.652 288.784C363.42 288.784 364.1 288.904 364.692 289.144C365.284 289.376 365.748 289.704 366.084 290.128C366.428 290.552 366.6 291.052 366.6 291.628C366.6 292.204 366.428 292.708 366.084 293.14C365.748 293.564 365.284 293.892 364.692 294.124C364.1 294.356 363.42 294.472 362.652 294.472C361.892 294.472 361.212 294.356 360.612 294.124C360.02 293.892 359.556 293.564 359.22 293.14C358.884 292.708 358.716 292.204 358.716 291.628C358.716 291.052 358.884 290.552 359.22 290.128C359.556 289.704 360.02 289.376 360.612 289.144C361.212 288.904 361.892 288.784 362.652 288.784ZM362.652 289.588C362.076 289.588 361.564 289.672 361.116 289.84C360.668 290.008 360.316 290.248 360.06 290.56C359.804 290.864 359.676 291.22 359.676 291.628C359.676 292.036 359.804 292.396 360.06 292.708C360.316 293.02 360.668 293.26 361.116 293.428C361.564 293.596 362.076 293.68 362.652 293.68C363.228 293.68 363.74 293.596 364.188 293.428C364.636 293.26 364.988 293.02 365.244 292.708C365.508 292.396 365.64 292.036 365.64 291.628C365.64 291.22 365.508 290.864 365.244 290.56C364.988 290.248 364.636 290.008 364.188 289.84C363.74 289.672 363.228 289.588 362.652 289.588ZM357.756 296.716H367.596V297.544H357.756V296.716Z" fill="#4D525C"/>
<path d="M421.774 298.119C421.416 298.114 421.058 298.045 420.7 297.915C420.342 297.784 420.015 297.564 419.72 297.254C419.424 296.942 419.187 296.52 419.008 295.989C418.829 295.455 418.74 294.784 418.74 293.977C418.74 293.205 418.812 292.52 418.957 291.923C419.102 291.324 419.312 290.82 419.588 290.411C419.863 289.999 420.196 289.686 420.585 289.473C420.977 289.26 421.419 289.153 421.91 289.153C422.399 289.153 422.833 289.251 423.214 289.447C423.598 289.641 423.91 289.911 424.152 290.257C424.393 290.604 424.549 291.003 424.62 291.455H423.581C423.484 291.062 423.297 290.737 423.018 290.479C422.74 290.22 422.37 290.091 421.91 290.091C421.234 290.091 420.701 290.385 420.312 290.973C419.926 291.561 419.731 292.386 419.728 293.449H419.797C419.956 293.207 420.145 293.001 420.363 292.831C420.585 292.658 420.829 292.524 421.096 292.43C421.363 292.337 421.646 292.29 421.944 292.29C422.444 292.29 422.902 292.415 423.316 292.665C423.731 292.912 424.064 293.254 424.314 293.692C424.564 294.126 424.689 294.625 424.689 295.188C424.689 295.727 424.568 296.222 424.326 296.67C424.085 297.116 423.745 297.472 423.308 297.736C422.873 297.997 422.362 298.125 421.774 298.119ZM421.774 297.182C422.132 297.182 422.453 297.092 422.737 296.913C423.024 296.734 423.25 296.494 423.414 296.193C423.582 295.892 423.666 295.557 423.666 295.188C423.666 294.827 423.585 294.499 423.423 294.203C423.264 293.905 423.044 293.668 422.762 293.491C422.484 293.315 422.166 293.227 421.808 293.227C421.538 293.227 421.287 293.281 421.054 293.389C420.821 293.494 420.616 293.639 420.44 293.824C420.267 294.009 420.13 294.22 420.031 294.459C419.931 294.695 419.882 294.943 419.882 295.205C419.882 295.551 419.963 295.875 420.125 296.176C420.289 296.477 420.514 296.72 420.798 296.905C421.085 297.089 421.41 297.182 421.774 297.182ZM429.211 298.119C428.569 298.119 428.022 297.945 427.57 297.595C427.119 297.243 426.773 296.733 426.535 296.065C426.296 295.395 426.177 294.585 426.177 293.636C426.177 292.693 426.296 291.888 426.535 291.22C426.776 290.55 427.123 290.038 427.575 289.686C428.029 289.331 428.575 289.153 429.211 289.153C429.847 289.153 430.391 289.331 430.843 289.686C431.298 290.038 431.644 290.55 431.883 291.22C432.124 291.888 432.245 292.693 432.245 293.636C432.245 294.585 432.126 295.395 431.887 296.065C431.648 296.733 431.303 297.243 430.852 297.595C430.4 297.945 429.853 298.119 429.211 298.119ZM429.211 297.182C429.847 297.182 430.342 296.875 430.694 296.261C431.046 295.648 431.222 294.773 431.222 293.636C431.222 292.881 431.141 292.237 430.979 291.706C430.82 291.175 430.59 290.77 430.289 290.491C429.991 290.213 429.631 290.074 429.211 290.074C428.58 290.074 428.087 290.385 427.732 291.007C427.377 291.626 427.2 292.503 427.2 293.636C427.2 294.392 427.279 295.034 427.438 295.562C427.597 296.091 427.826 296.493 428.124 296.768C428.425 297.044 428.788 297.182 429.211 297.182ZM441.493 288.088H442.489V296.104H441.493V288.088ZM439.141 291.424H441.685V292.252H439.141V291.424ZM438.133 288.916H439.189C439.189 289.852 438.981 290.708 438.565 291.484C438.149 292.252 437.565 292.92 436.813 293.488C436.061 294.056 435.173 294.512 434.149 294.856L433.729 294.052C434.609 293.756 435.381 293.376 436.045 292.912C436.709 292.448 437.221 291.912 437.581 291.304C437.949 290.696 438.133 290.036 438.133 289.324V288.916ZM434.269 288.916H438.781V289.744H434.269V288.916ZM435.625 297.88H442.765V298.696H435.625V297.88ZM435.625 295.288H436.633V298.288H435.625V295.288Z" fill="#4D525C"/>
</g>
</g>
<defs>
<filter id="filter0_d_5918_10960" x="-5.99111" y="68" width="511.982" height="204.646" filterUnits="userSpaceOnUse" color-interpolation-filters="sRGB">
<feFlood flood-opacity="0" result="BackgroundImageFix"/>
<feColorMatrix in="SourceAlpha" type="matrix" values="0 0 0 0 0 0 0 0 0 0 0 0 0 0 0 0 0 0 127 0" result="hardAlpha"/>
<feMorphology radius="12.6637" operator="erode" in="SourceAlpha" result="effect1_dropShadow_5918_10960"/>
<feOffset dy="50.6548"/>
<feGaussianBlur stdDeviation="25.3274"/>
<feComposite in2="hardAlpha" operator="out"/>
<feColorMatrix type="matrix" values="0 0 0 0 0.180392 0 0 0 0 0.419608 0 0 0 0 0.666667 0 0 0 0.12 0"/>
<feBlend mode="normal" in2="BackgroundImageFix" result="effect1_dropShadow_5918_10960"/>
<feBlend mode="normal" in="SourceGraphic" in2="effect1_dropShadow_5918_10960" result="shape"/>
</filter>
<filter id="filter1_d_5918_10960" x="46.8374" y="85" width="58.3252" height="64.4878" filterUnits="userSpaceOnUse" color-interpolation-filters="sRGB">
<feFlood flood-opacity="0" result="BackgroundImageFix"/>
<feColorMatrix in="SourceAlpha" type="matrix" values="0 0 0 0 0 0 0 0 0 0 0 0 0 0 0 0 0 0 127 0" result="hardAlpha"/>
<feMorphology radius="9.2439" operator="erode" in="SourceAlpha" result="effect1_dropShadow_5918_10960"/>
<feOffset dy="12.3252"/>
<feGaussianBlur stdDeviation="7.70325"/>
<feColorMatrix type="matrix" values="0 0 0 0 0.180392 0 0 0 0 0.419608 0 0 0 0 0.666667 0 0 0 0.12 0"/>
<feBlend mode="normal" in2="BackgroundImageFix" result="effect1_dropShadow_5918_10960"/>
<feBlend mode="normal" in="SourceGraphic" in2="effect1_dropShadow_5918_10960" result="shape"/>
</filter>
<filter id="filter2_d_5918_10960" x="-5.99111" y="208" width="511.982" height="204.646" filterUnits="userSpaceOnUse" color-interpolation-filters="sRGB">
<feFlood flood-opacity="0" result="BackgroundImageFix"/>
<feColorMatrix in="SourceAlpha" type="matrix" values="0 0 0 0 0 0 0 0 0 0 0 0 0 0 0 0 0 0 127 0" result="hardAlpha"/>
<feMorphology radius="12.6637" operator="erode" in="SourceAlpha" result="effect1_dropShadow_5918_10960"/>
<feOffset dy="50.6548"/>
<feGaussianBlur stdDeviation="25.3274"/>
<feComposite in2="hardAlpha" operator="out"/>
<feColorMatrix type="matrix" values="0 0 0 0 0.180392 0 0 0 0 0.419608 0 0 0 0 0.666667 0 0 0 0.12 0"/>
<feBlend mode="normal" in2="BackgroundImageFix" result="effect1_dropShadow_5918_10960"/>
<feBlend mode="normal" in="SourceGraphic" in2="effect1_dropShadow_5918_10960" result="shape"/>
</filter>
<filter id="filter3_d_5918_10960" x="46.8374" y="225" width="58.3252" height="64.4878" filterUnits="userSpaceOnUse" color-interpolation-filters="sRGB">
<feFlood flood-opacity="0" result="BackgroundImageFix"/>
<feColorMatrix in="SourceAlpha" type="matrix" values="0 0 0 0 0 0 0 0 0 0 0 0 0 0 0 0 0 0 127 0" result="hardAlpha"/>
<feMorphology radius="9.2439" operator="erode" in="SourceAlpha" result="effect1_dropShadow_5918_10960"/>
<feOffset dy="12.3252"/>
<feGaussianBlur stdDeviation="7.70325"/>
<feColorMatrix type="matrix" values="0 0 0 0 0.180392 0 0 0 0 0.419608 0 0 0 0 0.666667 0 0 0 0.12 0"/>
<feBlend mode="normal" in2="BackgroundImageFix" result="effect1_dropShadow_5918_10960"/>
<feBlend mode="normal" in="SourceGraphic" in2="effect1_dropShadow_5918_10960" result="shape"/>
</filter>
<clipPath id="clip0_5918_10960">
<rect width="500" height="393" fill="white"/>
</clipPath>
<clipPath id="clip1_5918_10960">
<rect x="56" y="228" width="40" height="40" rx="20" fill="white"/>
</clipPath>
</defs>
</svg>
